# Blender 3.6.23
# www.blender.org
mtllib mesh_g1.mtl
o kapota
v -0.758549 0.584467 1.932761
v 0.758549 0.584467 1.932761
v -0.758549 0.633589 1.221449
v 0.758549 0.633589 1.221449
v -0.758549 0.658988 0.868845
v 0.758549 0.658988 0.868845
v 0.758549 0.608557 1.577105
v -0.758549 0.608557 1.577105
v -0.758549 0.563397 2.161083
v 0.758549 0.563397 2.161083
v 0.408474 0.693345 0.901997
v 0.454312 0.690034 0.897415
v -0.021915 0.698013 0.913722
v 0.021915 0.698013 0.913722
v -0.454312 0.690034 0.897415
v -0.408474 0.693345 0.901997
v 0.454312 0.563397 2.161084
v 0.408474 0.563425 2.161084
v 0.021915 0.565084 2.161084
v -0.021915 0.565084 2.161084
v -0.408474 0.563425 2.161084
v -0.454312 0.563397 2.161084
v 0.454312 0.588916 1.932761
v 0.408474 0.590272 1.932761
v 0.454312 0.618668 1.577105
v 0.408474 0.620780 1.577105
v 0.454312 0.652752 1.224678
v 0.408474 0.655632 1.226479
v 0.021915 0.598195 1.932761
v -0.021915 0.598195 1.932761
v 0.021915 0.633110 1.577105
v -0.021915 0.633110 1.577105
v 0.021915 0.666573 1.241615
v -0.021915 0.666573 1.241615
v -0.408474 0.590272 1.932761
v -0.454312 0.588916 1.932761
v -0.408474 0.620780 1.577105
v -0.454312 0.618668 1.577105
v -0.408474 0.655632 1.226479
v -0.454312 0.652752 1.224679
v 0.417919 0.595726 1.932761
v 0.444867 0.566427 2.152076
v 0.417919 0.566465 2.152076
v 0.444867 0.594926 1.932761
v -0.012884 0.603947 1.932761
v 0.012884 0.568353 2.152076
v -0.012884 0.568353 2.152076
v 0.012884 0.603947 1.932761
v -0.444868 0.594926 1.932761
v -0.417919 0.566465 2.152076
v -0.444868 0.566427 2.152076
v -0.417919 0.595726 1.932761
v 0.417919 0.626081 1.577105
v 0.444867 0.624839 1.577105
v -0.012884 0.638856 1.577105
v 0.012884 0.638856 1.577105
v -0.444868 0.624839 1.577105
v -0.417919 0.626081 1.577105
v 0.417919 0.660832 1.226136
v 0.444868 0.659142 1.225071
v -0.012884 0.672335 1.241715
v 0.012884 0.672335 1.241715
v -0.444868 0.659142 1.225071
v -0.417919 0.660832 1.226136
v 0.444867 0.695962 0.907336
v 0.417919 0.697888 0.910032
v 0.012884 0.703174 0.922662
v -0.012884 0.703174 0.922662
v -0.417919 0.697888 0.910032
v -0.444868 0.695962 0.907336
v 0.747436 0.515364 2.270466
v -0.747436 0.515364 2.270466
v 0.428689 0.515364 2.270466
v 0.000000 0.515364 2.270466
v -0.428689 0.515364 2.270466
v 0.758549 0.603602 1.577105
v 0.758549 0.579512 1.932761
v -0.758549 0.603602 1.577105
v -0.758549 0.628634 1.221449
v 0.758549 0.628634 1.221449
v -0.758549 0.579512 1.932761
v -0.758549 0.558442 2.161083
v 0.758549 0.558442 2.161083
v 0.758549 0.654033 0.868845
v -0.758549 0.654033 0.868845
v 0.444867 0.589971 1.932761
v 0.417919 0.590771 1.932761
v 0.408474 0.585317 1.932761
v 0.408474 0.558470 2.161084
v 0.417919 0.561510 2.152076
v 0.444867 0.561472 2.152076
v 0.454312 0.558442 2.161084
v 0.454312 0.583961 1.932761
v 0.012884 0.598992 1.932761
v -0.012884 0.598992 1.932761
v -0.021915 0.593240 1.932761
v -0.021915 0.560129 2.161084
v -0.012884 0.563398 2.152076
v 0.012884 0.563398 2.152076
v 0.021915 0.560129 2.161084
v 0.021915 0.593240 1.932761
v -0.417919 0.590771 1.932761
v -0.444868 0.589972 1.932761
v -0.454312 0.583961 1.932761
v -0.454312 0.558442 2.161084
v -0.444868 0.561472 2.152076
v -0.417919 0.561510 2.152076
v -0.408474 0.558470 2.161084
v -0.408474 0.585317 1.932761
v 0.444867 0.619884 1.577105
v 0.417919 0.621126 1.577105
v 0.408474 0.615825 1.577105
v 0.454312 0.613713 1.577105
v 0.012884 0.633901 1.577105
v -0.012884 0.633901 1.577105
v -0.021915 0.628155 1.577105
v 0.021915 0.628155 1.577105
v -0.417919 0.621126 1.577105
v -0.444868 0.619884 1.577105
v -0.454312 0.613713 1.577105
v -0.408474 0.615825 1.577105
v 0.444868 0.654187 1.225071
v 0.417919 0.655877 1.226136
v 0.408474 0.650677 1.226479
v 0.454312 0.647797 1.224678
v 0.012884 0.667380 1.241715
v -0.012884 0.667380 1.241715
v -0.021915 0.661618 1.241615
v 0.021915 0.661618 1.241615
v -0.417919 0.655877 1.226136
v -0.444868 0.654187 1.225071
v -0.454312 0.647797 1.224679
v -0.408474 0.650677 1.226479
v 0.444867 0.691007 0.907336
v 0.417919 0.692933 0.910032
v 0.408474 0.688390 0.901997
v 0.454312 0.685079 0.897415
v 0.012884 0.698219 0.922662
v -0.012884 0.698219 0.922662
v -0.021915 0.693058 0.913722
v 0.021915 0.693058 0.913722
v -0.417919 0.692933 0.910032
v -0.444868 0.691007 0.907336
v -0.454312 0.685079 0.897415
v -0.408474 0.688390 0.901997
v 0.000000 0.510409 2.270466
v 0.428689 0.510409 2.270466
v -0.428689 0.510409 2.270466
v -0.747436 0.510409 2.270466
v 0.747436 0.510409 2.270466
vn -0.0203 0.9894 0.1435
vn -0.0000 0.9958 0.0919
vn -0.0145 0.9937 0.1111
vn 0.0146 0.9976 0.0676
vn 0.0204 0.9961 0.0854
vn 0.0634 0.9955 0.0701
vn -0.0317 0.9946 0.0992
vn -0.0331 0.9948 0.0962
vn 0.0320 0.9946 0.0989
vn -0.0317 0.9947 0.0977
vn -0.0331 0.9960 0.0833
vn -0.0319 0.9949 0.0954
vn 0.1079 0.9916 0.0714
vn -0.0637 0.9916 0.1130
vn 0.0043 0.9931 0.1168
vn 0.0294 0.9908 0.1322
vn -0.0000 0.9871 0.1602
vn -0.0294 0.9908 0.1322
vn 0.0459 0.9953 0.0850
vn -0.0000 0.9952 0.0977
vn -0.0459 0.9953 0.0850
vn 0.0661 0.9931 0.0968
vn -0.0000 0.9951 0.0993
vn -0.0661 0.9931 0.0968
vn 0.0822 0.9900 0.1147
vn -0.0000 0.9954 0.0962
vn -0.0822 0.9900 0.1147
vn 0.0155 0.9932 0.1154
vn -0.2039 0.9723 0.1143
vn 0.0013 0.9182 0.3962
vn 0.5337 0.8386 0.1090
vn -0.2103 0.9675 0.1403
vn 0.0759 0.9180 0.3893
vn 0.5322 0.8357 0.1356
vn -0.2082 0.9720 0.1086
vn -0.0737 0.9194 0.3865
vn 0.4968 0.8603 0.1148
vn -0.4987 0.8636 0.0741
vn 0.5456 0.8351 0.0702
vn -0.5353 0.8406 0.0825
vn 0.5350 0.8408 0.0825
vn -0.5356 0.8416 0.0704
vn 0.4881 0.8696 0.0742
vn -0.4876 0.8688 0.0864
vn 0.5608 0.8240 0.0803
vn -0.5349 0.8407 0.0839
vn 0.5366 0.8396 0.0838
vn -0.5452 0.8344 0.0807
vn 0.4781 0.8740 0.0865
vn 0.0115 0.8646 -0.5024
vn -0.4769 0.8730 0.1023
vn 0.5962 0.7977 0.0909
vn -0.0000 0.8660 -0.5000
vn -0.5367 0.8398 0.0812
vn 0.5528 0.8295 0.0795
vn -0.0119 0.8633 -0.5045
vn -0.5605 0.8226 0.0953
vn 0.4992 0.8607 0.1000
vn -0.0000 0.9156 0.4021
vn -0.0039 0.9158 0.4017
vn 0.0039 0.9158 0.4017
vn 0.0696 0.9133 0.4012
vn -0.0696 0.9133 0.4012
vn -0.0000 0.9127 0.4085
vn 0.0737 0.9194 0.3865
vn -0.0759 0.9180 0.3893
vn -0.0013 0.9182 0.3962
vn 0.0203 -0.9894 -0.1435
vn -0.0145 -0.9937 -0.1111
vn 0.0145 -0.9937 -0.1111
vn -0.0331 -0.9960 -0.0833
vn -0.0317 -0.9947 -0.0977
vn -0.0634 -0.9955 -0.0701
vn 0.0320 -0.9946 -0.0989
vn 0.0634 -0.9955 -0.0701
vn -0.0320 -0.9946 -0.0989
vn 0.0317 -0.9947 -0.0977
vn 0.0331 -0.9960 -0.0833
vn 0.0155 -0.9932 -0.1154
vn -0.1079 -0.9916 -0.0714
vn 0.1079 -0.9916 -0.0714
vn -0.0203 -0.9894 -0.1435
vn -0.0294 -0.9908 -0.1322
vn -0.0000 -0.9871 -0.1602
vn 0.0014 -0.9917 -0.1289
vn -0.0459 -0.9953 -0.0850
vn -0.0000 -0.9952 -0.0977
vn 0.0295 -0.9960 -0.0838
vn -0.0458 -0.9941 -0.0984
vn -0.0000 -0.9951 -0.0993
vn 0.0661 -0.9931 -0.0968
vn -0.0667 -0.9910 -0.1162
vn -0.0000 -0.9954 -0.0962
vn 0.0822 -0.9900 -0.1147
vn -0.0155 -0.9932 -0.1154
vn 0.4968 -0.8603 -0.1148
vn -0.0013 -0.9182 -0.3962
vn -0.5337 -0.8386 -0.1090
vn 0.5322 -0.8357 -0.1356
vn -0.0759 -0.9180 -0.3893
vn -0.5322 -0.8357 -0.1356
vn 0.5337 -0.8386 -0.1090
vn 0.0737 -0.9194 -0.3865
vn -0.4968 -0.8603 -0.1148
vn 0.4881 -0.8696 -0.0742
vn -0.5456 -0.8351 -0.0702
vn 0.5353 -0.8406 -0.0825
vn 0.5350 -0.8408 -0.0825
vn -0.5350 -0.8408 -0.0825
vn 0.5456 -0.8351 -0.0702
vn -0.4881 -0.8696 -0.0742
vn 0.4781 -0.8740 -0.0865
vn -0.5608 -0.8240 -0.0803
vn 0.5366 -0.8396 -0.0838
vn -0.5366 -0.8396 -0.0838
vn 0.5608 -0.8240 -0.0803
vn -0.4781 -0.8740 -0.0865
vn -0.0115 -0.8646 0.5024
vn 0.4769 -0.8730 -0.1023
vn -0.5605 -0.8226 -0.0953
vn -0.0000 -0.8660 0.5000
vn 0.5367 -0.8398 -0.0812
vn -0.5367 -0.8398 -0.0812
vn 0.0115 -0.8646 0.5024
vn 0.5605 -0.8226 -0.0953
vn -0.4769 -0.8730 -0.1023
vn -0.0000 -0.9156 -0.4021
vn 0.0039 -0.9158 -0.4017
vn -0.0000 -0.9104 -0.4138
vn -0.0696 -0.9133 -0.4012
vn 0.0696 -0.9133 -0.4012
vn -0.0000 -0.9127 -0.4085
vn -0.0737 -0.9194 -0.3865
vn 0.0759 -0.9180 -0.3893
vn 0.0013 -0.9182 -0.3962
vn -1.0000 -0.0000 -0.0000
vn -0.0000 -0.0000 1.0000
vn 0.0935 -0.0000 -0.9956
vn 1.0000 -0.0000 -0.0000
vn -0.0000 -0.0000 -1.0000
vn -0.0303 -0.0000 -0.9995
vn -0.0935 -0.0000 -0.9956
vn 0.9949 -0.0000 0.1011
vn -0.9949 -0.0000 0.1011
vn 0.0995 -0.0000 -0.9950
vn 0.0303 -0.0000 -0.9995
vn -0.0995 -0.0000 -0.9950
vn -0.0043 0.9931 0.1168
vn 0.0145 0.9937 0.1111
vn 0.0331 0.9960 0.0833
vn 0.0317 0.9947 0.0977
vn 0.0331 0.9948 0.0962
vn -0.0320 0.9946 0.0989
vn -0.0634 0.9955 0.0701
vn 0.0317 0.9946 0.0992
vn -0.0204 0.9961 0.0854
vn -0.0146 0.9976 0.0676
vn -0.0155 0.9932 0.1154
vn 0.0637 0.9916 0.1130
vn -0.1079 0.9916 0.0714
vn 0.0203 0.9894 0.1435
vn 0.0014 0.9917 0.1289
vn -0.0014 0.9917 0.1289
vn 0.0295 0.9960 0.0838
vn -0.0295 0.9960 0.0838
vn 0.0458 0.9941 0.0984
vn -0.0458 0.9941 0.0984
vn 0.0667 0.9910 0.1162
vn -0.0667 0.9910 0.1162
vn 0.0319 0.9949 0.0954
vn -0.4968 0.8603 0.1148
vn 0.2082 0.9720 0.1086
vn -0.5322 0.8357 0.1356
vn 0.2103 0.9675 0.1403
vn -0.5337 0.8386 0.1090
vn 0.2039 0.9723 0.1143
vn -0.4881 0.8696 0.0742
vn 0.5356 0.8416 0.0704
vn -0.5350 0.8408 0.0825
vn 0.5353 0.8406 0.0825
vn -0.5456 0.8351 0.0702
vn 0.4987 0.8636 0.0741
vn -0.4781 0.8740 0.0865
vn 0.5452 0.8344 0.0807
vn -0.5366 0.8396 0.0838
vn 0.5349 0.8407 0.0839
vn -0.5608 0.8240 0.0803
vn 0.4876 0.8688 0.0864
vn 0.0119 0.8633 -0.5045
vn -0.4992 0.8607 0.1000
vn 0.5605 0.8226 0.0953
vn -0.5528 0.8295 0.0795
vn 0.5367 0.8398 0.0812
vn -0.0115 0.8646 -0.5024
vn -0.5962 0.7977 0.0909
vn 0.4769 0.8730 0.1023
vn -0.0000 0.9104 0.4138
vn 0.0043 -0.9931 -0.1168
vn -0.0000 -0.9958 -0.0919
vn -0.0146 -0.9976 -0.0676
vn -0.0204 -0.9961 -0.0854
vn -0.0331 -0.9948 -0.0962
vn 0.0317 -0.9946 -0.0992
vn 0.0331 -0.9948 -0.0962
vn -0.0317 -0.9946 -0.0992
vn 0.0204 -0.9961 -0.0854
vn 0.0146 -0.9976 -0.0676
vn 0.0319 -0.9949 -0.0954
vn -0.0637 -0.9916 -0.1130
vn 0.0637 -0.9916 -0.1130
vn -0.0043 -0.9931 -0.1168
vn -0.0014 -0.9917 -0.1289
vn 0.0294 -0.9908 -0.1322
vn -0.0295 -0.9960 -0.0838
vn 0.0459 -0.9953 -0.0850
vn -0.0661 -0.9931 -0.0968
vn 0.0458 -0.9941 -0.0984
vn -0.0822 -0.9900 -0.1147
vn 0.0667 -0.9910 -0.1162
vn -0.0319 -0.9949 -0.0954
vn 0.2039 -0.9723 -0.1143
vn -0.2082 -0.9720 -0.1086
vn 0.2103 -0.9675 -0.1403
vn -0.2103 -0.9675 -0.1403
vn 0.2082 -0.9720 -0.1086
vn -0.2039 -0.9723 -0.1143
vn 0.4987 -0.8636 -0.0741
vn -0.5356 -0.8415 -0.0704
vn -0.5353 -0.8406 -0.0825
vn 0.5356 -0.8416 -0.0704
vn -0.4987 -0.8636 -0.0741
vn 0.4876 -0.8688 -0.0864
vn -0.5452 -0.8344 -0.0807
vn 0.5349 -0.8407 -0.0839
vn -0.5349 -0.8407 -0.0839
vn 0.5452 -0.8344 -0.0807
vn -0.4876 -0.8688 -0.0864
vn -0.0119 -0.8633 0.5045
vn 0.4992 -0.8607 -0.1000
vn -0.5962 -0.7977 -0.0909
vn 0.5528 -0.8295 -0.0795
vn -0.5528 -0.8295 -0.0795
vn 0.0119 -0.8633 0.5045
vn 0.5962 -0.7977 -0.0909
vn -0.4992 -0.8607 -0.1000
vn -0.0039 -0.9158 -0.4017
vt 0.039378 0.965205
vt 0.041599 0.961459
vt 0.039365 0.961459
vt 0.039388 0.953896
vt 0.041602 0.956844
vt 0.041602 0.953896
vt 0.039388 0.968597
vt 0.041602 0.965649
vt 0.039380 0.965649
vt 0.035953 0.953896
vt 0.039380 0.956844
vt 0.035932 0.957288
vt 0.039365 0.961034
vt 0.039378 0.957288
vt 0.032515 0.956844
vt 0.032517 0.953896
vt 0.032654 0.961459
vt 0.035932 0.965205
vt 0.035912 0.961459
vt 0.032515 0.965649
vt 0.035953 0.968597
vt 0.035936 0.965649
vt 0.032654 0.961034
vt 0.032528 0.957288
vt 0.029471 0.961459
vt 0.032528 0.965205
vt 0.029329 0.956844
vt 0.029109 0.953896
vt 0.029329 0.965649
vt 0.032517 0.968597
vt 0.041599 0.961034
vt 0.041602 0.957288
vt 0.041511 0.957196
vt 0.039370 0.956935
vt 0.039369 0.957196
vt 0.041508 0.961371
vt 0.039355 0.961121
vt 0.039355 0.961371
vt 0.039370 0.965557
vt 0.041511 0.965296
vt 0.039369 0.965296
vt 0.035926 0.956935
vt 0.035923 0.957196
vt 0.035902 0.961121
vt 0.035902 0.961371
vt 0.035926 0.965557
vt 0.035923 0.965296
vt 0.032515 0.957196
vt 0.032508 0.956935
vt 0.032645 0.961371
vt 0.032645 0.961121
vt 0.032515 0.965296
vt 0.032508 0.965557
vt 0.029436 0.957196
vt 0.029414 0.956935
vt 0.029548 0.961121
vt 0.029548 0.961371
vt 0.029436 0.965296
vt 0.029414 0.965557
vt 0.029471 0.961034
vt 0.029367 0.957288
vt 0.041511 0.956935
vt 0.042727 0.957092
vt 0.041508 0.961121
vt 0.041511 0.965557
vt 0.035936 0.956844
vt 0.035912 0.961034
vt 0.029367 0.965205
vt 0.042727 0.968489
vt 0.041602 0.968597
vt 0.042727 0.965401
vt 0.041602 0.965205
vt 0.042727 0.954003
vt 0.042727 0.961246
vt 0.016620 0.961449
vt 0.018841 0.965198
vt 0.018854 0.961452
vt 0.018831 0.953905
vt 0.016617 0.956840
vt 0.018839 0.956847
vt 0.016617 0.965635
vt 0.018831 0.968589
vt 0.018839 0.965642
vt 0.022266 0.953923
vt 0.022283 0.956863
vt 0.022286 0.957305
vt 0.018854 0.961028
vt 0.022307 0.961041
vt 0.025703 0.956876
vt 0.025701 0.953941
vt 0.025565 0.961478
vt 0.022286 0.965213
vt 0.025691 0.965225
vt 0.025703 0.965671
vt 0.022266 0.968607
vt 0.025701 0.968624
vt 0.025565 0.961053
vt 0.025691 0.957318
vt 0.022307 0.961465
vt 0.022283 0.965657
vt 0.028747 0.961490
vt 0.028851 0.965235
vt 0.028889 0.956886
vt 0.029109 0.953958
vt 0.028889 0.965680
vt 0.029109 0.968642
vt 0.018841 0.957290
vt 0.016620 0.961025
vt 0.018849 0.956936
vt 0.016708 0.957192
vt 0.018850 0.957196
vt 0.018864 0.961113
vt 0.016711 0.961361
vt 0.018864 0.961362
vt 0.018849 0.965548
vt 0.016708 0.965282
vt 0.016708 0.965543
vt 0.022293 0.956951
vt 0.022295 0.957212
vt 0.022317 0.961126
vt 0.022317 0.961375
vt 0.022293 0.965563
vt 0.018850 0.965286
vt 0.025703 0.957224
vt 0.025574 0.961138
vt 0.025574 0.961388
vt 0.025703 0.965315
vt 0.025710 0.965576
vt 0.028782 0.957233
vt 0.025710 0.956964
vt 0.028670 0.961150
vt 0.028670 0.961399
vt 0.028782 0.965323
vt 0.028804 0.965585
vt 0.028747 0.961066
vt 0.028851 0.957327
vt 0.016708 0.956931
vt 0.015492 0.957102
vt 0.016617 0.957284
vt 0.016711 0.961111
vt 0.022295 0.965302
vt 0.028804 0.956974
vt 0.015492 0.968485
vt 0.015492 0.965400
vt 0.016617 0.965191
vt 0.015492 0.961251
vt 0.015492 0.954017
vt 0.016617 0.953896
vt 0.043304 0.970982
vt 0.043462 0.974429
vt 0.043352 0.970977
vt 0.043201 0.968382
vt 0.043153 0.965293
vt 0.043153 0.968382
vt 0.042852 0.956844
vt 0.043105 0.953896
vt 0.042804 0.956844
vt 0.043342 0.960772
vt 0.043500 0.957324
vt 0.043452 0.957319
vt 0.043201 0.956984
vt 0.043153 0.953896
vt 0.043153 0.956984
vt 0.042775 0.961459
vt 0.042727 0.961034
vt 0.042727 0.961459
vt 0.042772 0.965205
vt 0.043414 0.974434
vt 0.043581 0.977881
vt 0.043201 0.961139
vt 0.043153 0.961139
vt 0.043533 0.977886
vt 0.043603 0.980103
vt 0.043201 0.965293
vt 0.043105 0.968597
vt 0.042852 0.965649
vt 0.042804 0.965649
vt 0.043556 0.967549
vt 0.043249 0.966450
vt 0.043201 0.966445
vt 0.043271 0.964228
vt 0.043223 0.964223
vt 0.043556 0.980107
vt 0.043249 0.981206
vt 0.042820 0.957288
vt 0.042772 0.957288
vt 0.043603 0.953901
vt 0.043556 0.953896
vt 0.042775 0.961034
vt 0.042820 0.965205
vt 0.043201 0.967558
vt 0.043249 0.967553
vt 0.043390 0.960777
vt 0.029109 0.968597
vt 0.016617 0.968580
vt 0.043201 0.953896
vt 0.043153 0.968597
vt 0.043603 0.967553
vt 0.043201 0.981211
s 1
usemtl Material.003
f 35/1/1 20/2/1 30/3/1
f 2/4/2 17/5/2 10/6/2
f 1/7/3 22/8/3 36/9/3
f 7/10/4 23/11/4 2/4/4
f 26/12/5 29/13/5 24/14/5
f 27/15/6 7/10/6 4/16/6
f 34/17/7 37/18/7 32/19/7
f 40/20/8 8/21/8 38/22/8
f 33/23/9 26/12/9 28/24/9
f 37/18/10 30/3/10 32/19/10
f 8/21/11 36/9/11 38/22/11
f 13/25/12 39/26/12 34/17/12
f 12/27/13 4/16/13 6/28/13
f 15/29/14 3/30/14 40/20/14
f 24/14/15 19/31/15 18/32/15
f 43/33/16 44/34/16 41/35/16
f 47/36/17 48/37/17 45/38/17
f 49/39/18 50/40/18 52/41/18
f 41/35/19 54/42/19 53/43/19
f 45/38/20 56/44/20 55/45/20
f 57/46/21 52/41/21 58/47/21
f 59/48/22 54/42/22 60/49/22
f 61/50/23 56/44/23 62/51/23
f 57/46/24 64/52/24 63/53/24
f 66/54/25 60/49/25 65/55/25
f 61/50/26 67/56/26 68/57/26
f 63/53/27 69/58/27 70/59/27
f 14/60/28 28/24/28 11/61/28
f 43/33/29 24/14/29 18/32/29
f 42/62/30 43/33/30 73/63/30
f 42/62/31 23/11/31 44/34/31
f 47/36/32 30/3/32 20/2/32
f 43/33/33 18/32/33 73/63/33
f 46/64/34 29/13/34 48/37/34
f 51/65/35 36/9/35 22/8/35
f 42/62/36 73/63/36 17/5/36
f 50/40/37 35/1/37 52/41/37
f 41/35/38 26/12/38 24/14/38
f 44/34/39 25/66/39 54/42/39
f 45/38/40 32/19/40 30/3/40
f 48/37/41 31/67/41 56/44/41
f 49/39/42 38/22/42 36/9/42
f 52/41/43 37/18/43 58/47/43
f 53/43/44 28/24/44 26/12/44
f 54/42/45 27/15/45 60/49/45
f 55/45/46 34/17/46 32/19/46
f 56/44/47 33/23/47 62/51/47
f 57/46/48 40/20/48 38/22/48
f 58/47/49 39/26/49 64/52/49
f 65/55/50 11/61/50 66/54/50
f 66/54/51 28/24/51 59/48/51
f 65/55/52 27/15/52 12/27/52
f 67/56/53 13/25/53 68/57/53
f 68/57/54 34/17/54 61/50/54
f 67/56/55 33/23/55 14/60/55
f 70/59/56 16/68/56 15/29/56
f 70/59/57 40/20/57 63/53/57
f 69/58/58 39/26/58 16/68/58
f 72/69/59 22/8/59 9/70/59
f 75/71/60 20/2/60 21/72/60
f 19/31/61 73/63/61 18/32/61
f 71/73/59 17/5/59 73/63/59
f 47/36/62 20/2/62 74/74/62
f 46/64/63 74/74/63 19/31/63
f 46/64/64 47/36/64 74/74/64
f 51/65/65 22/8/65 75/71/65
f 50/40/66 75/71/66 21/72/66
f 50/40/67 51/65/67 75/71/67
f 97/75/68 109/76/68 96/77/68
f 77/78/69 92/79/69 93/80/69
f 105/81/70 81/82/70 104/83/70
f 76/84/71 93/80/71 113/85/71
f 112/86/72 101/87/72 117/88/72
f 76/84/73 125/89/73 80/90/73
f 128/91/74 121/92/74 133/93/74
f 132/94/75 78/95/75 79/96/75
f 112/86/76 129/97/76 124/98/76
f 96/77/77 121/92/77 116/99/77
f 104/83/78 78/95/78 120/100/78
f 140/101/79 133/93/79 145/102/79
f 80/90/80 137/103/80 84/104/80
f 144/105/81 79/96/81 85/106/81
f 88/107/82 100/108/82 101/87/82
f 86/109/83 90/110/83 87/111/83
f 94/112/84 98/113/84 95/114/84
f 103/115/85 107/116/85 106/117/85
f 110/118/86 87/111/86 111/119/86
f 114/120/87 95/114/87 115/121/87
f 119/122/88 102/123/88 103/115/88
f 123/124/89 110/118/89 111/119/89
f 126/125/90 115/121/90 127/126/90
f 130/127/91 119/122/91 131/128/91
f 135/129/92 122/130/92 123/124/92
f 138/131/93 127/126/93 139/132/93
f 142/133/94 131/128/94 143/134/94
f 124/98/95 141/135/95 136/136/95
f 90/110/96 88/107/96 87/111/96
f 91/137/97 147/138/97 90/110/97
f 93/80/98 91/137/98 86/109/98
f 98/113/99 96/77/99 95/114/99
f 90/110/100 147/138/100 89/139/100
f 101/87/101 99/140/101 94/112/101
f 106/117/102 104/83/102 103/115/102
f 91/137/103 92/79/103 147/138/103
f 109/76/104 107/116/104 102/123/104
f 87/111/105 112/86/105 111/119/105
f 113/85/106 86/109/106 110/118/106
f 95/114/107 116/99/108 115/121/108
f 117/88/109 94/112/109 114/120/109
f 103/115/110 120/100/110 119/122/110
f 121/92/111 102/123/111 118/141/111
f 111/119/112 124/98/112 123/124/112
f 125/89/113 110/118/113 122/130/113
f 115/121/114 128/91/114 127/126/114
f 129/97/115 114/120/115 126/125/115
f 119/122/116 132/94/116 131/128/116
f 133/93/117 118/141/117 130/127/117
f 136/136/118 134/142/118 135/129/118
f 124/98/119 135/129/119 123/124/119
f 134/142/120 125/89/120 122/130/120
f 139/132/121 141/135/121 138/131/121
f 128/91/122 139/132/122 127/126/122
f 138/131/123 129/97/123 126/125/123
f 143/134/124 145/102/124 142/133/124
f 132/94/125 143/134/125 131/128/125
f 142/133/126 133/93/126 130/127/126
f 149/143/127 105/81/127 148/144/127
f 97/75/128 148/144/128 108/145/128
f 100/108/129 147/138/129 146/146/129
f 150/147/127 92/79/127 83/148/127
f 98/113/130 146/146/130 97/75/130
f 99/140/131 100/108/131 146/146/131
f 99/140/132 146/146/132 98/113/132
f 106/117/133 148/144/133 105/81/133
f 107/116/134 108/145/134 148/144/134
f 107/116/135 148/144/135 106/117/135
f 79/149/136 8/150/136 3/151/136
f 149/152/137 75/153/137 72/154/137
f 144/155/138 5/156/138 15/157/138
f 7/158/139 80/159/139 4/160/139
f 147/161/137 71/162/137 73/163/137
f 141/164/140 13/165/140 14/166/140
f 11/167/141 141/164/141 14/166/141
f 78/168/136 1/169/136 8/150/136
f 146/170/137 73/163/137 74/171/137
f 81/172/136 9/173/136 1/169/136
f 148/174/137 74/171/137 75/153/137
f 6/175/142 137/176/142 12/177/142
f 71/178/143 83/179/143 10/180/143
f 10/180/139 77/181/139 2/182/139
f 82/183/144 72/184/144 9/173/144
f 145/185/145 15/157/145 16/186/145
f 4/160/139 84/187/139 6/188/139
f 140/189/146 16/186/146 13/165/146
f 12/177/147 136/190/147 11/167/147
f 85/191/136 3/151/136 5/192/136
f 2/182/139 76/193/139 7/158/139
f 35/1/148 21/72/148 20/2/148
f 2/4/149 23/11/149 17/5/149
f 1/7/2 9/70/2 22/8/2
f 7/10/150 25/66/150 23/11/150
f 26/12/151 31/67/151 29/13/151
f 27/15/152 25/66/152 7/10/152
f 34/17/153 39/26/153 37/18/153
f 40/20/154 3/30/154 8/21/154
f 33/23/155 31/67/155 26/12/155
f 37/18/156 35/1/156 30/3/156
f 8/21/157 1/7/157 36/9/157
f 13/25/158 16/68/158 39/26/158
f 12/27/159 27/15/159 4/16/159
f 15/29/160 5/194/160 3/30/160
f 24/14/161 29/13/161 19/31/161
f 43/33/162 42/62/162 44/34/162
f 47/36/17 46/64/17 48/37/17
f 49/39/163 51/65/163 50/40/163
f 41/35/164 44/34/164 54/42/164
f 45/38/20 48/37/20 56/44/20
f 57/46/165 49/39/165 52/41/165
f 59/48/166 53/43/166 54/42/166
f 61/50/23 55/45/23 56/44/23
f 57/46/167 58/47/167 64/52/167
f 66/54/168 59/48/168 60/49/168
f 61/50/26 62/51/26 67/56/26
f 63/53/169 64/52/169 69/58/169
f 14/60/170 33/23/170 28/24/170
f 43/33/171 41/35/171 24/14/171
f 42/62/172 17/5/172 23/11/172
f 47/36/173 45/38/173 30/3/173
f 46/64/174 19/31/174 29/13/174
f 51/65/175 49/39/175 36/9/175
f 50/40/176 21/72/176 35/1/176
f 41/35/177 53/43/177 26/12/177
f 44/34/178 23/11/178 25/66/178
f 45/38/179 55/45/179 32/19/179
f 48/37/180 29/13/180 31/67/180
f 49/39/181 57/46/181 38/22/181
f 52/41/182 35/1/182 37/18/182
f 53/43/183 59/48/183 28/24/183
f 54/42/184 25/66/184 27/15/184
f 55/45/185 61/50/185 34/17/185
f 56/44/186 31/67/186 33/23/186
f 57/46/187 63/53/187 40/20/187
f 58/47/188 37/18/188 39/26/188
f 65/55/189 12/27/189 11/61/189
f 66/54/190 11/61/190 28/24/190
f 65/55/191 60/49/191 27/15/191
f 67/56/53 14/60/53 13/25/53
f 68/57/192 13/25/192 34/17/192
f 67/56/193 62/51/193 33/23/193
f 70/59/194 69/58/194 16/68/194
f 70/59/195 15/29/195 40/20/195
f 69/58/196 64/52/196 39/26/196
f 72/69/59 75/71/59 22/8/59
f 75/71/197 74/74/197 20/2/197
f 19/31/197 74/74/197 73/63/197
f 71/73/59 10/6/59 17/5/59
f 97/75/198 108/145/198 109/76/198
f 77/78/199 83/148/199 92/79/199
f 105/81/199 82/195/199 81/82/199
f 76/84/200 77/78/200 93/80/200
f 112/86/201 88/107/201 101/87/201
f 76/84/202 113/85/202 125/89/202
f 128/91/203 116/99/203 121/92/203
f 132/94/204 120/100/204 78/95/204
f 112/86/205 117/88/205 129/97/205
f 96/77/206 109/76/206 121/92/206
f 104/83/207 81/82/207 78/95/207
f 140/101/208 128/91/208 133/93/208
f 80/90/209 125/89/209 137/103/209
f 144/105/210 132/94/210 79/96/210
f 88/107/211 89/139/211 100/108/211
f 86/109/212 91/137/212 90/110/212
f 94/112/84 99/140/84 98/113/84
f 103/115/213 102/123/213 107/116/213
f 110/118/214 86/109/214 87/111/214
f 114/120/87 94/112/87 95/114/87
f 119/122/215 118/141/215 102/123/215
f 123/124/216 122/130/216 110/118/216
f 126/125/90 114/120/90 115/121/90
f 130/127/217 118/141/217 119/122/217
f 135/129/218 134/142/218 122/130/218
f 138/131/93 126/125/93 127/126/93
f 142/133/219 130/127/219 131/128/219
f 124/98/220 129/97/220 141/135/220
f 90/110/221 89/139/221 88/107/221
f 93/80/222 92/79/222 91/137/222
f 98/113/223 97/75/223 96/77/223
f 101/87/224 100/108/224 99/140/224
f 106/117/225 105/81/225 104/83/225
f 109/76/226 108/145/226 107/116/226
f 87/111/227 88/107/227 112/86/227
f 113/85/228 93/80/228 86/109/228
f 95/114/107 96/77/107 116/99/108
f 117/88/229 101/87/229 94/112/229
f 103/115/230 104/83/230 120/100/230
f 121/92/231 109/76/231 102/123/231
f 111/119/232 112/86/232 124/98/232
f 125/89/233 113/85/233 110/118/233
f 115/121/234 116/99/234 128/91/234
f 129/97/235 117/88/235 114/120/235
f 119/122/236 120/100/236 132/94/236
f 133/93/237 121/92/237 118/141/237
f 136/136/238 137/103/238 134/142/238
f 124/98/239 136/136/239 135/129/239
f 134/142/240 137/103/240 125/89/240
f 139/132/121 140/101/121 141/135/121
f 128/91/241 140/101/241 139/132/241
f 138/131/242 141/135/242 129/97/242
f 143/134/243 144/105/243 145/102/243
f 132/94/244 144/105/244 143/134/244
f 142/133/245 145/102/245 133/93/245
f 149/143/127 82/195/127 105/81/127
f 97/75/129 146/146/129 148/144/129
f 100/108/246 89/139/246 147/138/246
f 150/147/127 147/138/127 92/79/127
f 79/149/136 78/168/136 8/150/136
f 149/152/137 148/174/137 75/153/137
f 144/155/138 85/162/138 5/156/138
f 7/158/139 76/193/139 80/159/139
f 147/161/137 150/196/137 71/162/137
f 141/164/140 140/189/140 13/165/140
f 11/167/141 136/190/141 141/164/141
f 78/168/136 81/172/136 1/169/136
f 146/170/137 147/161/137 73/163/137
f 81/172/136 82/183/136 9/173/136
f 148/174/137 146/170/137 74/171/137
f 6/175/142 84/197/142 137/176/142
f 71/178/143 150/198/143 83/179/143
f 10/180/139 83/179/139 77/181/139
f 82/183/144 149/199/144 72/184/144
f 145/185/145 144/155/145 15/157/145
f 4/160/139 80/159/139 84/187/139
f 140/189/146 145/185/146 16/186/146
f 12/177/147 137/176/147 136/190/147
f 85/191/136 79/149/136 3/151/136
f 2/182/139 77/181/139 76/193/139
