# Blender 3.6.23
# www.blender.org
mtllib mesh_transparent.mtl
o glass
v 0.397607 1.200259 0.450007
v -0.000000 1.201394 0.450007
v 0.412194 0.711460 0.884744
v -0.000000 0.715651 0.895991
v -0.412194 0.711460 0.884744
v 0.731161 0.680267 0.854317
v -0.731161 0.680267 0.854317
v -0.761375 1.200259 0.450007
v -0.397607 1.200259 0.450007
v 0.761375 1.200259 0.450007
v 0.412500 0.702417 -0.349368
v 0.412500 1.132156 -0.296685
v -0.000000 0.702417 -0.349368
v -0.000000 1.132156 -0.296685
v -0.412500 0.702417 -0.349368
v -0.412500 1.132156 -0.296685
v 0.757187 1.132156 -0.296685
v 0.757187 0.702417 -0.349368
v -0.757187 1.132156 -0.296685
v -0.757188 0.702417 -0.349368
vn -0.0000 -0.6138 -0.7894
vn 0.0019 -0.6763 -0.7366
vn -0.0271 -0.6648 -0.7465
vn -0.1351 -0.6607 -0.7384
vn -0.0000 -0.1217 0.9926
vn 0.1351 -0.6607 -0.7384
vn 0.0271 -0.6648 -0.7465
vn -0.0019 -0.6763 -0.7366
vt 0.282113 0.690017
vt 0.255458 0.746798
vt 0.253044 0.690017
vt 0.313886 0.746846
vt 0.313886 0.689943
vt 0.345659 0.690017
vt 0.346825 0.746483
vt 0.372314 0.746798
vt 0.346515 0.698143
vt 0.374059 0.735519
vt 0.346515 0.735519
vt 0.313552 0.735519
vt 0.280588 0.735519
vt 0.313552 0.698143
vt 0.280588 0.698143
vt 0.253044 0.735519
vt 0.253044 0.698143
vt 0.280947 0.746483
vt 0.374729 0.690017
vt 0.374059 0.698143
s 0
usemtl Material.002
f 9/1/1 7/2/1 8/3/1
f 4/4/2 9/1/2 2/5/2
f 4/4/3 1/6/3 3/7/3
f 1/6/4 6/8/4 3/7/4
f 11/9/5 17/10/5 12/11/5
f 14/12/5 11/9/5 12/11/5
f 16/13/5 13/14/5 14/12/5
f 15/15/5 19/16/5 20/17/5
f 9/1/6 5/18/6 7/2/6
f 4/4/7 5/18/7 9/1/7
f 4/4/8 2/5/8 1/6/8
f 1/6/1 10/19/1 6/8/1
f 11/9/5 18/20/5 17/10/5
f 14/12/5 13/14/5 11/9/5
f 16/13/5 15/15/5 13/14/5
f 15/15/5 16/13/5 19/16/5
