# Blender 3.6.23
# www.blender.org
mtllib vehicle.mtl
o Plane
v -0.757905 0.285612 0.030356
v 0.757905 0.285612 0.030356
v -0.757905 0.284654 -0.101851
v 0.757905 0.284654 -0.101851
v 0.000000 0.219185 0.070192
v 0.000000 0.215528 -0.139321
v 0.378952 0.253073 0.069600
v -0.378952 0.249416 -0.139912
v -0.378952 0.253073 0.069600
v 0.378952 0.249416 -0.139912
v -0.757905 0.300924 -0.036299
v 0.757905 0.300924 -0.036299
v 0.000000 0.250878 -0.035735
v 0.378952 0.284767 -0.036327
v -0.378952 0.284767 -0.036327
v 0.037490 0.119291 0.294997
v 0.037490 0.070523 0.294997
v -0.037490 0.070523 0.294997
v -0.037490 0.119291 0.294997
v 0.037490 0.144284 0.079198
v 0.037490 0.064427 0.079198
v -0.037490 0.064427 0.079198
v -0.037490 0.144284 0.079198
v 0.037490 0.234200 0.070054
v -0.037490 0.234200 0.070054
v 0.037490 0.234200 -0.135076
v 0.037490 0.064427 -0.135076
v -0.037490 0.064427 -0.135076
v -0.037490 0.234200 -0.135076
v 0.000000 0.094907 -0.634948
v 0.000000 0.064427 -0.634948
v 0.028042 0.172953 -0.301700
v 0.018593 0.126521 -0.468324
v 0.028042 0.064427 -0.301700
v 0.018593 0.064427 -0.468324
v -0.028042 0.064427 -0.301700
v -0.018593 0.064427 -0.468324
v -0.028042 0.172953 -0.301700
v -0.018593 0.126521 -0.468324
v 0.037490 0.131787 0.187098
v 0.037490 0.067475 0.187098
v -0.037490 0.067475 0.187098
v -0.037490 0.131787 0.187098
v 0.248800 0.126521 -0.659245
v -0.248800 0.126521 -0.659245
v 0.000000 0.290699 -0.649058
v -0.149754 -0.089278 0.178556
v -0.167617 -0.019278 0.178556
v -0.167617 -0.138776 0.129059
v -0.167617 -0.039781 0.228054
v -0.167617 -0.138776 0.228054
v -0.167617 -0.116066 0.243228
v -0.167617 -0.153950 0.205344
v -0.167617 -0.089278 0.248556
v -0.167617 -0.159278 0.178556
v -0.167617 -0.062490 0.243228
v -0.167617 -0.153950 0.151769
v -0.167617 -0.024607 0.205344
v -0.167617 -0.116066 0.113885
v -0.167617 -0.089278 0.108556
v -0.167617 -0.024607 0.151769
v -0.185480 -0.089278 0.178556
v -0.167617 -0.062490 0.113885
v -0.167617 -0.039781 0.129059
v -0.152859 -0.089278 0.158556
v -0.152859 -0.089278 0.198556
v -0.152859 -0.059567 0.178556
v 0.149754 -0.089278 0.178556
v 0.167617 -0.019278 0.178556
v 0.167617 -0.138776 0.129059
v 0.167617 -0.039781 0.228054
v 0.167617 -0.138776 0.228054
v 0.167617 -0.116066 0.243228
v 0.167617 -0.153950 0.205344
v 0.167617 -0.089278 0.248556
v 0.167617 -0.159278 0.178556
v 0.167617 -0.062490 0.243228
v 0.167617 -0.153950 0.151769
v 0.167617 -0.024607 0.205344
v 0.167617 -0.116066 0.113885
v 0.167617 -0.089278 0.108556
v 0.167617 -0.024607 0.151769
v 0.185480 -0.089278 0.178556
v 0.167617 -0.062490 0.113885
v 0.167617 -0.039781 0.129059
v 0.152859 -0.089278 0.158556
v 0.152859 -0.089278 0.198556
v 0.152859 -0.059567 0.178556
v 0.007500 -0.000000 -0.635276
v 0.000000 0.035000 -0.635276
v -0.000000 -0.024749 -0.660025
v 0.000000 0.024749 -0.610527
v -0.000000 -0.024749 -0.610527
v -0.000000 -0.013394 -0.602940
v 0.000000 -0.032336 -0.621882
v -0.000000 -0.000000 -0.600276
v 0.000000 -0.035000 -0.635276
v 0.000000 0.013394 -0.602940
v 0.000000 -0.032336 -0.648670
v 0.000000 0.032336 -0.621882
v -0.000000 -0.013394 -0.667612
v -0.000000 -0.000000 -0.670276
v 0.000000 0.032336 -0.648670
v -0.007500 0.000000 -0.635276
v 0.000000 0.013394 -0.667612
v 0.000000 0.024749 -0.660025
l 3 1
l 2 4
l 5 6
l 5 7
l 6 8
l 1 9
l 4 10
l 3 9
l 8 9
l 13 9
l 7 12
l 5 8
l 6 7
l 7 10
l 2 10
l 11 3
l 1 11
l 14 13
l 13 15
l 9 11
l 9 15
l 4 7
l 8 11
l 1 8
l 6 9
l 9 5
l 8 15
l 8 3
l 6 13
l 5 13
l 7 14
l 2 14
l 4 12
l 2 12
l 13 8
l 7 2
l 7 13
l 14 10
l 4 14
l 13 10
l 10 12
l 12 14
l 5 10
l 10 6
l 6 14
l 5 14
l 5 15
l 6 15
l 11 15
l 1 15
l 3 15
l 26 29
l 24 25
l 20 23
l 20 21
l 20 24
l 24 26
l 26 27
l 30 31
l 16 17
l 40 20
l 35 31
l 34 36
l 41 21
l 18 19
l 42 22
l 22 23
l 28 29
l 19 40
l 16 19
l 43 23
l 23 25
l 25 29
l 23 28
l 26 32
l 32 33
l 27 34
l 34 35
l 17 18
l 28 36
l 36 37
l 29 38
l 38 39
l 39 37
l 38 36
l 21 22
l 23 29
l 27 28
l 39 30
l 35 33
l 34 32
l 35 37
l 25 28
l 32 38
l 33 30
l 33 39
l 37 31
l 22 29
l 28 22
l 27 21
l 16 40
l 17 41
l 18 42
l 19 43
l 42 41
l 41 40
l 43 42
l 40 43
l 42 19
l 25 20
l 25 26
l 16 41
l 32 27
l 28 38
l 36 39
l 35 30
l 17 42
l 34 28
l 19 17
l 37 34
l 30 37
l 33 34
l 26 38
l 39 32
l 28 21
l 41 22
l 40 21
l 22 43
l 43 20
l 20 27
l 26 20
l 24 27
l 21 26
l 26 34
l 32 35
l 31 33
l 33 38
l 29 32
l 31 39
l 37 38
l 29 36
l 23 42
l 18 43
l 16 18
l 18 41
l 21 42
l 22 27
l 27 36
l 35 36
l 17 40
l 20 41
l 23 40
l 23 24
l 16 43
l 24 29
l 5 25
l 5 24
l 5 29
l 5 26
l 6 29
l 6 26
l 6 25
l 6 24
l 13 29
l 13 26
l 13 24
l 13 25
l 7 21
l 10 27
l 9 22
l 8 28
l 15 28
l 15 22
l 14 21
l 14 27
l 44 45
l 33 44
l 39 45
l 39 44
l 33 45
l 30 45
l 30 44
l 31 45
l 31 44
l 35 44
l 37 44
l 35 45
l 37 45
l 30 46
l 39 46
l 33 46
l 31 46
l 35 46
l 37 46
l 47 51
l 58 48
l 52 51
l 48 61
l 62 63
l 64 63
l 61 64
l 47 49
l 47 53
l 47 55
l 63 60
l 57 49
l 49 59
l 47 57
l 47 59
l 60 47
l 62 64
l 47 52
l 62 48
l 47 54
l 54 52
l 62 50
l 47 56
l 56 54
l 47 58
l 53 51
l 55 53
l 62 51
l 62 53
l 62 55
l 57 55
l 47 61
l 62 57
l 62 59
l 60 59
l 47 63
l 60 62
l 62 61
l 50 58
l 62 58
l 56 50
l 62 56
l 47 50
l 62 54
l 62 52
l 47 48
l 47 64
l 62 49
l 47 62
l 65 66
l 47 65
l 62 65
l 62 66
l 65 67
l 66 67
l 47 67
l 62 67
l 68 72
l 79 69
l 73 72
l 69 82
l 83 84
l 85 84
l 82 85
l 68 70
l 68 74
l 68 76
l 84 81
l 78 70
l 70 80
l 68 78
l 68 80
l 81 68
l 83 85
l 68 73
l 83 69
l 68 75
l 75 73
l 83 71
l 68 77
l 77 75
l 68 79
l 74 72
l 76 74
l 83 72
l 83 74
l 83 76
l 78 76
l 68 82
l 83 78
l 83 80
l 81 80
l 68 84
l 81 83
l 83 82
l 71 79
l 83 79
l 77 71
l 83 77
l 68 71
l 83 75
l 83 73
l 68 69
l 68 85
l 83 70
l 68 83
l 86 87
l 68 86
l 83 86
l 83 87
l 86 88
l 87 88
l 68 88
l 83 88
l 42 65
l 22 66
l 22 65
l 42 66
l 22 67
l 42 67
l 41 87
l 21 86
l 21 87
l 41 86
l 21 88
l 41 88
l 42 88
l 41 67
l 89 93
l 100 90
l 94 93
l 90 103
l 104 105
l 106 105
l 103 106
l 89 91
l 89 95
l 89 97
l 105 102
l 99 91
l 91 101
l 89 99
l 89 101
l 102 89
l 104 106
l 89 94
l 104 90
l 89 96
l 96 94
l 104 92
l 89 98
l 98 96
l 89 100
l 95 93
l 97 95
l 104 93
l 104 95
l 104 97
l 99 97
l 89 103
l 104 99
l 104 101
l 102 101
l 89 105
l 102 104
l 104 103
l 92 100
l 104 100
l 98 92
l 104 98
l 89 92
l 104 96
l 104 94
l 89 90
l 89 106
l 104 91
l 31 89
l 31 104
l 89 104
l 35 89
l 37 104
l 30 89
l 30 104
l 33 37
l 35 39
l 34 38
l 32 36
l 26 28
l 27 29
l 21 23
l 20 22
l 41 43
l 40 42
