# Blender v3.6.23 OBJ File: 'offroadcar.blend'
# www.blender.org
mtllib mesh_g4.mtl
o Plane.001_Plane.002
v 0.554579 0.744341 -0.789641
v 0.554579 0.771255 -0.763645
v 0.554579 0.744341 -0.582676
v 0.554579 0.771255 -0.608672
v 0.518379 0.734641 -0.789641
v 0.504922 0.757949 -0.763645
v 0.518379 0.734641 -0.582676
v 0.504922 0.757949 -0.608672
v 0.491879 0.708141 -0.789641
v 0.468571 0.721598 -0.763645
v 0.491879 0.708141 -0.582676
v 0.468571 0.721598 -0.608672
v 0.482179 0.671941 -0.789641
v 0.455266 0.671941 -0.763645
v 0.482179 0.671942 -0.582676
v 0.455266 0.671942 -0.608672
v 0.491879 0.635742 -0.789641
v 0.468571 0.622285 -0.763645
v 0.491879 0.635742 -0.582676
v 0.468571 0.622285 -0.608672
v 0.518379 0.609241 -0.789641
v 0.504922 0.585934 -0.763645
v 0.518379 0.609241 -0.582676
v 0.504922 0.585934 -0.608672
v 0.554579 0.599542 -0.789641
v 0.554579 0.572628 -0.763645
v 0.554579 0.599542 -0.582676
v 0.554579 0.572628 -0.608672
v 0.590779 0.609241 -0.789641
v 0.604236 0.585934 -0.763645
v 0.590779 0.609241 -0.582676
v 0.604236 0.585934 -0.608672
v 0.617279 0.635742 -0.789641
v 0.640587 0.622285 -0.763645
v 0.617279 0.635742 -0.582676
v 0.640587 0.622285 -0.608672
v 0.626979 0.671941 -0.789641
v 0.653892 0.671941 -0.763645
v 0.626979 0.671942 -0.582676
v 0.653892 0.671942 -0.608672
v 0.617279 0.708141 -0.789641
v 0.640587 0.721598 -0.763645
v 0.617279 0.708141 -0.582676
v 0.640587 0.721598 -0.608672
v 0.590779 0.734641 -0.789641
v 0.604236 0.757949 -0.763645
v 0.590779 0.734641 -0.582676
v 0.604236 0.757949 -0.608672
v -0.554579 0.744341 -0.789641
v -0.554579 0.771255 -0.763645
v -0.554579 0.744341 -0.582676
v -0.554579 0.771255 -0.608672
v -0.518379 0.734641 -0.789641
v -0.504922 0.757949 -0.763645
v -0.518379 0.734641 -0.582676
v -0.504922 0.757949 -0.608672
v -0.491879 0.708141 -0.789641
v -0.468571 0.721598 -0.763645
v -0.491879 0.708141 -0.582676
v -0.468571 0.721598 -0.608672
v -0.482179 0.671941 -0.789641
v -0.455266 0.671941 -0.763645
v -0.482179 0.671942 -0.582676
v -0.455266 0.671941 -0.608672
v -0.491879 0.635742 -0.789641
v -0.468571 0.622285 -0.763645
v -0.491879 0.635742 -0.582676
v -0.468571 0.622285 -0.608672
v -0.518379 0.609241 -0.789641
v -0.504922 0.585934 -0.763645
v -0.518379 0.609241 -0.582676
v -0.504922 0.585934 -0.608672
v -0.554579 0.599542 -0.789641
v -0.554579 0.572628 -0.763645
v -0.554579 0.599542 -0.582676
v -0.554579 0.572628 -0.608672
v -0.590779 0.609241 -0.789641
v -0.604236 0.585934 -0.763645
v -0.590779 0.609241 -0.582676
v -0.604236 0.585934 -0.608672
v -0.617279 0.635742 -0.789641
v -0.640587 0.622285 -0.763645
v -0.617279 0.635742 -0.582676
v -0.640587 0.622285 -0.608672
v -0.626979 0.671941 -0.789641
v -0.653892 0.671941 -0.763645
v -0.626979 0.671942 -0.582676
v -0.653892 0.671941 -0.608672
v -0.617279 0.708141 -0.789641
v -0.640587 0.721598 -0.763645
v -0.617279 0.708141 -0.582676
v -0.640587 0.721598 -0.608672
v -0.590779 0.734641 -0.789641
v -0.604236 0.757949 -0.763645
v -0.590779 0.734641 -0.582676
v -0.604236 0.757949 -0.608672
vt 0.751714 0.234515
vt 0.751527 0.234515
vt 0.751527 0.234556
vt 0.751714 0.234142
vt 0.751527 0.234142
vt 0.751527 0.234183
vt 0.751527 0.234224
vt 0.751714 0.234224
vt 0.751527 0.234266
vt 0.751527 0.234307
vt 0.751714 0.234307
vt 0.751527 0.234349
vt 0.751714 0.234349
vt 0.751527 0.234390
vt 0.751714 0.234390
vt 0.751527 0.234432
vt 0.751714 0.234432
vt 0.751527 0.234473
vt 0.751527 0.234100
vt 0.749228 0.232641
vt 0.748470 0.233399
vt 0.749505 0.233676
vt 0.751714 0.234059
vt 0.751527 0.234059
vt 0.751527 0.233019
vt 0.751527 0.233458
vt 0.751305 0.233399
vt 0.749887 0.233019
vt 0.749665 0.233078
vt 0.749665 0.233399
vt 0.751308 0.232638
vt 0.751305 0.233078
vt 0.749668 0.232638
vt 0.749505 0.232801
vt 0.750927 0.232419
vt 0.751145 0.232801
vt 0.749287 0.232419
vt 0.750488 0.232419
vt 0.750868 0.232641
vt 0.748848 0.232419
vt 0.748907 0.232641
vt 0.750547 0.232641
vt 0.750270 0.232801
vt 0.748467 0.232638
vt 0.748630 0.232801
vt 0.749887 0.233019
vt 0.750107 0.232638
vt 0.748247 0.233019
vt 0.748470 0.233078
vt 0.749887 0.233458
vt 0.750110 0.233078
vt 0.748247 0.233458
vt 0.750107 0.233839
vt 0.750110 0.233399
vt 0.748467 0.233839
vt 0.748630 0.233676
vt 0.750270 0.233676
vt 0.750547 0.233836
vt 0.748848 0.234059
vt 0.748907 0.233836
vt 0.750927 0.234059
vt 0.750488 0.234059
vt 0.749287 0.234059
vt 0.749228 0.233836
vt 0.750868 0.233836
vt 0.751145 0.233676
vt 0.749668 0.233839
vt 0.751308 0.233839
vt 0.749887 0.233458
vt 0.689727 0.233303
vt 0.688306 0.227998
vt 0.684422 0.231882
vt 0.751714 0.235013
vt 0.751527 0.235054
vt 0.751527 0.235013
vt 0.751527 0.234639
vt 0.751714 0.234681
vt 0.751527 0.234681
vt 0.751527 0.234722
vt 0.751714 0.234722
vt 0.751527 0.234764
vt 0.751714 0.234764
vt 0.751527 0.234805
vt 0.751714 0.234847
vt 0.751527 0.234847
vt 0.751527 0.234888
vt 0.751714 0.234930
vt 0.751527 0.234930
vt 0.751714 0.234971
vt 0.751527 0.234971
vt 0.751527 0.234598
vt 0.751714 0.234639
vt 0.750270 0.234441
vt 0.751305 0.234718
vt 0.750547 0.235476
vt 0.751527 0.234556
vt 0.751714 0.234598
vt 0.749887 0.234659
vt 0.749665 0.235039
vt 0.749887 0.235098
vt 0.751527 0.234659
vt 0.751305 0.235039
vt 0.749668 0.234278
vt 0.749665 0.234718
vt 0.751145 0.234441
vt 0.751308 0.234278
vt 0.749228 0.234281
vt 0.749505 0.234441
vt 0.750868 0.234281
vt 0.750927 0.234059
vt 0.748848 0.234059
vt 0.749287 0.234059
vt 0.750547 0.234281
vt 0.750488 0.234059
vt 0.748630 0.234441
vt 0.748907 0.234281
vt 0.750107 0.234278
vt 0.748467 0.234278
vt 0.748470 0.234718
vt 0.750110 0.234718
vt 0.749887 0.234659
vt 0.748247 0.235098
vt 0.748247 0.234659
vt 0.749887 0.235098
vt 0.750110 0.235039
vt 0.748467 0.235479
vt 0.748470 0.235039
vt 0.750107 0.235479
vt 0.750270 0.235316
vt 0.748907 0.235476
vt 0.748630 0.235316
vt 0.750488 0.235699
vt 0.749287 0.235699
vt 0.748848 0.235699
vt 0.750927 0.235699
vt 0.750868 0.235476
vt 0.749668 0.235479
vt 0.749228 0.235476
vt 0.751308 0.235479
vt 0.751145 0.235316
vt 0.749505 0.235316
vt 0.751527 0.235098
vt 0.684422 0.230240
vt 0.680538 0.234124
vt 0.679116 0.228819
vt 0.751714 0.234556
vt 0.751714 0.234183
vt 0.751714 0.234266
vt 0.751714 0.234473
vt 0.751714 0.234100
vt 0.690548 0.230240
vt 0.689727 0.228819
vt 0.690548 0.231882
vt 0.686664 0.234124
vt 0.688306 0.234124
vt 0.685243 0.233303
vt 0.685243 0.228819
vt 0.684422 0.230240
vt 0.686664 0.227998
vt 0.751714 0.235054
vt 0.751714 0.234805
vt 0.751714 0.234888
vt 0.751714 0.234556
vt 0.680538 0.227998
vt 0.682179 0.227998
vt 0.683601 0.228819
vt 0.684422 0.231882
vt 0.683601 0.233303
vt 0.682179 0.234124
vt 0.679116 0.233303
vt 0.678295 0.231882
vt 0.678295 0.230240
vn 0.2588 0.9659 0.0000
vn -0.9659 0.2588 0.0000
vn -0.9659 -0.2588 0.0000
vn -0.7071 -0.7071 0.0000
vn -0.2588 -0.9659 0.0000
vn 0.2588 -0.9659 0.0000
vn 0.7071 -0.7071 0.0000
vn 0.9659 -0.2588 0.0000
vn 0.9659 0.2588 -0.0000
vn 0.7071 0.7071 0.0000
vn -0.7071 0.7071 0.0000
vn 0.0000 0.0000 1.0000
vn -0.2588 0.9659 0.0000
vn -0.1830 0.6830 -0.7071
vn -0.1830 0.6830 0.7071
vn -0.5000 0.5000 -0.7071
vn -0.5000 0.5000 0.7071
vn -0.6830 0.1830 -0.7071
vn -0.6830 0.1830 0.7071
vn -0.6830 -0.1830 -0.7071
vn -0.6830 -0.1830 0.7071
vn -0.5000 -0.5000 -0.7071
vn -0.5000 -0.5000 0.7071
vn -0.1830 -0.6830 -0.7071
vn -0.1830 -0.6830 0.7071
vn 0.1830 -0.6830 -0.7071
vn 0.1830 -0.6830 0.7071
vn 0.5000 -0.5000 -0.7071
vn 0.5000 -0.5000 0.7071
vn 0.6830 -0.1830 -0.7071
vn 0.6830 -0.1830 0.7071
vn 0.6830 0.1830 -0.7071
vn 0.6830 0.1830 0.7071
vn 0.5000 0.5000 -0.7071
vn 0.5000 0.5000 0.7071
vn 0.1830 0.6830 -0.7071
vn 0.1830 0.6830 0.7071
vn 0.0000 0.0000 -1.0000
usemtl Material.010
s off
f 48/1/1 46/2/1 2/3/1
f 12/4/2 10/5/2 14/6/2
f 14/6/3 18/7/3 20/8/3
f 20/8/4 18/7/4 22/9/4
f 22/9/5 26/10/5 28/11/5
f 26/10/6 30/12/6 32/13/6
f 32/13/7 30/12/7 34/14/7
f 36/15/8 34/14/8 38/16/8
f 40/17/9 38/16/9 42/18/9
f 42/18/10 46/2/10 48/1/10
f 6/19/11 10/5/11 12/4/11
f 15/20/12 31/21/12 47/22/12
f 4/23/13 2/24/13 6/19/13
f 6/25/14 2/26/14 1/27/14
f 8/28/15 7/29/15 3/30/15
f 10/31/16 6/25/16 5/32/16
f 8/28/17 12/33/17 11/34/17
f 14/35/18 10/31/18 9/36/18
f 12/33/19 16/37/19 15/20/19
f 18/38/20 14/35/20 13/39/20
f 16/37/21 20/40/21 19/41/21
f 18/38/22 17/42/22 21/43/22
f 20/40/23 24/44/23 23/45/23
f 26/46/24 22/47/24 21/43/24
f 24/44/25 28/48/25 27/49/25
f 30/50/26 26/46/26 25/51/26
f 28/48/27 32/52/27 31/21/27
f 34/53/28 30/50/28 29/54/28
f 36/55/29 35/56/29 31/21/29
f 34/53/30 33/57/30 37/58/30
f 40/59/31 39/60/31 35/56/31
f 42/61/32 38/62/32 37/58/32
f 44/63/33 43/64/33 39/60/33
f 42/61/34 41/65/34 45/66/34
f 44/63/35 48/67/35 47/22/35
f 46/68/36 45/66/36 1/27/36
f 48/67/37 4/69/37 3/30/37
f 9/70/38 41/71/38 25/72/38
f 96/73/13 50/74/13 94/75/13
f 58/76/9 64/77/9 62/78/9
f 64/77/8 66/79/8 62/78/8
f 68/80/7 70/81/7 66/79/7
f 72/82/6 74/83/6 70/81/6
f 74/83/5 80/84/5 78/85/5
f 80/84/4 82/86/4 78/85/4
f 82/86/3 88/87/3 86/88/3
f 86/88/2 92/89/2 90/90/2
f 90/90/11 96/73/11 94/75/11
f 54/91/10 60/92/10 58/76/10
f 71/93/12 55/94/12 87/95/12
f 50/96/1 56/97/1 54/91/1
f 54/98/36 49/99/36 50/100/36
f 56/101/37 51/102/37 55/94/37
f 58/103/34 53/104/34 54/98/34
f 56/101/35 59/105/35 60/106/35
f 58/103/32 61/107/32 57/108/32
f 60/106/33 63/109/33 64/110/33
f 66/111/30 61/107/30 62/112/30
f 64/110/31 67/113/31 68/114/31
f 66/111/28 69/115/28 65/116/28
f 68/114/29 71/93/29 72/117/29
f 70/118/26 73/119/26 69/115/26
f 72/117/27 75/120/27 76/121/27
f 78/122/24 73/119/24 74/123/24
f 80/124/25 75/120/25 79/125/25
f 82/126/22 77/127/22 78/122/22
f 84/128/23 79/125/23 83/129/23
f 82/126/20 85/130/20 81/131/20
f 88/132/21 83/129/21 87/95/21
f 90/133/18 85/130/18 86/134/18
f 92/135/19 87/95/19 91/136/19
f 94/137/16 89/138/16 90/133/16
f 96/139/17 91/136/17 95/140/17
f 94/137/14 49/99/14 93/141/14
f 96/139/15 51/102/15 52/142/15
f 57/143/38 73/144/38 89/145/38
f 48/1/1 2/3/1 4/146/1
f 12/4/2 14/6/2 16/147/2
f 14/6/3 20/8/3 16/147/3
f 20/8/4 22/9/4 24/148/4
f 22/9/5 28/11/5 24/148/5
f 26/10/6 32/13/6 28/11/6
f 32/13/7 34/14/7 36/15/7
f 36/15/8 38/16/8 40/17/8
f 40/17/9 42/18/9 44/149/9
f 42/18/10 48/1/10 44/149/10
f 6/19/11 12/4/11 8/150/11
f 31/21/12 23/45/12 27/49/12
f 23/45/12 15/20/12 19/41/12
f 15/20/12 7/29/12 11/34/12
f 7/29/12 47/22/12 3/30/12
f 47/22/12 39/60/12 43/64/12
f 39/60/12 31/21/12 35/56/12
f 31/21/12 15/20/12 23/45/12
f 15/20/12 47/22/12 7/29/12
f 47/22/12 31/21/12 39/60/12
f 4/23/13 6/19/13 8/150/13
f 6/25/14 1/27/14 5/32/14
f 8/28/15 3/30/15 4/69/15
f 10/31/16 5/32/16 9/36/16
f 8/28/17 11/34/17 7/29/17
f 14/35/18 9/36/18 13/39/18
f 12/33/19 15/20/19 11/34/19
f 18/38/20 13/39/20 17/42/20
f 16/37/21 19/41/21 15/20/21
f 18/38/22 21/43/22 22/47/22
f 20/40/23 23/45/23 19/41/23
f 26/46/24 21/43/24 25/51/24
f 24/44/25 27/49/25 23/45/25
f 30/50/26 25/51/26 29/54/26
f 28/48/27 31/21/27 27/49/27
f 34/53/28 29/54/28 33/57/28
f 36/55/29 31/21/29 32/52/29
f 34/53/30 37/58/30 38/62/30
f 40/59/31 35/56/31 36/55/31
f 42/61/32 37/58/32 41/65/32
f 44/63/33 39/60/33 40/59/33
f 42/61/34 45/66/34 46/68/34
f 44/63/35 47/22/35 43/64/35
f 46/68/36 1/27/36 2/26/36
f 48/67/37 3/30/37 47/22/37
f 41/71/38 1/151/38 45/152/38
f 1/151/38 9/70/38 5/153/38
f 9/70/38 17/154/38 13/155/38
f 17/154/38 25/72/38 21/156/38
f 25/72/38 33/157/38 29/158/38
f 33/157/38 41/71/38 37/159/38
f 41/71/38 9/70/38 1/151/38
f 9/70/38 25/72/38 17/154/38
f 25/72/38 41/71/38 33/157/38
f 96/73/13 52/160/13 50/74/13
f 58/76/9 60/92/9 64/77/9
f 64/77/8 68/80/8 66/79/8
f 68/80/7 72/82/7 70/81/7
f 72/82/6 76/161/6 74/83/6
f 74/83/5 76/161/5 80/84/5
f 80/84/4 84/162/4 82/86/4
f 82/86/3 84/162/3 88/87/3
f 86/88/2 88/87/2 92/89/2
f 90/90/11 92/89/11 96/73/11
f 54/91/10 56/97/10 60/92/10
f 87/95/12 83/129/12 79/125/12
f 79/125/12 75/120/12 71/93/12
f 71/93/12 67/113/12 63/109/12
f 63/109/12 59/105/12 55/94/12
f 55/94/12 51/102/12 95/140/12
f 95/140/12 91/136/12 87/95/12
f 87/95/12 79/125/12 71/93/12
f 71/93/12 63/109/12 55/94/12
f 55/94/12 95/140/12 87/95/12
f 50/96/1 52/163/1 56/97/1
f 54/98/36 53/104/36 49/99/36
f 56/101/37 52/142/37 51/102/37
f 58/103/34 57/108/34 53/104/34
f 56/101/35 55/94/35 59/105/35
f 58/103/32 62/112/32 61/107/32
f 60/106/33 59/105/33 63/109/33
f 66/111/30 65/116/30 61/107/30
f 64/110/31 63/109/31 67/113/31
f 66/111/28 70/118/28 69/115/28
f 68/114/29 67/113/29 71/93/29
f 70/118/26 74/123/26 73/119/26
f 72/117/27 71/93/27 75/120/27
f 78/122/24 77/127/24 73/119/24
f 80/124/25 76/121/25 75/120/25
f 82/126/22 81/131/22 77/127/22
f 84/128/23 80/124/23 79/125/23
f 82/126/20 86/134/20 85/130/20
f 88/132/21 84/128/21 83/129/21
f 90/133/18 89/138/18 85/130/18
f 92/135/19 88/132/19 87/95/19
f 94/137/16 93/141/16 89/138/16
f 96/139/17 92/135/17 91/136/17
f 94/137/14 50/100/14 49/99/14
f 96/139/15 95/140/15 51/102/15
f 89/145/38 93/164/38 49/165/38
f 49/165/38 53/166/38 57/143/38
f 57/143/38 61/167/38 65/168/38
f 65/168/38 69/169/38 73/144/38
f 73/144/38 77/170/38 81/171/38
f 81/171/38 85/172/38 89/145/38
f 89/145/38 49/165/38 57/143/38
f 57/143/38 65/168/38 73/144/38
f 73/144/38 81/171/38 89/145/38
