# Blender 3.6.23
# www.blender.org
mtllib mesh_g1.mtl
o body
v 0.307595 0.371425 -0.814140
v 0.307595 0.001573 -0.814140
v 0.307595 0.001573 0.814140
v -0.307595 0.371425 -0.814140
v -0.307595 0.001573 -0.814140
v -0.307595 0.001573 0.814140
v 0.307595 0.248141 -0.271380
v 0.307595 0.124857 0.271380
v -0.307595 0.124857 0.271380
v -0.307595 0.248141 -0.271380
v -0.307595 0.001573 -0.271380
v -0.307595 0.001573 0.271380
v 0.307595 0.001573 0.271380
v 0.307595 0.001573 -0.271380
vn -0.0000 0.9752 0.2215
vn -1.0000 -0.0000 -0.0000
vn -0.0000 -1.0000 -0.0000
vn 1.0000 -0.0000 -0.0000
vn -0.0000 -0.0000 -1.0000
vt 0.904660 0.999905
vt 0.000095 0.000095
vt 0.904660 0.000095
vt 0.454293 0.000083
vt 0.000083 0.999917
vt 0.000083 0.000082
vt 0.000094 0.000094
vt 0.882191 0.999906
vt 0.000094 0.999906
vt 0.000048 0.000048
vt 0.227169 0.000048
vt 0.000048 0.999952
vt 0.000078 0.999923
vt 0.601183 0.000078
vt 0.601183 0.999923
vt 0.000083 0.000083
vt 0.454293 0.999918
vt 0.000083 0.999917
vt 0.000067 0.000067
vt 0.227180 0.999933
vt 0.000068 0.999932
vt 0.000094 0.000094
vt 0.882191 0.999906
vt 0.000094 0.999906
vt 0.000094 0.000094
vt 0.882191 0.999906
vt 0.000094 0.999906
vt 0.000047 0.999953
vt 0.000046 0.000046
vt 0.216025 0.049104
vt 0.227179 0.000067
vt 0.000068 0.999933
vt 0.000067 0.000067
vt 0.904660 0.999905
vt 0.000095 0.000095
vt 0.904660 0.000095
vt 0.000095 0.999905
vt 0.904659 0.000095
vt 0.904659 0.999905
vt 0.000095 0.999905
vt 0.681398 0.999917
vt 0.882191 0.000094
vt 0.000077 0.000078
vt 0.681398 0.000083
vt 0.454291 0.000067
vt 0.882191 0.000094
vt 0.454292 0.999933
vt 0.000095 0.999905
vt 0.000095 0.000095
s 0
usemtl Material
f 9/1/1 3/2/1 8/3/1
f 10/4/2 5/5/2 11/6/2
f 13/7/3 6/8/3 12/9/3
f 13/10/4 8/11/4 3/12/4
f 4/13/5 2/14/5 5/15/5
f 2/16/4 7/17/4 14/18/4
f 14/19/4 8/20/4 13/21/4
f 2/22/3 11/23/3 5/24/3
f 14/25/3 12/26/3 11/27/3
f 6/28/2 9/29/2 12/30/2
f 9/31/2 11/32/2 12/33/2
f 4/34/1 7/35/1 1/36/1
f 7/37/1 9/38/1 8/39/1
f 9/1/1 6/40/1 3/2/1
f 10/4/2 4/41/2 5/5/2
f 13/7/3 3/42/3 6/8/3
f 4/13/5 1/43/5 2/14/5
f 2/16/4 1/44/4 7/17/4
f 14/19/4 7/45/4 8/20/4
f 2/22/3 14/46/3 11/23/3
f 14/25/3 13/42/3 12/26/3
f 9/31/2 10/47/2 11/32/2
f 4/34/1 10/48/1 7/35/1
f 7/37/1 10/49/1 9/38/1
