# Blender v3.6.23 OBJ File: 'untitled.blend'
# www.blender.org
mtllib mesh_g6.mtl
o dvere_auto.003
v -0.195254 1.005684 -0.509629
v 0.197698 1.005684 -0.509629
v 0.435759 0.609483 -0.601827
v 0.243656 0.081683 -0.550480
v -0.518665 0.081683 -0.550480
v -0.518665 0.530530 -0.613561
v 0.413909 0.547322 -0.617238
v -0.195254 1.005684 -0.474613
v 0.197698 1.005684 -0.474613
v 0.435759 0.609483 -0.566812
v 0.243656 0.081683 -0.515464
v -0.518665 0.081683 -0.515465
v -0.518665 0.530530 -0.578546
v 0.413909 0.547322 -0.582222
v -0.107112 0.950341 -0.522507
v 0.273418 0.711414 -0.578107
v 0.142362 0.950341 -0.522507
v -0.392007 0.595901 -0.599767
v 0.331976 0.604657 -0.602265
v -0.150760 0.950341 -0.522239
v -0.107112 0.950341 -0.487492
v 0.142362 0.950341 -0.487492
v -0.392007 0.595901 -0.564752
v 0.331976 0.604657 -0.567250
v -0.150760 0.950341 -0.487224
v 0.273418 0.711414 -0.578107
v 0.025237 0.950341 -0.522507
v -0.392007 0.595901 -0.599767
v 0.273418 0.711414 -0.543092
v -0.009376 0.950341 -0.487492
v -0.392007 0.595901 -0.564752
v -0.195254 1.005684 0.509628
v 0.197698 1.005684 0.509628
v 0.435759 0.609484 0.601827
v 0.243656 0.081683 0.550480
v -0.518665 0.081684 0.550480
v -0.518665 0.530530 0.613561
v 0.413909 0.547322 0.617237
v -0.195254 1.005684 0.474613
v 0.197698 1.005684 0.474613
v 0.435759 0.609484 0.566812
v 0.243656 0.081683 0.515464
v -0.518665 0.081684 0.515465
v -0.518665 0.530530 0.578546
v 0.413909 0.547322 0.582222
v -0.107112 0.950341 0.522507
v 0.273418 0.711414 0.578107
v 0.142362 0.950341 0.522507
v -0.392007 0.595902 0.599767
v 0.331976 0.604657 0.602265
v -0.150760 0.950341 0.522239
v -0.107112 0.950341 0.487492
v 0.142362 0.950341 0.487492
v -0.392007 0.595902 0.564752
v 0.331976 0.604657 0.567250
v -0.150760 0.950341 0.487224
v 0.273418 0.711414 0.578107
v 0.025237 0.950341 0.522507
v -0.392007 0.595902 0.599767
v 0.273418 0.711414 0.543092
v -0.009376 0.950341 0.487492
v -0.392007 0.595902 0.564752
vt 0.216163 0.434199
vt 0.180245 -0.000000
vt 0.208524 0.009941
vt -0.000000 0.108302
vt 0.025177 0.133476
vt 0.025177 0.186760
vt 0.133873 0.073854
vt 0.133873 0.073854
vt 0.420358 0.087394
vt 0.182440 0.047214
vt -0.000000 0.287069
vt 0.025177 0.266827
vt 0.186423 0.376578
vt 0.420358 0.434199
vt 0.624553 0.434199
vt 0.632193 0.009941
vt 0.660472 -0.000000
vt 0.840717 0.108302
vt 0.815539 0.202507
vt 0.815539 0.133476
vt 0.420358 0.087394
vt 0.658276 0.047214
vt 0.706844 0.073854
vt 0.654293 0.376578
vt 0.840717 0.287069
vt 0.654293 0.376578
vt 0.815539 0.266827
vt 0.420358 0.434199
vt 0.900483 0.575416
vt 0.910843 0.604900
vt 0.894932 0.605672
vt 0.952105 0.445184
vt 0.968035 0.791988
vt 0.952105 0.791988
vt 0.968035 0.970755
vt 0.952105 0.791988
vt 0.968035 0.791988
vt 0.936194 0.829401
vt 0.952105 0.828629
vt 0.918334 0.000123
vt 0.948509 0.153104
vt 0.902405 0.000000
vt 0.934263 0.344861
vt 0.964438 0.153227
vt 0.936194 0.445956
vt 0.916394 0.574644
vt 0.895054 0.849258
vt 0.910984 0.849258
vt 0.895054 0.893721
vt 0.910984 0.909468
vt 0.895054 0.962752
vt 0.968035 0.777516
vt 0.983698 0.968215
vt 0.968035 0.971117
vt 1.000000 0.902868
vt 0.984382 0.955577
vt 0.984382 0.899733
vt 0.968035 0.445239
vt 0.983965 0.774559
vt 0.968035 0.774614
vt 0.216163 0.868399
vt 0.180245 0.434199
vt 0.208524 0.444140
vt 0.000000 0.542501
vt 0.025177 0.567675
vt 0.025177 0.620960
vt 0.133873 0.508054
vt 0.133873 0.508054
vt 0.420358 0.521594
vt 0.182440 0.481414
vt 0.000000 0.721268
vt 0.025177 0.701026
vt 0.186423 0.810778
vt 0.420358 0.868399
vt 0.624553 0.868398
vt 0.632193 0.444140
vt 0.660472 0.434199
vt 0.840717 0.542501
vt 0.815539 0.636706
vt 0.815539 0.567675
vt 0.420358 0.521594
vt 0.658276 0.481414
vt 0.706844 0.508054
vt 0.654293 0.810778
vt 0.840717 0.721268
vt 0.654293 0.810778
vt 0.815539 0.701026
vt 0.420358 0.868398
vt 0.888999 0.639592
vt 0.879019 0.616860
vt 0.894932 0.616125
vt 0.980368 0.346804
vt 0.964438 -0.000000
vt 0.980368 -0.000000
vt 0.983965 0.445184
vt 0.999894 0.623951
vt 0.983965 0.623951
vt 0.856629 0.445184
vt 0.840717 0.445919
vt 0.886475 0.445089
vt 0.856646 0.189712
vt 0.902405 0.445184
vt 0.870546 -0.000000
vt 0.840717 0.189617
vt 0.856629 0.847736
vt 0.873086 0.640328
vt 0.926913 0.942895
vt 0.910984 0.942895
vt 0.926913 0.898432
vt 0.910984 0.882685
vt 0.926913 0.829401
vt 0.855934 0.967745
vt 0.840716 0.853182
vt 0.855934 0.848471
vt 0.927035 0.866386
vt 0.942245 0.834135
vt 0.942245 0.871119
vt 0.996297 0.329375
vt 0.980368 0.000055
vt 0.996297 0.000000
vt 0.025177 0.246970
vt 0.186423 0.376578
vt 0.815539 0.246970
vt 0.968035 0.445184
vt 0.952105 0.970755
vt 0.918334 0.344738
vt 0.952105 0.445184
vt 0.894932 0.829401
vt 0.910862 0.829401
vt 0.910984 0.962752
vt 0.983698 0.774614
vt 0.983698 0.774614
vt 0.999316 0.777749
vt 1.000000 0.958712
vt 0.983965 0.445184
vt 0.025177 0.681170
vt 0.186423 0.810778
vt 0.815539 0.681169
vt 0.964438 0.346804
vt 0.999894 0.445184
vt 0.886475 0.000095
vt 0.840717 0.848471
vt 0.927035 0.962752
vt 0.911106 0.962752
vt 0.910984 0.829401
vt 0.840716 0.972455
vt 0.942911 0.954099
vt 0.927701 0.949365
vt 0.927035 0.829401
vt 0.980368 0.329430
vn -0.0082 0.2433 -0.9699
vn 0.0000 0.2267 -0.9740
vn 0.0000 0.0000 1.0000
vn -0.0014 -0.1414 -0.9899
vn -0.0060 0.2176 -0.9760
vn 0.0000 -0.1392 -0.9903
vn 0.0082 -0.2433 0.9699
vn 0.0000 -0.2267 0.9740
vn 0.0014 0.1414 0.9899
vn 0.0060 -0.2176 0.9760
vn -0.0000 0.1392 0.9903
vn 0.9434 -0.3316 0.0000
vn -0.0000 -1.0000 0.0000
vn 0.0000 1.0000 0.0000
vn 0.9392 -0.3434 0.0000
vn -0.8267 0.5627 0.0000
vn -1.0000 -0.0000 0.0000
vn 0.8572 0.5150 0.0000
vn 0.8267 -0.5627 0.0000
vn -0.8768 -0.4809 0.0000
vn -0.0121 0.9999 0.0000
vn 0.0082 -0.2433 -0.9699
vn 0.0000 -0.2267 -0.9740
vn 0.0014 0.1414 -0.9899
vn 0.0060 -0.2176 -0.9760
vn 0.0000 0.1392 -0.9903
vn -0.0082 0.2433 0.9699
vn 0.0000 0.2267 0.9740
vn -0.0014 -0.1414 0.9899
vn -0.0060 0.2176 0.9760
vn 0.0000 -0.1392 0.9903
vn -0.9434 0.3316 0.0000
vn -0.9392 0.3434 0.0000
vn 1.0000 0.0000 0.0000
vn -0.8572 -0.5150 0.0000
vn 0.8768 0.4809 0.0000
vn 0.0121 -0.9999 0.0000
vn 0.0000 -0.2266 0.9740
usemtl None
s off
f 6/1/1 3/2/1 7/3/1
f 2/4/2 17/5/2 27/6/2
f 16/7/3 17/5/3 26/8/3
f 6/1/4 7/3/4 4/9/4
f 19/10/5 26/8/5 3/2/5
f 26/8/3 19/10/3 16/7/3
f 1/11/5 20/12/5 18/13/5
f 19/10/5 6/1/5 18/13/5
f 6/1/6 4/9/6 5/14/6
f 13/15/7 14/16/7 10/17/7
f 9/18/8 30/19/8 22/20/8
f 13/15/9 11/21/9 14/16/9
f 24/22/10 10/17/10 29/23/10
f 13/15/10 24/22/10 31/24/10
f 8/25/10 23/26/10 25/27/10
f 13/15/11 12/28/11 11/21/11
f 3/29/12 14/30/12 7/31/12
f 4/32/13 12/33/13 5/34/13
f 1/35/14 9/36/14 2/37/14
f 4/38/15 14/30/15 11/39/15
f 1/40/16 13/41/16 8/42/16
f 5/43/17 13/41/17 6/44/17
f 2/45/18 10/46/18 3/29/18
f 21/47/13 15/48/13 30/49/13
f 27/50/13 22/51/13 30/49/13
f 20/52/19 31/53/19 28/54/19
f 26/55/20 24/56/20 29/57/20
f 28/58/21 24/59/21 19/60/21
f 37/61/22 34/62/22 38/63/22
f 33/64/23 48/65/23 58/66/23
f 47/67/3 48/65/3 57/68/3
f 37/61/24 38/63/24 35/69/24
f 50/70/25 57/68/25 34/62/25
f 57/68/3 50/70/3 47/67/3
f 32/71/25 51/72/25 49/73/25
f 50/70/25 37/61/25 49/73/25
f 37/61/26 35/69/26 36/74/26
f 44/75/27 45/76/27 41/77/27
f 40/78/28 61/79/28 53/80/28
f 44/75/29 42/81/29 45/76/29
f 55/82/30 41/77/30 60/83/30
f 44/75/30 55/82/30 62/84/30
f 39/85/30 54/86/30 56/87/30
f 44/75/31 43/88/31 42/81/31
f 34/89/32 45/90/32 38/91/32
f 35/92/14 43/93/14 36/94/14
f 32/95/13 40/96/13 33/97/13
f 35/98/33 45/90/33 42/99/33
f 32/100/19 44/101/19 39/102/19
f 36/103/34 44/101/34 37/104/34
f 33/105/35 41/106/35 34/89/35
f 52/107/14 46/108/14 61/109/14
f 58/110/14 53/111/14 61/109/14
f 51/112/16 62/113/16 59/114/16
f 57/115/36 55/116/36 60/117/36
f 59/118/37 55/119/37 50/120/37
f 15/121/2 1/11/2 27/6/2
f 1/11/2 2/4/2 27/6/2
f 2/4/2 3/2/2 26/8/2
f 2/4/2 26/8/2 17/5/2
f 18/13/5 6/1/5 1/11/5
f 1/11/5 15/121/5 20/12/5
f 19/10/5 3/2/5 6/1/5
f 18/13/3 20/12/3 28/122/3
f 18/13/3 28/122/3 19/10/3
f 22/20/8 29/23/8 9/18/8
f 29/23/8 10/17/8 9/18/8
f 9/18/38 8/25/38 30/19/38
f 8/25/8 21/123/8 30/19/8
f 13/15/10 10/17/10 24/22/10
f 31/24/3 25/27/3 23/26/3
f 31/24/3 23/26/3 13/15/3
f 8/25/10 13/15/10 23/26/10
f 25/27/10 21/123/10 8/25/10
f 3/29/12 10/46/12 14/30/12
f 4/32/13 11/124/13 12/33/13
f 1/35/14 8/125/14 9/36/14
f 4/38/15 7/31/15 14/30/15
f 1/40/16 6/44/16 13/41/16
f 5/43/17 12/126/17 13/41/17
f 2/45/18 9/127/18 10/46/18
f 21/47/13 25/128/13 20/129/13
f 20/129/13 15/48/13 21/47/13
f 15/48/13 27/50/13 30/49/13
f 27/50/13 17/130/13 22/51/13
f 20/52/19 25/131/19 31/53/19
f 22/132/20 17/133/20 29/57/20
f 17/133/20 26/55/20 29/57/20
f 26/55/20 19/134/20 24/56/20
f 28/58/21 31/135/21 24/59/21
f 46/136/23 32/71/23 58/66/23
f 32/71/23 33/64/23 58/66/23
f 33/64/23 34/62/23 57/68/23
f 33/64/23 57/68/23 48/65/23
f 49/73/25 37/61/25 32/71/25
f 32/71/25 46/136/25 51/72/25
f 50/70/25 34/62/25 37/61/25
f 49/73/3 51/72/3 59/137/3
f 49/73/3 59/137/3 50/70/3
f 53/80/28 60/83/28 40/78/28
f 60/83/28 41/77/28 40/78/28
f 40/78/28 39/85/28 61/79/28
f 39/85/28 52/138/28 61/79/28
f 44/75/30 41/77/30 55/82/30
f 62/84/3 56/87/3 54/86/3
f 62/84/3 54/86/3 44/75/3
f 39/85/30 44/75/30 54/86/30
f 56/87/30 52/138/30 39/85/30
f 34/89/32 41/106/32 45/90/32
f 35/92/14 42/139/14 43/93/14
f 32/95/13 39/140/13 40/96/13
f 35/98/33 38/91/33 45/90/33
f 32/100/19 37/104/19 44/101/19
f 36/103/34 43/141/34 44/101/34
f 33/105/35 40/142/35 41/106/35
f 52/107/14 56/143/14 51/144/14
f 51/144/14 46/108/14 52/107/14
f 46/108/14 58/110/14 61/109/14
f 58/110/14 48/145/14 53/111/14
f 51/112/16 56/146/16 62/113/16
f 53/147/36 48/148/36 60/117/36
f 48/148/36 57/115/36 60/117/36
f 57/115/36 50/149/36 55/116/36
f 59/118/37 62/150/37 55/119/37
