# Blender v3.6.23 OBJ File: 'untitled.blend'
# www.blender.org
mtllib mesh_g5.mtl
o auto.002
v 1.097559 0.518497 0.537815
v 0.927281 0.050664 0.472065
v 0.927281 0.050664 -0.472065
v 1.103885 0.535879 0.533770
v 1.097559 0.518497 -0.537815
v 0.900478 1.040658 0.431661
v 1.084822 0.733860 0.503056
v 1.106197 0.687227 0.510290
v 1.116753 0.637026 0.518078
v 1.115969 0.585734 0.526035
v 0.900478 1.040658 -0.431661
v 1.084822 0.733859 -0.503055
v 1.103885 0.535879 -0.533770
v 1.115969 0.585733 -0.526035
v 1.116753 0.637026 -0.518078
v 1.106197 0.687226 -0.510290
v 1.115969 0.585734 0.000000
v 1.103885 0.535879 0.000000
v 1.116753 0.637026 0.000000
v 0.900478 1.040658 -0.000000
v 0.927281 0.050664 0.000000
v 1.097559 0.518497 0.000000
v 0.907158 0.050664 -0.472065
v 1.077435 0.518497 -0.537815
v 1.096629 0.637026 0.518078
v 1.095846 0.585734 0.526035
v 1.083762 0.535879 0.000000
v 1.083762 0.535879 -0.533770
v 1.077435 0.518497 0.537815
v 0.907158 0.050664 0.472065
v 1.083762 0.535879 0.533770
v 1.095846 0.585734 0.000000
v 1.095846 0.585733 -0.526035
v 1.096629 0.637026 0.000000
v 0.880355 1.040658 -0.431661
v 1.064699 0.733859 -0.503055
v 1.086073 0.687226 -0.510290
v 0.880355 1.040658 -0.000000
v 0.880355 1.040658 0.431661
v 1.064699 0.733860 0.503056
v 1.096629 0.637026 -0.518078
v 1.086073 0.687227 0.510290
v 0.907158 0.050664 0.000000
v 1.077435 0.518497 0.000000
v 1.106197 0.687227 0.352856
v 1.084822 0.733859 0.352856
v 0.954389 0.950936 0.352856
v 0.954389 0.950936 -0.000000
v 1.116254 0.639398 0.000000
v 1.106197 0.687226 -0.352856
v 1.116254 0.639398 -0.352856
v 1.116254 0.639398 0.352856
v 1.084822 0.733859 -0.352856
v 0.954389 0.950936 -0.352856
v 1.064699 0.733859 0.352856
v 1.086073 0.687227 0.352856
v 0.934266 0.950936 -0.000000
v 0.934266 0.950936 0.352856
v 1.096131 0.639398 -0.352856
v 1.096131 0.639398 0.000000
v 1.086073 0.687226 -0.352856
v 1.096131 0.639398 0.352856
v 0.934266 0.950936 -0.352856
v 1.064699 0.733859 -0.352856
vt 0.605840 0.016837
vt 0.626630 0.089591
vt 0.605840 0.089591
vt 0.708068 0.260508
vt 0.944451 0.031848
vt 0.944451 0.260508
vt 0.511301 0.089591
vt 0.472226 0.260508
vt 0.472226 0.051419
vt 0.626630 0.507684
vt 0.626630 0.431426
vt 0.648810 0.431426
vt 0.674534 0.260508
vt 0.649910 0.511456
vt 0.649910 0.260508
vt 0.699286 0.260508
vt 0.674534 0.005706
vt 0.699286 0.001959
vt 0.699286 0.519057
vt 0.674534 0.515311
vt 0.649910 0.009560
vt 0.648810 0.089591
vt 0.626630 0.013332
vt 0.511301 0.431426
vt 0.605840 0.504180
vt 0.472226 0.469598
vt 0.944451 0.489169
vt 0.605840 0.431426
vt 0.338611 0.016837
vt 0.317822 0.089591
vt 0.317822 0.013332
vt 0.000000 0.031848
vt 0.236383 0.260508
vt 0.000000 0.260508
vt 0.472226 0.260508
vt 0.433150 0.260508
vt 0.433150 0.089591
vt 0.295641 0.431426
vt 0.317822 0.507684
vt 0.294541 0.511456
vt 0.269918 0.260508
vt 0.294541 0.260508
vt 0.245166 0.260508
vt 0.269918 0.005706
vt 0.245166 0.519057
vt 0.245166 0.001959
vt 0.236383 0.000000
vt 0.269918 0.515311
vt 0.294541 0.009560
vt 0.295641 0.089591
vt 0.338611 0.504180
vt 0.338611 0.431426
vt 0.433150 0.431426
vt -0.000000 0.489169
vt 0.236383 0.521017
vt 0.317822 0.431426
vt 0.088452 0.740307
vt 0.009744 0.521017
vt 0.098196 0.740043
vt 0.210558 0.772470
vt 0.207328 0.747952
vt 0.217072 0.748216
vt 0.091748 0.748811
vt 0.101492 0.748547
vt 0.218132 0.730106
vt 0.227880 0.521017
vt 0.227880 0.730106
vt 0.954199 0.000000
vt 0.944451 0.228660
vt 0.944451 0.000000
vt 0.009744 0.999736
vt 0.085148 0.846005
vt 0.094891 0.845741
vt 0.954199 0.228660
vt 0.944451 0.457321
vt 0.208389 0.722846
vt 0.218132 0.723111
vt 0.194214 0.675011
vt 0.118810 0.521281
vt 0.203958 0.675275
vt 0.118810 1.000000
vt 0.197518 0.780710
vt 0.207262 0.780974
vt 0.094878 0.822890
vt 0.104622 0.822626
vt 0.098262 0.773065
vt 0.108005 0.772800
vt 0.099322 0.798170
vt 0.109066 0.797906
vt 0.213688 0.698391
vt 0.203944 0.698126
vt 0.200814 0.772205
vt 0.218132 0.939195
vt 0.227880 0.939195
vt 0.263585 0.568340
vt 0.254948 0.572858
vt 0.253723 0.548181
vt 0.278571 0.672031
vt 0.263585 0.690158
vt 0.269934 0.667512
vt 0.247374 0.691934
vt 0.237627 0.862852
vt 0.237627 0.691934
vt 0.227880 0.691934
vt 0.237627 0.521017
vt 0.237627 0.691934
vt 0.708068 0.000000
vt 0.511301 0.260508
vt 0.648810 0.260508
vt 0.708068 0.521017
vt 0.338611 0.089591
vt 0.472226 0.051419
vt 0.295641 0.260508
vt 0.472226 0.469598
vt 0.000000 0.521281
vt 0.218132 0.521017
vt 0.000000 1.000000
vt 0.954199 0.457321
vt 0.109066 0.521017
vt 0.109066 0.999735
vt 0.247374 0.525535
vt 0.256011 0.521017
vt 0.262360 0.543663
vt 0.256011 0.690158
vt 0.247374 0.694677
vt 0.271159 0.642835
vt 0.263585 0.521016
vt 0.272222 0.525535
vt 0.279796 0.647353
vt 0.272222 0.694677
vt 0.237627 0.521017
vt 0.247374 0.521017
vt 0.247374 0.862852
vt 0.237627 0.862852
vt 0.227880 0.862852
vt 0.227880 0.521017
vn 0.9091 0.4167 0.0000
vn 0.9397 -0.3420 0.0000
vn 0.8572 0.5150 0.0000
vn 0.9786 0.2058 0.0000
vn 0.9999 -0.0153 0.0000
vn 0.9719 -0.2356 0.0000
vn -0.9091 -0.4167 0.0000
vn -0.9397 0.3420 -0.0000
vn -0.8572 -0.5150 0.0000
vn -0.9786 -0.2058 0.0000
vn -0.9999 0.0153 0.0000
vn -0.9719 0.2356 -0.0000
vn 0.0000 -0.1392 0.9903
vn 0.0000 0.1533 -0.9882
vn 0.0000 0.2266 0.9740
vn 0.0000 1.0000 0.0000
vn 0.0000 -1.0000 0.0000
vn 0.0000 0.2267 0.9740
vn 0.0000 0.2267 -0.9740
vn 0.0000 -0.1392 -0.9903
vn 0.0000 0.1533 0.9882
vn 0.0000 0.0000 1.0000
vn 0.0000 0.0000 -1.0000
vn 0.9786 0.2057 0.0000
vn -0.9786 -0.2059 0.0000
vn -0.9786 -0.2057 0.0000
usemtl None
s off
f 7/1/1 45/2/1 46/3/1
f 22/4/2 2/5/2 21/6/2
f 47/7/3 20/8/3 6/9/3
f 16/10/4 50/11/4 51/12/4
f 17/13/5 15/14/5 19/15/5
f 18/16/6 10/17/6 4/18/6
f 22/4/2 13/19/2 18/16/2
f 4/18/2 22/4/2 18/16/2
f 14/20/6 18/16/6 13/19/6
f 9/21/5 17/13/5 19/15/5
f 52/22/4 8/23/4 9/21/4
f 54/24/3 12/25/3 11/26/3
f 3/27/2 22/4/2 21/6/2
f 50/11/1 12/25/1 53/28/1
f 40/29/7 56/30/7 42/31/7
f 30/32/8 44/33/8 43/34/8
f 38/35/9 57/36/9 58/37/9
f 59/38/10 37/39/10 41/40/10
f 41/40/11 32/41/11 34/42/11
f 27/43/12 26/44/12 32/41/12
f 28/45/8 44/33/8 27/43/8
f 31/46/8 44/33/8 29/47/8
f 27/43/12 33/48/12 28/45/12
f 25/49/11 32/41/11 26/44/11
f 42/31/10 56/30/10 62/50/10
f 36/51/9 64/52/9 63/53/9
f 23/54/8 44/33/8 24/55/8
f 36/51/7 61/56/7 64/52/7
f 29/57/13 2/58/13 1/59/13
f 13/60/14 33/61/14 14/62/14
f 31/63/15 1/59/15 4/64/15
f 38/65/16 6/66/16 20/67/16
f 30/68/17 21/69/17 2/70/17
f 6/71/18 40/72/18 7/73/18
f 43/74/17 3/75/17 21/69/17
f 14/62/14 41/76/14 15/77/14
f 36/78/19 11/79/19 12/80/19
f 3/81/20 24/82/20 5/83/20
f 7/73/21 42/84/21 8/85/21
f 26/86/21 4/64/21 10/87/21
f 25/88/21 10/87/21 9/89/21
f 41/76/14 16/90/14 15/77/14
f 37/91/14 12/80/14 16/90/14
f 8/85/21 25/88/21 9/89/21
f 5/83/19 28/92/19 13/60/19
f 35/93/16 20/67/16 11/94/16
f 53/95/22 64/96/22 61/97/22
f 45/98/23 62/99/23 56/100/23
f 49/101/16 59/102/16 60/103/16
f 48/104/17 58/105/17 57/106/17
f 7/1/1 8/23/1 45/2/1
f 22/4/2 1/107/2 2/5/2
f 47/7/3 48/108/3 20/8/3
f 6/9/3 7/1/3 47/7/3
f 7/1/3 46/3/3 47/7/3
f 49/109/24 19/15/24 51/12/24
f 19/15/4 15/14/4 51/12/4
f 15/14/4 16/10/4 51/12/4
f 17/13/5 14/20/5 15/14/5
f 18/16/6 17/13/6 10/17/6
f 22/4/2 5/110/2 13/19/2
f 4/18/2 1/107/2 22/4/2
f 14/20/6 17/13/6 18/16/6
f 9/21/5 10/17/5 17/13/5
f 52/22/4 45/2/4 8/23/4
f 9/21/24 19/15/24 52/22/24
f 19/15/4 49/109/4 52/22/4
f 54/24/3 53/28/3 12/25/3
f 11/26/3 20/8/3 54/24/3
f 20/8/3 48/108/3 54/24/3
f 3/27/2 5/110/2 22/4/2
f 50/11/1 16/10/1 12/25/1
f 40/29/7 55/111/7 56/30/7
f 30/32/8 29/47/8 44/33/8
f 55/111/9 40/29/9 58/37/9
f 40/29/9 39/112/9 58/37/9
f 39/112/9 38/35/9 58/37/9
f 59/38/10 61/56/10 37/39/10
f 41/40/25 34/42/25 59/38/25
f 34/42/26 60/113/26 59/38/26
f 41/40/11 33/48/11 32/41/11
f 27/43/12 31/46/12 26/44/12
f 28/45/8 24/55/8 44/33/8
f 31/46/8 27/43/8 44/33/8
f 27/43/12 32/41/12 33/48/12
f 25/49/11 34/42/11 32/41/11
f 60/113/26 34/42/26 62/50/26
f 34/42/10 25/49/10 62/50/10
f 25/49/10 42/31/10 62/50/10
f 57/36/9 38/35/9 63/53/9
f 38/35/9 35/114/9 63/53/9
f 35/114/9 36/51/9 63/53/9
f 23/54/8 43/34/8 44/33/8
f 36/51/7 37/39/7 61/56/7
f 29/57/13 30/115/13 2/58/13
f 13/60/14 28/92/14 33/61/14
f 31/63/18 29/57/18 1/59/18
f 38/65/16 39/116/16 6/66/16
f 30/68/17 43/74/17 21/69/17
f 6/71/18 39/117/18 40/72/18
f 43/74/17 23/118/17 3/75/17
f 14/62/14 33/61/14 41/76/14
f 36/78/19 35/119/19 11/79/19
f 3/81/20 23/120/20 24/82/20
f 7/73/21 40/72/21 42/84/21
f 26/86/21 31/63/21 4/64/21
f 25/88/21 26/86/21 10/87/21
f 41/76/14 37/91/14 16/90/14
f 37/91/14 36/78/14 12/80/14
f 8/85/21 42/84/21 25/88/21
f 5/83/19 24/82/19 28/92/19
f 35/93/16 38/65/16 20/67/16
f 59/121/22 51/122/22 50/123/22
f 50/123/22 53/95/22 61/97/22
f 53/95/22 54/124/22 64/96/22
f 54/124/22 63/125/22 64/96/22
f 61/97/22 59/121/22 50/123/22
f 55/126/23 58/127/23 47/128/23
f 47/128/23 46/129/23 55/126/23
f 46/129/23 45/98/23 56/100/23
f 55/126/23 46/129/23 56/100/23
f 45/98/23 52/130/23 62/99/23
f 60/103/16 62/131/16 52/132/16
f 49/101/16 51/133/16 59/102/16
f 60/103/16 52/132/16 49/101/16
f 57/106/17 63/134/17 54/135/17
f 48/104/17 47/136/17 58/105/17
f 57/106/17 54/135/17 48/104/17
