# Blender v3.6.23 OBJ File: 'untitled.blend'
# www.blender.org
mtllib mesh_g2.mtl
o Cylinder
v -0.795844 0.095920 -0.577431
v -0.795844 0.095920 -0.457810
v -0.747533 0.086311 -0.577431
v -0.747533 0.086311 -0.457810
v -0.706577 0.058945 -0.577431
v -0.706577 0.058945 -0.457810
v -0.679211 0.017989 -0.577431
v -0.679211 0.017989 -0.457810
v -0.669601 -0.030322 -0.577431
v -0.669601 -0.030322 -0.457810
v -0.679211 -0.078633 -0.577431
v -0.679211 -0.078633 -0.457810
v -0.706577 -0.119589 -0.577431
v -0.706577 -0.119589 -0.457810
v -0.747533 -0.146955 -0.577431
v -0.747533 -0.146955 -0.457810
v -0.795844 -0.156564 -0.577431
v -0.795844 -0.156564 -0.457810
v -0.844155 -0.146955 -0.577431
v -0.844155 -0.146955 -0.457810
v -0.885110 -0.119589 -0.577431
v -0.885110 -0.119589 -0.457810
v -0.912476 -0.078633 -0.577431
v -0.912476 -0.078633 -0.457810
v -0.922086 -0.030322 -0.577431
v -0.922086 -0.030322 -0.457810
v -0.912476 0.017989 -0.577431
v -0.912476 0.017989 -0.457810
v -0.885110 0.058945 -0.577431
v -0.885110 0.058945 -0.457810
v -0.844155 0.086311 -0.577431
v -0.844155 0.086311 -0.457810
v -0.795844 0.095920 0.577431
v -0.795844 0.095920 0.457810
v -0.747533 0.086311 0.577431
v -0.747533 0.086311 0.457810
v -0.706577 0.058945 0.577431
v -0.706577 0.058945 0.457810
v -0.679211 0.017989 0.577431
v -0.679211 0.017989 0.457810
v -0.669601 -0.030322 0.577431
v -0.669601 -0.030322 0.457810
v -0.679211 -0.078633 0.577431
v -0.679211 -0.078633 0.457810
v -0.706577 -0.119589 0.577431
v -0.706577 -0.119589 0.457810
v -0.747533 -0.146955 0.577431
v -0.747533 -0.146955 0.457810
v -0.795844 -0.156564 0.577431
v -0.795844 -0.156564 0.457810
v -0.844155 -0.146955 0.577431
v -0.844155 -0.146955 0.457810
v -0.885111 -0.119589 0.577431
v -0.885111 -0.119589 0.457810
v -0.912476 -0.078633 0.577431
v -0.912476 -0.078633 0.457810
v -0.922086 -0.030322 0.577431
v -0.922086 -0.030322 0.457810
v -0.912476 0.017989 0.577431
v -0.912476 0.017989 0.457810
v -0.885111 0.058945 0.577431
v -0.885111 0.058945 0.457810
v -0.844155 0.086311 0.577431
v -0.844155 0.086311 0.457810
v 0.621512 0.095920 -0.577431
v 0.621512 0.095920 -0.457810
v 0.669823 0.086310 -0.577431
v 0.669823 0.086310 -0.457810
v 0.710779 0.058945 -0.577431
v 0.710779 0.058945 -0.457810
v 0.738145 0.017989 -0.577431
v 0.738145 0.017989 -0.457810
v 0.747754 -0.030322 -0.577431
v 0.747754 -0.030322 -0.457810
v 0.738145 -0.078633 -0.577431
v 0.738145 -0.078633 -0.457810
v 0.710779 -0.119589 -0.577431
v 0.710779 -0.119589 -0.457810
v 0.669823 -0.146955 -0.577431
v 0.669823 -0.146955 -0.457810
v 0.621512 -0.156565 -0.577431
v 0.621512 -0.156565 -0.457810
v 0.573201 -0.146955 -0.577431
v 0.573201 -0.146955 -0.457810
v 0.532245 -0.119589 -0.577431
v 0.532245 -0.119589 -0.457810
v 0.504879 -0.078633 -0.577431
v 0.504879 -0.078633 -0.457810
v 0.495269 -0.030322 -0.577431
v 0.495269 -0.030322 -0.457810
v 0.504879 0.017989 -0.577431
v 0.504879 0.017989 -0.457810
v 0.532245 0.058945 -0.577431
v 0.532245 0.058945 -0.457810
v 0.573201 0.086310 -0.577431
v 0.573201 0.086310 -0.457810
v 0.621512 0.095920 0.577431
v 0.621512 0.095920 0.457810
v 0.669823 0.086310 0.577431
v 0.669823 0.086310 0.457810
v 0.710779 0.058945 0.577431
v 0.710779 0.058945 0.457810
v 0.738145 0.017989 0.577431
v 0.738145 0.017989 0.457810
v 0.747754 -0.030322 0.577431
v 0.747754 -0.030322 0.457810
v 0.738145 -0.078633 0.577431
v 0.738145 -0.078633 0.457810
v 0.710779 -0.119589 0.577431
v 0.710779 -0.119589 0.457810
v 0.669823 -0.146955 0.577431
v 0.669823 -0.146955 0.457810
v 0.621512 -0.156565 0.577431
v 0.621512 -0.156565 0.457810
v 0.573201 -0.146955 0.577431
v 0.573201 -0.146955 0.457810
v 0.532245 -0.119589 0.577431
v 0.532245 -0.119589 0.457810
v 0.504879 -0.078633 0.577431
v 0.504879 -0.078633 0.457810
v 0.495269 -0.030322 0.577431
v 0.495269 -0.030322 0.457810
v 0.504879 0.017989 0.577431
v 0.504879 0.017989 0.457810
v 0.532245 0.058945 0.577431
v 0.532245 0.058945 0.457810
v 0.573201 0.086310 0.577431
v 0.573201 0.086310 0.457810
vt 0.035049 0.935385
vt 0.028469 0.936207
vt 0.028469 0.935385
vt 0.035049 0.936207
vt 0.028469 0.937030
vt 0.035049 0.937030
vt 0.028469 0.937852
vt 0.035049 0.937852
vt 0.028469 0.938675
vt 0.035049 0.938675
vt 0.028469 0.939497
vt 0.035049 0.939497
vt 0.028469 0.940319
vt 0.035049 0.940319
vt 0.028469 0.941142
vt 0.035049 0.941142
vt 0.028469 0.941964
vt 0.035049 0.941964
vt 0.028469 0.942787
vt 0.035049 0.942787
vt 0.028469 0.943609
vt 0.035049 0.943609
vt 0.028469 0.944432
vt 0.035049 0.944432
vt 0.028469 0.945254
vt 0.035049 0.945254
vt 0.028469 0.946077
vt 0.035049 0.946077
vt 0.028469 0.946899
vt 0.044992 0.954774
vt 0.047474 0.958488
vt 0.043760 0.960969
vt 0.035049 0.946899
vt 0.028469 0.947722
vt 0.035049 0.947722
vt 0.028469 0.948544
vt 0.037547 0.948562
vt 0.035066 0.952275
vt 0.038780 0.954757
vt 0.041646 0.935385
vt 0.035066 0.936207
vt 0.035066 0.935385
vt 0.041646 0.936207
vt 0.035066 0.937030
vt 0.041646 0.937030
vt 0.035066 0.937852
vt 0.041646 0.937852
vt 0.035066 0.938675
vt 0.041646 0.938675
vt 0.035066 0.939497
vt 0.041646 0.939497
vt 0.035066 0.940319
vt 0.041646 0.940319
vt 0.035066 0.941142
vt 0.041646 0.941142
vt 0.035066 0.941964
vt 0.041646 0.941964
vt 0.035066 0.942787
vt 0.041646 0.942787
vt 0.035066 0.943609
vt 0.041646 0.943609
vt 0.035066 0.944432
vt 0.041646 0.944432
vt 0.035066 0.945254
vt 0.041646 0.945254
vt 0.035066 0.946077
vt 0.041646 0.946077
vt 0.035066 0.946899
vt 0.051205 0.954774
vt 0.053686 0.958488
vt 0.049973 0.960969
vt 0.041646 0.946899
vt 0.035066 0.947722
vt 0.041646 0.947722
vt 0.035066 0.948544
vt 0.043760 0.948562
vt 0.041279 0.952275
vt 0.044992 0.954757
vt 0.048243 0.935385
vt 0.041663 0.936207
vt 0.041663 0.935385
vt 0.048243 0.936207
vt 0.041663 0.937030
vt 0.048243 0.937030
vt 0.041663 0.937852
vt 0.048243 0.937852
vt 0.041663 0.938675
vt 0.048243 0.938675
vt 0.041663 0.939497
vt 0.048243 0.939497
vt 0.041663 0.940319
vt 0.048243 0.940319
vt 0.041663 0.941142
vt 0.048243 0.941142
vt 0.041663 0.941964
vt 0.048243 0.941964
vt 0.041663 0.942787
vt 0.048243 0.942787
vt 0.041663 0.943609
vt 0.048243 0.943609
vt 0.041663 0.944432
vt 0.048243 0.944432
vt 0.041663 0.945254
vt 0.048243 0.945254
vt 0.041663 0.946077
vt 0.048243 0.946077
vt 0.041663 0.946899
vt 0.051974 0.935385
vt 0.054455 0.939098
vt 0.050742 0.941580
vt 0.048243 0.946899
vt 0.041663 0.947722
vt 0.048243 0.947722
vt 0.041663 0.948544
vt 0.049973 0.948562
vt 0.047491 0.952275
vt 0.051205 0.954757
vt 0.035049 0.948562
vt 0.028469 0.949384
vt 0.028469 0.948562
vt 0.035049 0.949384
vt 0.028469 0.950207
vt 0.035049 0.950207
vt 0.028469 0.951029
vt 0.035049 0.951029
vt 0.028469 0.951851
vt 0.035049 0.951851
vt 0.028469 0.952674
vt 0.035049 0.952674
vt 0.028469 0.953496
vt 0.035049 0.953496
vt 0.028469 0.954319
vt 0.035049 0.954319
vt 0.028469 0.955141
vt 0.035049 0.955141
vt 0.028469 0.955964
vt 0.035049 0.955964
vt 0.028469 0.956786
vt 0.035049 0.956786
vt 0.028469 0.957609
vt 0.035049 0.957609
vt 0.028469 0.958431
vt 0.035049 0.958431
vt 0.028469 0.959254
vt 0.035049 0.959254
vt 0.028469 0.960076
vt 0.053984 0.942940
vt 0.054455 0.945311
vt 0.050742 0.947792
vt 0.035049 0.960076
vt 0.028469 0.960899
vt 0.035049 0.960899
vt 0.028469 0.961721
vt 0.041261 0.957256
vt 0.037547 0.954774
vt 0.035066 0.958488
vt 0.042621 0.960498
vt 0.041750 0.959626
vt 0.041279 0.958488
vt 0.041279 0.957256
vt 0.041750 0.956117
vt 0.042621 0.955246
vt 0.043760 0.954774
vt 0.046131 0.955246
vt 0.047002 0.956117
vt 0.047474 0.957256
vt 0.047002 0.959626
vt 0.046131 0.960498
vt 0.044992 0.960969
vt 0.035049 0.948544
vt 0.039918 0.954285
vt 0.040790 0.953414
vt 0.041261 0.952275
vt 0.041261 0.951043
vt 0.040790 0.949905
vt 0.039918 0.949033
vt 0.038780 0.948562
vt 0.036409 0.949033
vt 0.035538 0.949905
vt 0.035066 0.951043
vt 0.035538 0.953414
vt 0.036409 0.954285
vt 0.037547 0.954757
vt 0.048834 0.960498
vt 0.047963 0.959626
vt 0.047491 0.958488
vt 0.047491 0.957256
vt 0.047963 0.956117
vt 0.048834 0.955246
vt 0.049973 0.954774
vt 0.052343 0.955246
vt 0.053215 0.956117
vt 0.053686 0.957256
vt 0.053215 0.959626
vt 0.052343 0.960498
vt 0.051205 0.960969
vt 0.041646 0.948544
vt 0.046131 0.954285
vt 0.047002 0.953414
vt 0.047474 0.952275
vt 0.047474 0.951043
vt 0.047002 0.949905
vt 0.046131 0.949033
vt 0.044992 0.948562
vt 0.042621 0.949033
vt 0.041750 0.949905
vt 0.041279 0.951043
vt 0.041750 0.953414
vt 0.042621 0.954285
vt 0.043760 0.954757
vt 0.049603 0.941108
vt 0.048732 0.940237
vt 0.048260 0.939098
vt 0.048260 0.937866
vt 0.048732 0.936728
vt 0.049603 0.935856
vt 0.050742 0.935385
vt 0.053113 0.935856
vt 0.053984 0.936728
vt 0.054455 0.937866
vt 0.053984 0.940237
vt 0.053113 0.941108
vt 0.051974 0.941580
vt 0.048243 0.948544
vt 0.052343 0.954285
vt 0.053215 0.953414
vt 0.053686 0.952275
vt 0.053686 0.951043
vt 0.053215 0.949905
vt 0.052343 0.949033
vt 0.051205 0.948562
vt 0.048834 0.949033
vt 0.047963 0.949905
vt 0.047491 0.951043
vt 0.047963 0.953414
vt 0.048834 0.954285
vt 0.049973 0.954757
vt 0.049603 0.947321
vt 0.048732 0.946450
vt 0.048260 0.945311
vt 0.048260 0.944079
vt 0.048732 0.942940
vt 0.049603 0.942069
vt 0.050742 0.941597
vt 0.051974 0.941597
vt 0.053113 0.942069
vt 0.054455 0.944079
vt 0.053984 0.946450
vt 0.053113 0.947321
vt 0.051974 0.947792
vt 0.035049 0.961721
vt 0.038780 0.960969
vt 0.039918 0.960498
vt 0.040790 0.959626
vt 0.041261 0.958488
vt 0.040790 0.956117
vt 0.039918 0.955246
vt 0.038780 0.954774
vt 0.036409 0.955246
vt 0.035538 0.956117
vt 0.035066 0.957256
vt 0.035538 0.959626
vt 0.036409 0.960498
vt 0.037547 0.960969
vn 0.1951 0.9808 0.0000
vn 0.5556 0.8315 0.0000
vn 0.8315 0.5556 0.0000
vn 0.9808 0.1951 0.0000
vn 0.9808 -0.1951 0.0000
vn 0.8315 -0.5556 0.0000
vn 0.5556 -0.8315 0.0000
vn 0.1951 -0.9808 0.0000
vn -0.1951 -0.9808 0.0000
vn -0.5556 -0.8315 0.0000
vn -0.8315 -0.5556 0.0000
vn -0.9808 -0.1951 -0.0000
vn -0.9808 0.1951 0.0000
vn -0.8315 0.5556 0.0000
vn 0.0000 0.0000 1.0000
vn -0.5556 0.8315 0.0000
vn -0.1951 0.9808 0.0000
vn -0.0000 0.0000 -1.0000
usemtl None
s off
f 2/1/1 3/2/1 1/3/1
f 4/4/2 5/5/2 3/2/2
f 6/6/3 7/7/3 5/5/3
f 8/8/4 9/9/4 7/7/4
f 10/10/5 11/11/5 9/9/5
f 12/12/6 13/13/6 11/11/6
f 14/14/7 15/15/7 13/13/7
f 16/16/8 17/17/8 15/15/8
f 18/18/9 19/19/9 17/17/9
f 20/20/10 21/21/10 19/19/10
f 22/22/11 23/23/11 21/21/11
f 24/24/12 25/25/12 23/23/12
f 26/26/13 27/27/13 25/25/13
f 28/28/14 29/29/14 27/27/14
f 22/30/15 14/31/15 6/32/15
f 30/33/16 31/34/16 29/29/16
f 32/35/17 1/36/17 31/34/17
f 15/37/18 23/38/18 31/39/18
f 34/40/9 35/41/9 33/42/9
f 36/43/10 37/44/10 35/41/10
f 38/45/11 39/46/11 37/44/11
f 40/47/12 41/48/12 39/46/12
f 42/49/13 43/50/13 41/48/13
f 44/51/14 45/52/14 43/50/14
f 46/53/16 47/54/16 45/52/16
f 48/55/17 49/56/17 47/54/17
f 50/57/1 51/58/1 49/56/1
f 52/59/2 53/60/2 51/58/2
f 54/61/3 55/62/3 53/60/3
f 56/63/4 57/64/4 55/62/4
f 58/65/5 59/66/5 57/64/5
f 60/67/6 61/68/6 59/66/6
f 54/69/15 46/70/15 38/71/15
f 62/72/7 63/73/7 61/68/7
f 64/74/8 33/75/8 63/73/8
f 47/76/18 55/77/18 63/78/18
f 66/79/1 67/80/1 65/81/1
f 68/82/2 69/83/2 67/80/2
f 70/84/3 71/85/3 69/83/3
f 72/86/4 73/87/4 71/85/4
f 74/88/5 75/89/5 73/87/5
f 76/90/6 77/91/6 75/89/6
f 78/92/7 79/93/7 77/91/7
f 80/94/8 81/95/8 79/93/8
f 82/96/9 83/97/9 81/95/9
f 84/98/10 85/99/10 83/97/10
f 86/100/11 87/101/11 85/99/11
f 88/102/12 89/103/12 87/101/12
f 90/104/13 91/105/13 89/103/13
f 92/106/14 93/107/14 91/105/14
f 86/108/15 78/109/15 70/110/15
f 94/111/16 95/112/16 93/107/16
f 96/113/17 65/114/17 95/112/17
f 79/115/18 87/116/18 95/117/18
f 98/118/9 99/119/9 97/120/9
f 100/121/10 101/122/10 99/119/10
f 102/123/11 103/124/11 101/122/11
f 104/125/12 105/126/12 103/124/12
f 106/127/13 107/128/13 105/126/13
f 108/129/14 109/130/14 107/128/14
f 110/131/16 111/132/16 109/130/16
f 112/133/17 113/134/17 111/132/17
f 114/135/1 115/136/1 113/134/1
f 116/137/2 117/138/2 115/136/2
f 118/139/3 119/140/3 117/138/3
f 120/141/4 121/142/4 119/140/4
f 122/143/5 123/144/5 121/142/5
f 124/145/6 125/146/6 123/144/6
f 114/147/15 110/148/15 102/149/15
f 126/150/7 127/151/7 125/146/7
f 128/152/8 97/153/8 127/151/8
f 103/154/18 111/155/18 119/156/18
f 2/1/1 4/4/1 3/2/1
f 4/4/2 6/6/2 5/5/2
f 6/6/3 8/8/3 7/7/3
f 8/8/4 10/10/4 9/9/4
f 10/10/5 12/12/5 11/11/5
f 12/12/6 14/14/6 13/13/6
f 14/14/7 16/16/7 15/15/7
f 16/16/8 18/18/8 17/17/8
f 18/18/9 20/20/9 19/19/9
f 20/20/10 22/22/10 21/21/10
f 22/22/11 24/24/11 23/23/11
f 24/24/12 26/26/12 25/25/12
f 26/26/13 28/28/13 27/27/13
f 28/28/14 30/33/14 29/29/14
f 6/32/15 4/157/15 2/158/15
f 2/158/15 32/159/15 6/32/15
f 32/159/15 30/160/15 6/32/15
f 30/160/15 28/161/15 22/30/15
f 28/161/15 26/162/15 22/30/15
f 26/162/15 24/163/15 22/30/15
f 22/30/15 20/164/15 18/165/15
f 18/165/15 16/166/15 14/31/15
f 14/31/15 12/167/15 10/168/15
f 10/168/15 8/169/15 14/31/15
f 8/169/15 6/32/15 14/31/15
f 22/30/15 18/165/15 14/31/15
f 6/32/15 30/160/15 22/30/15
f 30/33/16 32/35/16 31/34/16
f 32/35/17 2/170/17 1/36/17
f 31/39/18 1/171/18 3/172/18
f 3/172/18 5/173/18 31/39/18
f 5/173/18 7/174/18 31/39/18
f 7/174/18 9/175/18 11/176/18
f 11/176/18 13/177/18 7/174/18
f 13/177/18 15/37/18 7/174/18
f 15/37/18 17/178/18 23/38/18
f 17/178/18 19/179/18 23/38/18
f 19/179/18 21/180/18 23/38/18
f 23/38/18 25/181/18 27/182/18
f 27/182/18 29/183/18 23/38/18
f 29/183/18 31/39/18 23/38/18
f 31/39/18 7/174/18 15/37/18
f 34/40/9 36/43/9 35/41/9
f 36/43/10 38/45/10 37/44/10
f 38/45/11 40/47/11 39/46/11
f 40/47/12 42/49/12 41/48/12
f 42/49/13 44/51/13 43/50/13
f 44/51/14 46/53/14 45/52/14
f 46/53/16 48/55/16 47/54/16
f 48/55/17 50/57/17 49/56/17
f 50/57/1 52/59/1 51/58/1
f 52/59/2 54/61/2 53/60/2
f 54/61/3 56/63/3 55/62/3
f 56/63/4 58/65/4 57/64/4
f 58/65/5 60/67/5 59/66/5
f 60/67/6 62/72/6 61/68/6
f 38/71/15 36/184/15 34/185/15
f 34/185/15 64/186/15 38/71/15
f 64/186/15 62/187/15 38/71/15
f 62/187/15 60/188/15 54/69/15
f 60/188/15 58/189/15 54/69/15
f 58/189/15 56/190/15 54/69/15
f 54/69/15 52/191/15 50/192/15
f 50/192/15 48/193/15 46/70/15
f 46/70/15 44/194/15 42/195/15
f 42/195/15 40/196/15 46/70/15
f 40/196/15 38/71/15 46/70/15
f 54/69/15 50/192/15 46/70/15
f 38/71/15 62/187/15 54/69/15
f 62/72/7 64/74/7 63/73/7
f 64/74/8 34/197/8 33/75/8
f 63/78/18 33/198/18 35/199/18
f 35/199/18 37/200/18 63/78/18
f 37/200/18 39/201/18 63/78/18
f 39/201/18 41/202/18 43/203/18
f 43/203/18 45/204/18 39/201/18
f 45/204/18 47/76/18 39/201/18
f 47/76/18 49/205/18 55/77/18
f 49/205/18 51/206/18 55/77/18
f 51/206/18 53/207/18 55/77/18
f 55/77/18 57/208/18 59/209/18
f 59/209/18 61/210/18 55/77/18
f 61/210/18 63/78/18 55/77/18
f 63/78/18 39/201/18 47/76/18
f 66/79/1 68/82/1 67/80/1
f 68/82/2 70/84/2 69/83/2
f 70/84/3 72/86/3 71/85/3
f 72/86/4 74/88/4 73/87/4
f 74/88/5 76/90/5 75/89/5
f 76/90/6 78/92/6 77/91/6
f 78/92/7 80/94/7 79/93/7
f 80/94/8 82/96/8 81/95/8
f 82/96/9 84/98/9 83/97/9
f 84/98/10 86/100/10 85/99/10
f 86/100/11 88/102/11 87/101/11
f 88/102/12 90/104/12 89/103/12
f 90/104/13 92/106/13 91/105/13
f 92/106/14 94/111/14 93/107/14
f 70/110/15 68/211/15 66/212/15
f 66/212/15 96/213/15 94/214/15
f 94/214/15 92/215/15 90/216/15
f 90/216/15 88/217/15 86/108/15
f 86/108/15 84/218/15 82/219/15
f 82/219/15 80/220/15 78/109/15
f 78/109/15 76/221/15 74/222/15
f 74/222/15 72/223/15 70/110/15
f 70/110/15 66/212/15 94/214/15
f 94/214/15 90/216/15 86/108/15
f 86/108/15 82/219/15 78/109/15
f 78/109/15 74/222/15 70/110/15
f 70/110/15 94/214/15 86/108/15
f 94/111/16 96/113/16 95/112/16
f 96/113/17 66/224/17 65/114/17
f 95/117/18 65/225/18 67/226/18
f 67/226/18 69/227/18 95/117/18
f 69/227/18 71/228/18 95/117/18
f 71/228/18 73/229/18 75/230/18
f 75/230/18 77/231/18 71/228/18
f 77/231/18 79/115/18 71/228/18
f 79/115/18 81/232/18 83/233/18
f 83/233/18 85/234/18 79/115/18
f 85/234/18 87/116/18 79/115/18
f 87/116/18 89/235/18 91/236/18
f 91/236/18 93/237/18 87/116/18
f 93/237/18 95/117/18 87/116/18
f 95/117/18 71/228/18 79/115/18
f 98/118/9 100/121/9 99/119/9
f 100/121/10 102/123/10 101/122/10
f 102/123/11 104/125/11 103/124/11
f 104/125/12 106/127/12 105/126/12
f 106/127/13 108/129/13 107/128/13
f 108/129/14 110/131/14 109/130/14
f 110/131/16 112/133/16 111/132/16
f 112/133/17 114/135/17 113/134/17
f 114/135/1 116/137/1 115/136/1
f 116/137/2 118/139/2 117/138/2
f 118/139/3 120/141/3 119/140/3
f 120/141/4 122/143/4 121/142/4
f 122/143/5 124/145/5 123/144/5
f 124/145/6 126/150/6 125/146/6
f 102/149/15 100/238/15 98/239/15
f 98/239/15 128/240/15 102/149/15
f 128/240/15 126/241/15 102/149/15
f 126/241/15 124/242/15 122/243/15
f 122/243/15 120/244/15 118/245/15
f 118/245/15 116/246/15 114/147/15
f 114/147/15 112/247/15 110/148/15
f 110/148/15 108/248/15 106/249/15
f 106/249/15 104/250/15 110/148/15
f 104/250/15 102/149/15 110/148/15
f 126/241/15 122/243/15 102/149/15
f 122/243/15 118/245/15 102/149/15
f 118/245/15 114/147/15 102/149/15
f 126/150/7 128/152/7 127/151/7
f 128/152/8 98/251/8 97/153/8
f 127/252/18 97/253/18 99/254/18
f 99/254/18 101/255/18 103/154/18
f 103/154/18 105/256/18 107/257/18
f 107/257/18 109/258/18 111/155/18
f 111/155/18 113/259/18 115/260/18
f 115/260/18 117/261/18 119/156/18
f 119/156/18 121/262/18 127/252/18
f 121/262/18 123/263/18 127/252/18
f 123/263/18 125/264/18 127/252/18
f 127/252/18 99/254/18 103/154/18
f 103/154/18 107/257/18 111/155/18
f 111/155/18 115/260/18 119/156/18
f 127/252/18 103/154/18 119/156/18
