# Blender 3.6.23
# www.blender.org
mtllib untitled.mtl
o auto.001
v 0.179726 0.914258 0.463299
v -0.177504 0.914258 0.463299
v -0.177504 0.914258 0.430238
v 0.179726 0.914258 0.430238
v 0.179726 0.914258 -0.430238
v -0.177504 0.914258 -0.430238
v -0.177504 0.914258 -0.463299
v 0.179726 0.914258 -0.463299
v -0.451865 0.511168 0.557101
v -0.469295 0.485560 0.558241
v -0.471514 0.482300 0.557783
v -0.471514 0.482300 0.525267
v -0.466244 0.490042 0.526355
v -0.456832 0.503870 0.525739
v 0.396145 0.554076 0.547116
v 0.396145 0.554076 0.514055
v 0.396145 0.554076 -0.514055
v 0.396145 0.554076 -0.547116
v 0.380528 0.511168 0.557101
v 0.377871 0.503870 0.525739
v 0.376207 0.499298 0.526511
v 0.374521 0.494665 0.526717
v 0.372838 0.490042 0.526355
v 0.221505 0.074258 0.467920
v 0.221505 0.074258 0.500436
v 0.371207 0.485560 0.558241
v 0.374323 0.494122 0.558913
v 0.377446 0.502701 0.558530
v 0.375376 0.497013 -0.527334
v 0.376483 0.500055 -0.559687
v 0.376245 0.499401 -0.559823
v 0.376004 0.498740 -0.559927
v 0.375762 0.498076 -0.560000
v 0.221505 0.074258 -0.500436
v 0.221505 0.074258 -0.467920
v -0.471514 0.074258 0.500436
v -0.471514 0.074258 0.467920
v -0.471514 0.482300 -0.525266
v -0.471514 0.074258 -0.467920
v -0.471514 0.074258 -0.500436
v -0.471514 0.482300 -0.557783
v -0.461499 0.497013 -0.527334
v -0.460776 0.498076 -0.560000
v -0.459429 0.500055 -0.559687
v 0.929506 0.497013 -0.527334
v 0.937753 0.519671 -0.522061
v 0.946005 0.560227 -0.512624
v 0.942038 0.601423 -0.503037
v 0.926200 0.639660 -0.494139
v 0.758615 0.918567 -0.429236
v -0.186561 0.918567 -0.429236
v -0.470903 0.497013 -0.527334
v 0.927957 0.498076 -0.560000
v 0.931557 0.498076 -0.560000
v 0.932490 0.497985 -0.559987
v 0.936152 0.496963 -0.559844
v 0.777205 0.060258 -0.498469
v 0.691875 0.060258 -0.498469
v 0.677673 0.102602 -0.504420
v 0.649592 0.137332 -0.509301
v 0.611160 0.160084 -0.512498
v 0.567205 0.168000 -0.513611
v 0.523249 0.160084 -0.512498
v 0.484817 0.137332 -0.509301
v 0.456736 0.102602 -0.504420
v 0.442534 0.060258 -0.498469
v -0.597806 0.060258 -0.498469
v -0.612008 0.102602 -0.504420
v -0.640089 0.137332 -0.509301
v -0.678521 0.160084 -0.512498
v -0.722477 0.168000 -0.513611
v -0.766432 0.160084 -0.512498
v -0.804865 0.137332 -0.509301
v -0.832945 0.102602 -0.504420
v -0.847147 0.060258 -0.498469
v -0.876477 0.060258 -0.498469
v -0.960896 0.270258 -0.527982
v -0.643781 0.270258 -0.527982
v -0.643781 0.356154 -0.540054
v -0.599707 0.410397 -0.547678
v -0.555093 0.454707 -0.553905
v -0.514179 0.484870 -0.558144
v -0.496350 0.493689 -0.559384
v -0.480857 0.498019 -0.559992
v -0.480057 0.498076 -0.560000
v -0.473774 0.498076 -0.560000
v 0.927957 0.500055 -0.559687
v 0.927957 0.499401 -0.559823
v 0.927957 0.498740 -0.559927
v -0.473774 0.498740 -0.559927
v -0.473774 0.499401 -0.559823
v -0.473774 0.500055 -0.559687
v 0.932002 0.511168 0.557101
v 0.937753 0.526970 0.553424
v 0.946005 0.567526 0.543986
v 0.942038 0.608722 0.534399
v 0.926200 0.646958 0.525501
v 0.758615 0.925866 0.460598
v -0.186561 0.925866 0.460598
v -0.466278 0.511168 0.557101
v 0.932002 0.485560 0.558241
v 0.932002 0.494122 0.558913
v 0.932002 0.502701 0.558530
v 0.932002 0.490042 0.526355
v 0.777205 0.064739 0.466582
v 0.705346 0.064739 0.466582
v 0.691644 0.106147 0.472402
v 0.665865 0.141328 0.477346
v 0.630511 0.166869 0.480936
v 0.589012 0.180291 0.482822
v 0.545397 0.180291 0.482822
v 0.503898 0.166869 0.480936
v 0.468544 0.141328 0.477346
v 0.442765 0.106147 0.472402
v 0.429064 0.064739 0.466582
v -0.584336 0.064739 0.466582
v -0.598037 0.106147 0.472402
v -0.623816 0.141328 0.477346
v -0.659170 0.166869 0.480936
v -0.700669 0.180291 0.482822
v -0.744284 0.180291 0.482822
v -0.785783 0.166869 0.480936
v -0.821137 0.141328 0.477346
v -0.846916 0.106147 0.472402
v -0.860618 0.064739 0.466582
v -0.876477 0.064739 0.466582
v -0.960896 0.274739 0.496096
v -0.611581 0.274739 0.496096
v -0.611581 0.347480 0.506319
v -0.571965 0.406213 0.514573
v -0.531153 0.457180 0.521736
v -0.510435 0.476614 0.524467
v -0.491500 0.490042 0.526355
v 0.932002 0.503870 0.525739
v 0.932002 0.499298 0.526511
v 0.932002 0.494665 0.526717
v -0.466278 0.503870 0.525739
v -0.603683 -0.000000 -0.406000
v -0.841271 -0.000000 -0.406000
v -0.846480 0.019660 -0.406000
v -0.848459 0.039903 -0.406000
v -0.847155 0.060200 -0.406000
v -0.743755 0.060200 -0.406000
v -0.750432 0.043584 -0.406000
v -0.745675 0.026321 -0.406000
v -0.731430 0.015470 -0.406000
v -0.713523 0.015470 -0.406000
v -0.699278 0.026321 -0.406000
v -0.694521 0.043584 -0.406000
v -0.701198 0.060200 -0.406000
v -0.597798 0.060200 -0.406000
v -0.596494 0.039903 -0.406000
v -0.598473 0.019660 -0.406000
v -0.841271 -0.000000 -0.429150
v -0.842743 0.004421 -0.453625
v -0.846013 0.017215 -0.475114
v -0.848346 0.036381 -0.490533
v -0.596607 0.036381 -0.490533
v -0.598941 0.017215 -0.475114
v -0.602210 0.004421 -0.453625
v -0.603683 -0.000000 -0.429150
v -0.597798 0.060200 -0.465657
v -0.597805 0.060248 -0.465670
v -0.597805 0.060248 -0.406000
v -0.612004 0.102595 -0.406000
v -0.640083 0.137327 -0.406000
v -0.678516 0.160082 -0.406000
v -0.722472 0.168000 -0.406000
v -0.766429 0.160086 -0.406000
v -0.804863 0.137333 -0.406000
v -0.832945 0.102603 -0.406000
v -0.847147 0.060257 -0.406000
v -0.847147 0.060257 -0.465673
v -0.847155 0.060200 -0.465657
v 0.691883 0.060200 -0.498460
v 0.691883 0.060201 -0.498461
v 0.777205 0.029517 -0.486256
v 0.777205 0.007815 -0.461291
v 0.777205 -0.000000 -0.429150
v 0.685998 -0.000000 -0.429150
v 0.687470 0.004416 -0.453611
v 0.690737 0.017196 -0.475092
v 0.693072 0.036342 -0.490511
v 0.442527 0.060210 -0.498462
v 0.442526 0.060200 -0.498460
v 0.441337 0.036342 -0.490511
v 0.443672 0.017196 -0.475092
v 0.446939 0.004416 -0.453611
v 0.448411 -0.000000 -0.429150
v 0.539205 0.042000 0.406000
v 0.545755 0.024002 0.406000
v 0.562342 0.014425 0.406000
v 0.581205 0.017751 0.406000
v 0.593516 0.032423 0.406000
v 0.593516 0.051577 0.406000
v 0.581205 0.066249 0.406000
v 0.562342 0.069575 0.406000
v 0.545755 0.059998 0.406000
v 0.588478 0.060205 -0.406000
v 0.595203 0.042271 -0.406000
v 0.588827 0.024210 -0.406000
v 0.572334 0.014474 -0.406000
v 0.553440 0.017617 -0.406000
v 0.540987 0.032169 -0.406000
v 0.540802 0.051321 -0.406000
v 0.552970 0.066112 -0.406000
v 0.571799 0.069620 -0.406000
v 0.539205 0.042000 0.000000
v 0.545755 0.024002 0.000000
v 0.562342 0.014425 0.000000
v 0.581205 0.017751 0.000000
v 0.593516 0.032423 0.000000
v 0.593516 0.051577 0.000000
v 0.581205 0.066249 0.000000
v 0.562342 0.069575 0.000000
v 0.545755 0.059998 0.000000
v 0.685998 -0.000000 -0.406000
v 0.691208 0.019660 -0.406000
v 0.693187 0.039903 -0.406000
v 0.691883 0.060200 -0.406000
v 0.691883 0.060200 -0.465657
v 0.691883 0.060201 -0.465658
v 0.691883 0.060201 -0.406000
v 0.677695 0.102563 -0.406000
v 0.649616 0.137312 -0.406000
v 0.611176 0.160078 -0.406000
v 0.567209 0.168000 -0.406000
v 0.523241 0.160081 -0.406000
v 0.484800 0.137318 -0.406000
v 0.456719 0.102571 -0.406000
v 0.442527 0.060210 -0.406000
v 0.442527 0.060210 -0.465660
v 0.442526 0.060200 -0.465657
v 0.442526 0.060200 -0.406000
v 0.441222 0.039903 -0.406000
v 0.443201 0.019660 -0.406000
v 0.448411 -0.000000 -0.406000
v -0.743709 0.060253 -0.406000
v -0.701243 0.060252 -0.406000
v -0.714552 0.068855 -0.406000
v -0.730399 0.068856 -0.406000
v 0.605054 0.060204 -0.406000
v 0.605056 0.060200 -0.406000
v 0.529353 0.060200 -0.406000
v 0.529356 0.060207 -0.406000
v -0.684650 0.060251 -0.392000
v -0.583671 0.060247 -0.392000
v -0.596458 0.102986 -0.392000
v -0.622041 0.139532 -0.392000
v -0.657821 0.166176 -0.392000
v -0.700166 0.180211 -0.392000
v -0.744777 0.180212 -0.392000
v -0.787123 0.166180 -0.392000
v -0.822906 0.139540 -0.392000
v -0.848491 0.102995 -0.392000
v -0.861281 0.060258 -0.392000
v -0.760302 0.060254 -0.392000
v -0.744807 0.077572 -0.392000
v -0.722475 0.084000 -0.392000
v -0.700144 0.077570 -0.392000
v -0.684650 0.060251 -0.378000
v -0.701243 0.060252 -0.378000
v -0.583671 0.060247 -0.465670
v 0.428394 0.060211 -0.465660
v 0.429064 0.064739 -0.466582
v -0.584336 0.064739 -0.466582
v -0.701228 0.060234 -0.378000
v -0.701213 0.060217 -0.378000
v -0.701198 0.060200 -0.378000
v -0.743755 0.060200 -0.378000
v -0.743740 0.060218 -0.378000
v -0.743724 0.060235 -0.378000
v -0.743709 0.060253 -0.378000
v -0.750477 0.042000 0.406000
v -0.743926 0.024002 0.406000
v -0.727339 0.014425 0.406000
v -0.708477 0.017751 0.406000
v -0.696165 0.032423 0.406000
v -0.696165 0.051577 0.406000
v -0.708477 0.066249 0.406000
v -0.727339 0.069575 0.406000
v -0.743926 0.059998 0.406000
v -0.750477 0.042000 0.000000
v -0.696165 0.051577 0.000000
v -0.708477 0.066249 0.000000
v -0.696165 0.032423 0.000000
v -0.708477 0.017751 0.000000
v -0.727339 0.014425 0.000000
v -0.743926 0.024002 0.000000
v -0.743926 0.059998 0.000000
v -0.727339 0.069575 0.000000
v 0.605054 0.060204 -0.392000
v 0.706016 0.060201 -0.392000
v 0.693239 0.102953 -0.392000
v 0.667659 0.139514 -0.392000
v 0.631874 0.166169 -0.392000
v 0.589520 0.180210 -0.392000
v 0.544899 0.180212 -0.392000
v 0.502544 0.166173 -0.392000
v 0.466757 0.139521 -0.392000
v 0.441174 0.102962 -0.392000
v 0.428394 0.060211 -0.392000
v 0.529356 0.060207 -0.392000
v 0.544852 0.077558 -0.392000
v 0.567206 0.084000 -0.392000
v 0.589559 0.077556 -0.392000
v 0.706016 0.060201 -0.465658
v -0.684625 0.060200 -0.378000
v -0.684625 0.060200 0.392000
v -0.583665 0.060200 0.392000
v -0.583665 0.060200 0.465658
v 0.428393 0.060200 0.465658
v 0.428393 0.060200 0.392000
v 0.529353 0.060200 0.392000
v 0.777205 0.000000 0.429150
v 0.685998 0.000000 0.429150
v 0.685998 0.000000 0.406000
v 0.448411 0.000000 0.406000
v 0.448411 0.000000 0.429150
v -0.603683 0.000000 0.429150
v -0.603683 0.000000 0.406000
v -0.841271 0.000000 0.406000
v -0.841271 0.000000 0.429150
v -0.876477 0.000000 0.429150
v -0.876477 -0.000000 -0.429150
v -0.684641 0.060234 -0.378000
v -0.684633 0.060217 -0.378000
v -0.760302 0.060254 -0.378000
v -0.760329 0.060200 -0.378000
v -0.760320 0.060218 -0.378000
v -0.760311 0.060236 -0.378000
v 0.705346 0.064739 -0.466582
v 0.691644 0.106146 -0.472401
v 0.665865 0.141328 -0.477346
v 0.630511 0.166869 -0.480935
v 0.589012 0.180291 -0.482822
v 0.545397 0.180291 -0.482822
v 0.503898 0.166869 -0.480935
v 0.468544 0.141328 -0.477346
v 0.442765 0.106146 -0.472401
v 0.544848 0.077556 0.392000
v 0.567205 0.084000 0.392000
v 0.589561 0.077556 0.392000
v 0.605056 0.060200 0.392000
v 0.589560 0.077556 0.000000
v 0.567205 0.084000 0.000000
v 0.544850 0.077557 0.000000
v -0.598037 0.106146 -0.472401
v -0.623816 0.141328 -0.477346
v -0.659170 0.166869 -0.480935
v -0.700669 0.180291 -0.482822
v -0.744284 0.180291 -0.482822
v -0.785783 0.166869 -0.480935
v -0.821137 0.141328 -0.477346
v -0.846916 0.106146 -0.472401
v -0.860618 0.064739 -0.466582
v -0.861281 0.060258 -0.465673
v -0.876477 0.064739 -0.466582
v -0.876477 0.063214 -0.466336
v -0.876477 0.061700 -0.466027
v -0.876477 0.060200 -0.465657
v -0.596480 0.042951 0.406000
v -0.604330 0.085789 0.406000
v -0.626296 0.123395 0.406000
v -0.659751 0.151277 0.406000
v -0.700701 0.166104 0.406000
v -0.744252 0.166104 0.406000
v -0.785202 0.151277 0.406000
v -0.818658 0.123395 0.406000
v -0.840623 0.085789 0.406000
v -0.848473 0.042951 0.406000
v -0.602210 0.004421 0.453626
v -0.598941 0.017215 0.475114
v -0.596607 0.036381 0.490533
v -0.597806 0.060258 0.498469
v -0.612008 0.102602 0.504420
v -0.640089 0.137332 0.509301
v -0.678521 0.160085 0.512499
v -0.722477 0.168000 0.513611
v -0.766432 0.160085 0.512499
v -0.804865 0.137332 0.509301
v -0.832945 0.102602 0.504420
v -0.847147 0.060258 0.498469
v -0.848346 0.036381 0.490533
v -0.846013 0.017215 0.475114
v -0.842743 0.004421 0.453626
v -0.876477 0.060258 0.498469
v -0.876477 0.029517 0.486256
v -0.876477 0.007816 0.461292
v 0.446938 0.004421 0.453626
v 0.443668 0.017215 0.475114
v 0.441335 0.036381 0.490533
v 0.442534 0.060258 0.498469
v -0.861289 0.060200 0.465658
v -0.596442 0.102954 0.392000
v -0.622024 0.139515 0.392000
v -0.657810 0.166170 0.392000
v -0.700166 0.180211 0.392000
v -0.744788 0.180211 0.392000
v -0.787143 0.166170 0.392000
v -0.822930 0.139515 0.392000
v -0.848511 0.102954 0.392000
v -0.861289 0.060200 0.392000
v -0.760329 0.060200 0.392000
v -0.700120 0.077556 0.392000
v -0.722477 0.084000 0.392000
v -0.744833 0.077556 0.392000
v -0.876477 0.060200 0.465658
v -0.491022 0.490314 -0.526393
v -0.516840 0.471079 -0.523689
v -0.545033 0.441787 -0.519573
v -0.571965 0.406212 -0.514573
v -0.611581 0.347480 -0.506319
v -0.611581 0.274739 -0.496096
v -0.960896 0.274739 -0.496096
v 0.777205 0.064739 -0.466582
v 0.934243 0.496199 -0.527220
v -0.512985 0.485560 0.558241
v -0.543348 0.464521 0.555284
v -0.576487 0.434790 0.551106
v -0.610588 0.397995 0.545935
v -0.643781 0.356154 0.540054
v -0.643781 0.270258 0.527982
v -0.960896 0.270258 0.527982
v 0.456736 0.102602 0.504420
v 0.484817 0.137332 0.509301
v 0.523249 0.160085 0.512499
v 0.567205 0.168000 0.513611
v 0.611160 0.160085 0.512499
v 0.649592 0.137332 0.509301
v 0.677673 0.102602 0.504420
v 0.691875 0.060258 0.498469
v 0.777205 0.060258 0.498469
v -0.744820 0.077564 0.000000
v -0.722476 0.084000 0.000000
v -0.700132 0.077563 0.000000
v 0.693201 0.042951 0.406000
v 0.685351 0.085789 0.406000
v 0.663386 0.123395 0.406000
v 0.629930 0.151277 0.406000
v 0.588980 0.166104 0.406000
v 0.545429 0.166104 0.406000
v 0.504479 0.151277 0.406000
v 0.471024 0.123395 0.406000
v 0.449058 0.085789 0.406000
v 0.441208 0.042951 0.406000
v 0.687471 0.004421 0.453626
v 0.690741 0.017215 0.475114
v 0.693074 0.036381 0.490533
v 0.706017 0.060200 0.465658
v 0.706017 0.060200 0.392000
v 0.693239 0.102954 0.392000
v 0.667658 0.139515 0.392000
v 0.631871 0.166170 0.392000
v 0.589516 0.180211 0.392000
v 0.544893 0.180211 0.392000
v 0.502538 0.166170 0.392000
v 0.466752 0.139515 0.392000
v 0.441170 0.102954 0.392000
v 0.777205 0.060200 0.465658
v 0.781940 0.060200 0.465349
v 0.786596 0.060200 0.464429
v 0.791093 0.060200 0.462913
v 0.803126 0.060200 0.455038
v 0.811083 0.060200 0.443393
v 0.813864 0.060200 0.429590
v 0.826205 0.060200 0.430147
v 0.826205 0.060200 -0.430147
v 0.813864 0.060200 -0.429589
v 0.811083 0.060200 -0.443393
v 0.803126 0.060200 -0.455037
v 0.791093 0.060200 -0.462912
v 0.786596 0.060200 -0.464429
v 0.781940 0.060200 -0.465349
v 0.777205 0.060200 -0.465657
v -0.876477 0.007815 -0.461291
v -0.876477 0.029517 -0.486256
v 0.777205 0.063214 0.466336
v 0.777205 0.061700 0.466028
v 0.826205 0.052166 0.429150
v 0.967522 0.482374 0.488922
v 0.997780 0.471361 0.488922
v 0.842983 0.046059 0.429150
v 0.777205 0.061700 -0.466027
v 0.777205 0.063214 -0.466336
v 0.786604 0.061571 -0.464779
v 0.781946 0.063094 -0.466010
v 0.826205 0.052165 -0.429150
v 0.842983 0.046058 -0.429150
v -0.876477 0.032200 -0.429150
v -0.876477 0.032200 0.429150
v -0.876477 0.035739 0.445120
v -0.876477 0.045694 0.458099
v -0.876477 0.045694 -0.458099
v -0.876477 0.035739 -0.445120
v -0.570114 0.408958 0.442644
v -0.570114 0.408957 -0.442643
v -0.596809 0.426964 -0.442643
v -0.596809 0.426964 0.442644
v -0.249214 0.884712 0.346190
v -0.275909 0.902718 0.346190
v -0.249214 0.884712 -0.346190
v -0.275909 0.902717 -0.346190
v -0.611581 0.295776 0.493015
v -0.611581 0.311821 0.479066
v -0.611581 0.317800 0.458664
v -0.611581 0.317800 -0.458663
v -0.611581 0.311821 -0.479066
v -0.611581 0.295775 -0.493014
v -0.201185 0.926951 -0.422877
v -0.212486 0.931485 -0.409599
v -0.217899 0.931138 -0.392419
v -0.389520 0.669022 -0.470676
v -0.378218 0.664489 -0.483953
v 0.950608 0.496185 0.521814
v 0.963736 0.488240 0.508207
v 0.962219 0.481744 0.507142
v 0.949291 0.484535 0.520765
v 0.786604 0.061572 0.464780
v 0.781946 0.063094 0.466010
v 0.884820 0.269093 0.477256
v 0.871893 0.271883 0.490879
v -0.876477 0.061700 0.466028
v -0.876477 0.063214 0.466336
v -0.995968 0.265901 0.458664
v -0.990685 0.265471 0.476840
v -0.977927 0.268686 0.490456
v -0.893507 0.058686 0.460943
v -0.906265 0.055471 0.447327
v -0.911549 0.055901 0.429150
v -0.891064 0.035128 0.429150
v -0.903391 0.043459 0.429150
v -0.889001 0.052559 0.460260
v -0.895405 0.042463 0.446822
v -0.960896 0.295776 0.493015
v -0.960896 0.311821 0.479066
v -0.960896 0.317800 0.458664
v -0.997339 0.290038 0.458664
v -0.983802 0.310069 0.458664
v -0.976969 0.310212 0.474718
v -0.991160 0.302396 0.462037
v -0.980624 0.291474 0.488796
v -0.994558 0.284976 0.475125
v 0.937753 0.519672 0.522062
v 0.956359 0.511986 0.518137
v 0.969488 0.504042 0.504530
v 0.973274 0.498176 0.485245
v -0.891064 0.035128 -0.429150
v -0.903391 0.043458 -0.429150
v -0.911549 0.055901 -0.429150
v -0.695343 0.047580 -0.203000
v -0.995968 0.265901 -0.458663
v -0.997339 0.290038 -0.458663
v -0.983802 0.310069 -0.458663
v -0.960896 0.317800 -0.458663
v -0.960896 0.311821 -0.479066
v -0.960896 0.295775 -0.493014
v -0.906265 0.055470 -0.447326
v -0.893507 0.058685 -0.460943
v -0.977927 0.268685 -0.490456
v -0.990685 0.265471 -0.476840
v 0.967522 0.482374 -0.488922
v 0.963309 0.484741 -0.507563
v 0.951198 0.489772 -0.521501
v 0.873013 0.274962 -0.491312
v 0.885940 0.272171 -0.477689
v -0.889001 0.052559 -0.460259
v -0.895405 0.042463 -0.446822
v -0.980624 0.291474 -0.488796
v -0.994558 0.284976 -0.475125
v -0.976969 0.310212 -0.474718
v -0.991160 0.302396 -0.462037
v -0.217899 0.931138 0.392419
v -0.212486 0.931485 0.409599
v -0.201185 0.926951 0.422877
v -0.186561 0.918568 0.429235
v -0.389520 0.669022 0.470676
v -0.378218 0.664489 0.483954
v 0.758615 0.947800 0.392419
v 0.758615 0.944080 0.408772
v 0.758615 0.933652 0.421906
v 0.758615 0.918568 0.429235
v -0.186561 0.933652 0.421906
v -0.186561 0.944080 0.408772
v -0.186561 0.947800 0.392419
v -0.209485 0.940056 0.392419
v -0.198660 0.945812 0.392419
v -0.200829 0.935723 0.416160
v 0.958601 0.650561 0.457323
v 0.953096 0.651272 0.474592
v 0.941398 0.647336 0.487885
v 0.926200 0.639660 0.494139
v 0.773813 0.926244 0.422981
v 0.785511 0.930180 0.409688
v 0.791016 0.929469 0.392419
v 0.946005 0.560227 0.512624
v 0.942038 0.601424 0.503037
v 0.974972 0.614652 0.463903
v 0.983088 0.576014 0.470983
v 0.982572 0.536549 0.478214
v 0.952239 0.592375 0.504222
v 0.952790 0.543200 0.515572
v 0.971198 0.537918 0.505937
v 0.975086 0.536215 0.501375
v 0.954514 0.570569 0.509255
v 0.972819 0.568666 0.499361
v 0.976760 0.567702 0.494848
v 0.944927 0.618743 0.498134
v 0.961559 0.622521 0.487823
v 0.965258 0.622864 0.483391
v 0.973912 0.592709 0.489658
v 0.970025 0.593083 0.494133
v 0.771336 0.945595 0.392419
v 0.782574 0.939237 0.392419
v 0.773565 0.935309 0.416185
v -0.209485 0.940056 -0.392419
v -0.198660 0.945812 -0.392419
v -0.186561 0.947800 -0.392419
v 0.758615 0.947800 -0.392419
v 0.771336 0.945595 -0.392419
v 0.782574 0.939237 -0.392419
v 0.791016 0.929469 -0.392419
v 0.785511 0.930180 -0.409688
v 0.773813 0.926244 -0.422981
v 0.941398 0.647336 -0.487884
v 0.953096 0.651272 -0.474592
v 0.958601 0.650561 -0.457323
v 0.956359 0.511986 -0.518137
v 0.969488 0.504041 -0.504530
v 0.973274 0.498176 -0.485245
v 0.982537 0.536546 -0.478214
v 0.983063 0.576016 -0.470982
v 0.975006 0.614660 -0.463901
v 0.952239 0.592374 -0.504222
v 0.975086 0.536215 -0.501375
v 0.971198 0.537918 -0.505937
v 0.952790 0.543199 -0.515572
v 0.976760 0.567702 -0.494848
v 0.972819 0.568666 -0.499361
v 0.954514 0.570569 -0.509255
v 0.973912 0.592709 -0.489658
v 0.970025 0.593083 -0.494133
v 0.965258 0.622863 -0.483391
v 0.961559 0.622521 -0.487823
v 0.944927 0.618743 -0.498134
v -0.186561 0.944080 -0.408772
v -0.186561 0.933651 -0.421906
v 0.758615 0.933651 -0.421906
v 0.758615 0.944080 -0.408772
v -0.200829 0.935723 -0.416160
v 0.773565 0.935308 -0.416185
v 1.003532 0.487163 0.485245
v 0.997780 0.471361 -0.488922
v 0.818617 0.946053 0.392419
v 0.986201 0.667145 0.457323
v 1.005633 0.624751 0.463900
v 1.015230 0.579115 0.470980
v 1.014517 0.532485 0.478214
v 0.818617 0.946053 -0.392419
v 0.986201 0.667145 -0.457323
v 1.003532 0.487163 -0.485245
v 1.014517 0.532485 -0.478214
v 1.015230 0.579114 -0.470980
v 1.005633 0.624751 -0.463900
v 0.930575 0.499586 -0.559745
v 0.931830 0.498995 -0.559814
v 0.932285 0.498573 -0.559877
v 0.932488 0.498070 -0.559970
v 0.932178 0.498073 -0.559987
v 0.931868 0.498075 -0.559997
v 0.931357 0.498906 -0.559854
v 0.931300 0.498814 -0.559874
v 0.930955 0.498262 -0.559974
v -0.480327 0.498075 -0.559997
v -0.480596 0.498073 -0.559990
v -0.480864 0.498070 -0.559978
v -0.480784 0.498496 -0.559866
v -0.480509 0.498844 -0.559787
v -0.479737 0.499343 -0.559697
v -0.477872 0.499898 -0.559641
v -0.479887 0.498194 -0.559973
v -0.478313 0.498345 -0.559958
v -0.478652 0.499139 -0.559795
v -0.478708 0.499271 -0.559763
v -0.480596 0.498360 -0.559913
v -0.480526 0.498329 -0.559924
v -0.480374 0.498601 -0.559859
v -0.480304 0.498543 -0.559878
v -0.480109 0.498140 -0.559983
v -0.643781 0.357324 -0.530140
v -0.244594 0.949144 -0.392419
v -0.234571 0.949786 -0.424234
v -0.213642 0.941391 -0.448822
v -0.186561 0.925866 -0.460598
v 0.956477 0.477523 0.552048
v 0.977445 0.472032 0.536812
v 0.991904 0.469875 0.514715
v 0.994322 0.478994 0.516312
v 0.980429 0.489357 0.539117
v 0.958428 0.500716 0.553516
v 0.958721 0.490298 0.553428
v 0.801679 0.052220 0.492276
v 0.822648 0.046730 0.477039
v 0.837106 0.044573 0.454942
v 0.777205 0.007816 0.461292
v 0.777205 0.029517 0.486256
v 0.804930 0.005725 0.429150
v 0.828121 0.021963 0.429150
v 0.825053 0.029792 0.460675
v 0.811688 0.047298 0.485679
v 0.788525 0.031239 0.486329
v 0.799221 0.011899 0.461392
v -0.985002 0.261449 0.521709
v -1.005674 0.255283 0.506455
v -1.019967 0.252638 0.484392
v -1.025845 0.253891 0.458664
v -0.941425 0.043891 0.429150
v -0.935548 0.042638 0.454878
v -0.921255 0.045283 0.476941
v -0.900583 0.051449 0.492196
v -0.926318 0.020849 0.429150
v -0.903490 0.005422 0.429150
v -0.897941 0.011691 0.461389
v -0.887533 0.031163 0.486329
v -0.910273 0.046391 0.485722
v -0.923350 0.028692 0.460718
v -0.960896 0.350000 0.458664
v -0.960896 0.343697 0.487692
v -0.960896 0.325924 0.511493
v -0.960896 0.299881 0.525781
v -0.643781 0.299881 0.525781
v -0.643781 0.325924 0.511493
v -0.643781 0.343697 0.487692
v -0.643781 0.350000 0.458664
v -0.993732 0.341821 0.458664
v -1.018895 0.319194 0.458664
v -1.030503 0.287408 0.458664
v -0.988334 0.293052 0.521726
v -1.011389 0.285189 0.506867
v -1.026054 0.276464 0.484000
v -0.988339 0.322018 0.507463
v -1.011394 0.315028 0.492175
v -1.026059 0.302219 0.471318
v -0.978674 0.342575 0.484517
v -1.001437 0.336204 0.468537
v 1.000074 0.494795 0.512635
v 0.986181 0.505159 0.535439
v 0.964179 0.516517 0.549839
v 0.804930 0.005725 -0.429150
v 0.828121 0.021963 -0.429150
v 0.593516 0.051577 0.203000
v 0.557891 0.016021 -0.203000
v -0.941425 0.043891 -0.429150
v -0.926318 0.020849 -0.429150
v -0.903490 0.005422 -0.429150
v 0.605056 0.060200 0.000000
v -0.704852 0.063242 -0.189000
v -1.025845 0.253891 -0.458663
v -0.960896 0.350000 -0.458663
v -0.993732 0.341821 -0.458663
v -1.018895 0.319194 -0.458663
v -1.030503 0.287408 -0.458663
v -0.643781 0.350000 -0.458663
v -0.960896 0.299881 -0.525781
v -0.960896 0.325924 -0.511493
v -0.960896 0.343697 -0.487692
v -0.643781 0.343697 -0.487692
v -0.643781 0.325924 -0.511493
v -0.643781 0.299881 -0.525781
v -0.900583 0.051449 -0.492196
v -0.921255 0.045283 -0.476941
v -0.935548 0.042638 -0.454878
v -1.019967 0.252638 -0.484392
v -1.005674 0.255283 -0.506454
v -0.985002 0.261449 -0.521709
v 0.960256 0.487906 -0.553507
v 0.980313 0.479909 -0.537919
v 0.993448 0.474118 -0.515311
v 0.837106 0.044573 -0.454942
v 0.822648 0.046729 -0.477039
v 0.801679 0.052220 -0.492276
v 0.799221 0.011899 -0.461392
v 0.788525 0.031238 -0.486328
v 0.811688 0.047297 -0.485678
v 0.825053 0.029792 -0.460674
v -0.897941 0.011691 -0.461389
v -0.887533 0.031162 -0.486329
v -0.923350 0.028692 -0.460718
v -0.910273 0.046391 -0.485722
v -1.026054 0.276464 -0.484000
v -1.011389 0.285189 -0.506867
v -0.988334 0.293052 -0.521726
v -1.026059 0.302219 -0.471318
v -1.011394 0.315028 -0.492174
v -0.988339 0.322018 -0.507463
v -1.001437 0.336204 -0.468537
v -0.978674 0.342574 -0.484517
v -0.213642 0.941391 0.448822
v -0.234571 0.949786 0.424234
v -0.244594 0.949144 0.392419
v -0.643781 0.357324 0.530140
v 0.758615 0.953799 0.447024
v 0.758615 0.973111 0.422702
v 0.758615 0.980000 0.392419
v -0.186561 0.980000 0.392419
v -0.186561 0.973111 0.422702
v -0.186561 0.953799 0.447024
v -0.208966 0.976318 0.392419
v -0.229013 0.965659 0.392419
v -0.205174 0.970200 0.422909
v -0.197654 0.952024 0.447292
v -0.227138 0.958600 0.422279
v 0.954344 0.661173 0.513919
v 0.976008 0.668462 0.489303
v 0.808423 0.947370 0.424399
v 0.786759 0.940081 0.449014
v 0.960862 0.589280 0.537160
v 1.011662 0.537792 0.499468
v 1.002190 0.543449 0.518604
v 0.994883 0.546362 0.527128
v 0.979236 0.551006 0.538530
v 0.960829 0.554867 0.545052
v 1.011495 0.583547 0.491584
v 1.001616 0.586941 0.510260
v 0.994278 0.588193 0.518675
v 0.978832 0.589380 0.530164
v 1.001331 0.627990 0.483913
v 0.991581 0.629023 0.502170
v 0.984576 0.628648 0.510485
v 0.970061 0.626553 0.522051
v 0.953348 0.622770 0.529477
v 0.802983 0.964143 0.392419
v 0.782173 0.975917 0.392419
v 0.770247 0.951841 0.447319
v 0.778172 0.969888 0.422931
v 0.800985 0.957082 0.422220
v -0.186561 0.980000 -0.392419
v -0.208966 0.976318 -0.392419
v -0.229013 0.965658 -0.392419
v 0.758615 0.980000 -0.392419
v 0.802983 0.964143 -0.392419
v 0.782173 0.975917 -0.392419
v 0.758615 0.925866 -0.460598
v 0.786759 0.940081 -0.449014
v 0.808423 0.947370 -0.424399
v 0.976008 0.668462 -0.489303
v 0.954344 0.661173 -0.513918
v 0.926200 0.646958 -0.525501
v 1.000074 0.494795 -0.512635
v 0.986181 0.505158 -0.535439
v 0.964179 0.516517 -0.549839
v 0.937753 0.526969 -0.553423
v 0.946005 0.567525 -0.543986
v 0.942038 0.608721 -0.534399
v 0.960829 0.554866 -0.545052
v 0.953349 0.622770 -0.529477
v 0.979237 0.551006 -0.538530
v 0.994883 0.546362 -0.527128
v 1.002191 0.543448 -0.518603
v 1.011662 0.537792 -0.499468
v 0.960863 0.589280 -0.537160
v 0.978833 0.589380 -0.530164
v 0.994278 0.588193 -0.518675
v 1.001617 0.586941 -0.510259
v 1.011495 0.583547 -0.491584
v 0.970061 0.626553 -0.522051
v 0.984576 0.628648 -0.510485
v 0.991582 0.629023 -0.502169
v 1.001331 0.627989 -0.483913
v -0.186561 0.953799 -0.447024
v -0.186561 0.973111 -0.422702
v 0.758615 0.973111 -0.422702
v 0.758615 0.953799 -0.447024
v -0.197654 0.952024 -0.447292
v -0.205174 0.970199 -0.422909
v -0.227138 0.958600 -0.422279
v 0.778172 0.969888 -0.422931
v 0.770247 0.951841 -0.447319
v 0.800985 0.957082 -0.422220
v -0.760320 0.060218 0.007000
v -0.722476 0.084000 -0.196000
v -0.244594 0.949144 -0.000000
v -0.960896 0.317800 0.000000
v -0.743926 0.024002 0.203000
v -0.698682 0.055888 -0.203000
v -0.704845 0.063233 -0.189000
v -0.727339 0.014425 0.203000
v -0.684625 0.060200 0.000000
v 0.529353 0.060200 0.000000
v 0.597307 0.068880 0.000000
v 0.605055 0.060202 0.000000
v 0.597307 0.068880 -0.199500
v -0.692373 0.068878 0.000000
v -0.700138 0.077567 -0.196000
v 0.813864 0.060200 0.000000
v -0.876477 0.032200 0.000000
v -0.596809 0.426964 0.000000
v -0.692378 0.068881 -0.189000
v 0.543371 0.028085 -0.203000
v 0.581205 0.066249 0.203000
v -1.025845 0.253891 0.000000
v 0.698950 0.060200 0.000000
v -0.891064 0.035128 0.000000
v -0.611581 0.317800 0.000000
v -0.903391 0.043459 0.000000
v -0.911549 0.055901 0.000000
v -0.854222 0.060200 0.000000
v -0.876477 -0.000000 0.000000
v -0.217899 0.931138 0.000000
v -0.186561 0.947800 0.000000
v 0.828121 0.021963 0.000000
v -0.941425 0.043891 0.000000
v -0.208966 0.976318 0.000000
v 0.802983 0.964143 0.000000
v 0.540003 0.046661 -0.203000
v 0.562342 0.069575 0.203000
v -0.692391 0.068907 -0.189000
v -0.698682 0.055888 -0.189000
v -0.708477 0.017751 0.203000
v -0.743840 0.060099 -0.203000
v -0.590731 0.060200 0.000000
v 0.448411 -0.000000 0.000000
v 0.544849 0.077556 0.192500
v 0.826205 0.060200 0.000000
v 0.741611 0.060200 0.000000
v 0.842983 0.046059 0.000000
v -0.876477 0.033970 -0.007985
v -0.643781 0.350000 0.000000
v -0.692387 0.068898 -0.189000
v -0.229013 0.965659 0.000000
v 0.782173 0.975917 0.000000
v 0.818617 0.946053 0.000000
v 0.549363 0.063055 -0.203000
v -0.750454 0.042792 -0.203000
v -0.704860 0.063250 -0.189000
v -0.696165 0.032423 0.203000
v 0.567205 0.084000 0.192500
v -0.752574 0.068882 0.196000
v -0.692391 0.068907 -0.196000
v 0.795534 0.060200 0.000000
v 0.777205 0.060200 0.000000
v -0.876477 0.040716 0.000000
v -0.876477 0.035739 0.000000
v -0.249214 0.884712 0.000000
v -0.903490 0.005422 0.000000
v -0.743840 0.060099 -0.189000
v 0.539205 0.042000 0.203000
v 0.545755 0.059998 0.203000
v -0.700126 0.077559 0.196000
v 0.545755 0.024002 0.203000
v 0.584842 0.063227 -0.203000
v 0.567071 0.069597 -0.203000
v -0.696165 0.051577 0.203000
v -0.744800 0.025161 -0.203000
v -0.743833 0.060108 -0.189000
v 0.529354 0.060203 0.000000
v 0.589560 0.077556 0.192500
v 0.537103 0.068882 -0.199500
v -0.611581 0.347480 0.000000
v -0.692383 0.068890 -0.189000
v -0.876477 0.045694 0.000000
v -0.275909 0.902718 0.000000
v -0.611581 0.332640 0.000000
v -0.926318 0.020849 0.000000
v -0.995968 0.265901 0.000000
v 0.758615 0.947800 0.000000
v -0.960896 0.350000 0.000000
v 0.758615 0.980000 0.000000
v -0.708477 0.066249 0.203000
v -0.711514 0.067552 -0.203000
v -0.729384 0.014948 -0.203000
v -0.743825 0.060117 -0.189000
v -0.603683 -0.000000 0.000000
v -0.209485 0.940056 -0.000000
v 0.544851 0.077557 -0.199500
v -0.752561 0.068909 -0.189000
v -0.722476 0.084000 0.196000
v -0.760315 0.060227 0.007000
v 0.562342 0.014425 0.203000
v 0.594360 0.046924 -0.203000
v -0.186561 0.980000 0.000000
v 0.771336 0.945595 0.000000
v 0.791016 0.929469 0.000000
v -0.744826 0.077560 0.196000
v -0.735524 0.064914 -0.189000
v 0.591171 0.028317 -0.203000
v 0.804930 0.005725 0.000000
v 0.567206 0.084000 -0.199500
v 0.777205 -0.000000 0.000000
v 0.581205 0.017751 0.203000
v -0.711000 0.016611 -0.203000
v -0.727339 0.069575 0.203000
v 0.685998 -0.000000 0.000000
v -0.841271 -0.000000 0.000000
v -0.728869 0.069215 -0.203000
v -0.868883 0.060200 0.000000
v -0.760329 0.060200 0.000000
v -0.876477 0.060200 0.000000
v -0.752561 0.068909 -0.196000
v -0.643781 0.357324 0.000000
v 0.782574 0.939237 -0.000000
v 0.576769 0.016112 -0.203000
v 0.537102 0.068878 0.192500
v -0.643781 0.353662 -0.035738
v -0.750477 0.042000 0.203000
v -0.697722 0.029372 -0.203000
v -0.743926 0.059998 0.203000
v 0.435459 0.060200 0.000000
v 0.589560 0.077556 -0.199500
v -0.760324 0.060209 0.007000
v -0.744813 0.077568 -0.196000
v -0.198660 0.945812 0.000000
v 0.826205 0.052165 0.000000
v -0.570114 0.408958 0.000000
v 0.593516 0.032423 0.203000
v -0.997339 0.290038 0.000000
v -0.983802 0.310069 0.000000
v -0.993732 0.341821 0.000000
v -1.018895 0.319194 0.000000
v -1.030503 0.287408 0.000000
v 0.291171 0.920062 0.461948
v 0.291171 0.933652 0.421906
v 0.291171 0.918568 0.429235
v 0.291171 0.973111 -0.422702
v 0.291171 0.925866 -0.460598
v 0.469170 0.916413 0.429737
v 0.291171 0.947800 -0.392419
v 0.469170 0.916413 -0.429737
v 0.291171 0.944080 0.408772
v 0.291171 0.947800 0.392419
v 0.291171 0.944080 -0.408772
v 0.291171 0.980000 0.392419
v 0.291171 0.925866 0.460598
v 0.291171 0.933651 -0.421906
v 0.291171 0.918567 -0.429236
v 0.291171 0.980000 -0.392419
v 0.291171 0.920062 -0.461948
v 0.291171 0.953799 -0.447024
v 0.291171 0.953799 0.447024
v 0.291171 0.973111 0.422702
v 0.291171 0.947800 0.000000
v 0.291171 0.980000 0.000000
v -0.077041 0.048291 -0.494497
v -0.077636 0.060200 -0.406000
v -0.077636 0.060200 0.392000
v -0.077636 0.000000 0.406000
v -0.125004 0.074258 -0.500436
v -0.125004 0.074258 -0.467920
v -0.078372 0.002208 -0.441381
v -0.077636 -0.000000 -0.429150
v -0.079269 0.010808 -0.464359
v -0.077638 0.060229 -0.465665
v -0.077636 0.060200 0.465658
v -0.077636 0.000000 0.429150
v -0.076900 0.002211 0.441388
v -0.078236 0.048320 0.494501
v -0.077636 0.060258 0.498469
v -0.076469 0.026798 0.482824
v -0.076001 0.010818 0.464370
v -0.077636 0.060258 -0.498469
v -0.084702 0.060205 -0.465659
v -0.078802 0.026778 -0.482813
v -0.077636 -0.000000 -0.406000
v -0.077636 0.060200 -0.465657
v -0.077636 0.064739 0.466582
v -0.125004 0.074258 0.467920
v -0.077640 0.060234 -0.498465
v -0.077636 0.064739 -0.466582
v -0.125004 0.074258 0.500436
v -0.077636 0.060200 0.000000
v -0.077636 -0.000000 0.000000
s 0
f 415 509 557
f 36 12 11
f 88 673 89
f 13 11 12
f 9 10 11
f 630 635 629
f 1 16 15
f 28 19 26
f 26 19 15
f 26 15 22
f 22 15 21
f 21 15 20
f 20 15 16
f 22 23 26
f 742 740 739
f 26 27 28
f 437 194 317
f 29 30 33
f 33 30 31
f 33 31 32
f 551 286 284
f 40 38 39
f 992 285 969
f 1015 195 751
f 102 700 103
f 556 507 555
f 766 768 765
f 764 795 765
f 18 29 17
f 44 41 43
f 360 559 567
f 51 6 5
f 5 1028 1035
f 16 1026 582
f 49 17 48
f 48 17 47
f 47 17 46
f 370 382 383
f 86 43 83
f 83 43 41
f 83 41 82
f 82 41 81
f 81 41 80
f 80 41 79
f 79 41 78
f 78 41 40
f 78 40 69
f 69 40 68
f 68 40 67
f 1060 40 1047
f 35 1047 1048
f 1068 35 1048
f 66 34 65
f 65 34 64
f 64 34 63
f 63 34 33
f 63 33 62
f 62 33 56
f 62 56 61
f 61 56 60
f 60 56 57
f 60 57 59
f 59 57 58
f 33 53 56
f 56 53 55
f 55 53 54
f 69 70 78
f 78 70 71
f 78 71 77
f 77 71 72
f 77 72 73
f 73 74 77
f 77 74 76
f 76 74 75
f 83 84 86
f 86 84 85
f 22 104 23
f 441 196 440
f 368 282 281
f 92 44 91
f 552 570 553
f 90 43 86
f 694 44 92
f 99 2 1
f 1033 1021 98
f 174 75 173
f 97 15 96
f 96 15 95
f 95 15 94
f 43 91 44
f 20 135 21
f 21 136 22
f 28 102 103
f 13 12 133
f 133 12 132
f 132 12 131
f 131 12 130
f 130 12 128
f 130 128 129
f 12 37 128
f 128 37 118
f 128 118 119
f 37 116 117
f 37 117 118
f 25 1066 1069
f 115 24 114
f 114 24 113
f 113 24 112
f 112 24 23
f 112 23 111
f 111 23 110
f 110 23 104
f 110 104 109
f 109 104 108
f 108 104 105
f 108 105 107
f 107 105 106
f 119 120 128
f 128 120 121
f 128 121 127
f 127 121 122
f 127 122 123
f 123 124 127
f 127 124 126
f 126 124 125
f 27 101 102
f 476 787 477
f 31 89 32
f 14 13 137
f 137 13 133
f 153 138 147
f 147 138 139
f 147 139 146
f 146 139 140
f 146 140 145
f 834 803 802
f 149 151 152
f 147 148 153
f 144 140 141
f 989 317 993
f 142 141 174
f 174 141 157
f 67 162 163
f 159 152 158
f 156 140 155
f 155 140 139
f 155 139 154
f 67 165 68
f 75 172 173
f 68 166 69
f 69 167 70
f 227 63 62
f 227 61 226
f 228 64 63
f 229 65 64
f 230 66 65
f 164 67 163
f 625 645 644
f 162 158 152
f 219 182 218
f 153 159 160
f 161 138 160
f 160 138 153
f 152 151 162
f 449 433 432
f 57 175 176
f 57 176 58
f 687 686 685
f 182 178 181
f 564 629 628
f 184 67 1060
f 448 706 449
f 1049 187 188
f 2 14 3
f 188 1050 1049
f 1051 186 187
f 1043 186 1062
f 930 691 882
f 973 139 138
f 959 497 1014
f 729 733 728
f 718 714 715
f 728 734 727
f 735 1019 736
f 764 78 77
f 897 496 1014
f 986 200 201
f 899 203 204
f 752 202 203
f 980 199 200
f 654 836 815
f 952 206 207
f 1002 201 202
f 933 205 206
f 915 204 205
f 180 217 181
f 181 217 218
f 181 218 182
f 187 235 236
f 183 219 221
f 221 219 220
f 183 221 175
f 362 375 363
f 176 222 58
f 58 222 223
f 837 875 838
f 611 606 612
f 875 839 838
f 742 738 741
f 70 168 71
f 226 60 225
f 225 59 224
f 224 58 223
f 66 231 232
f 218 243 219
f 232 184 66
f 234 235 233
f 233 235 186
f 233 186 185
f 758 790 773
f 187 236 188
f 188 236 237
f 188 237 189
f 172 171 238
f 655 827 656
f 241 170 166
f 166 170 167
f 167 170 169
f 167 169 168
f 241 166 240
f 170 238 171
f 239 165 164
f 207 242 199
f 199 242 243
f 199 243 200
f 157 76 75
f 364 377 365
f 207 228 227
f 229 206 245
f 245 206 205
f 245 205 244
f 244 205 204
f 34 29 33
f 156 141 140
f 237 203 202
f 237 202 217
f 217 202 201
f 563 565 566
f 243 220 219
f 235 234 244
f 231 230 245
f 245 230 229
f 227 226 207
f 965 530 906
f 242 225 224
f 242 224 223
f 247 248 246
f 246 248 260
f 260 248 259
f 259 248 249
f 259 249 254
f 254 249 250
f 254 250 253
f 253 250 251
f 253 251 252
f 254 255 259
f 259 255 258
f 258 255 257
f 257 255 256
f 261 262 246
f 246 239 164
f 163 263 164
f 164 263 247
f 164 247 246
f 232 264 233
f 264 162 1064
f 1061 1052 263
f 162 263 163
f 236 244 204
f 970 935 285
f 324 723 722
f 1063 161 1050
f 267 285 935
f 757 268 886
f 169 73 72
f 918 150 885
f 885 149 551
f 309 921 888
f 527 543 542
f 970 291 995
f 354 253 353
f 786 754 788
f 776 57 56
f 920 270 946
f 271 290 946
f 955 272 972
f 746 819 747
f 262 239 246
f 985 995 291
f 1046 973 1071
f 1036 981 1042
f 969 284 953
f 967 537 883
f 914 654 932
f 950 192 979
f 293 294 292
f 292 294 306
f 306 294 305
f 305 294 295
f 305 295 300
f 300 295 296
f 300 296 299
f 299 296 297
f 299 297 298
f 300 301 305
f 305 301 304
f 304 301 303
f 303 301 302
f 222 307 223
f 223 307 293
f 223 293 292
f 292 242 223
f 1053 313 1045
f 934 290 283
f 329 907 997
f 308 151 150
f 308 150 269
f 756 220 243
f 154 139 325
f 666 669 671
f 324 322 323
f 887 289 884
f 990 194 1015
f 759 767 766
f 590 609 591
f 317 315 316
f 979 193 990
f 180 179 217
f 1044 233 1064
f 262 261 267
f 267 261 326
f 267 326 268
f 268 326 327
f 268 327 269
f 269 327 308
f 328 273 331
f 331 273 272
f 331 272 330
f 330 272 271
f 330 271 270
f 270 329 330
f 307 332 293
f 125 402 403
f 447 315 705
f 859 865 860
f 841 877 842
f 889 234 1008
f 122 399 400
f 123 400 401
f 114 458 459
f 332 294 293
f 302 265 264
f 232 231 264
f 264 231 302
f 302 231 303
f 303 231 245
f 242 292 243
f 292 344 756
f 891 292 890
f 343 890 957
f 516 547 481
f 977 436 435
f 923 342 937
f 304 958 975
f 892 1009 345
f 698 747 699
f 245 244 303
f 244 889 956
f 303 956 958
f 1003 341 923
f 263 266 247
f 265 301 340
f 836 834 816
f 643 642 641
f 338 298 337
f 110 456 111
f 350 251 250
f 349 250 249
f 348 249 248
f 266 248 247
f 256 356 357
f 172 238 257
f 257 273 328
f 257 256 172
f 172 256 357
f 172 357 173
f 173 357 174
f 174 357 361
f 361 357 360
f 360 357 359
f 394 524 125
f 364 279 363
f 318 190 446
f 275 322 276
f 276 322 321
f 276 321 277
f 277 321 278
f 445 190 198
f 279 362 363
f 439 195 438
f 280 364 365
f 443 198 197
f 282 369 370
f 32 53 33
f 281 366 367
f 367 368 281
f 323 322 386
f 386 322 371
f 386 371 385
f 385 371 384
f 801 799 800
f 438 431 439
f 718 721 726
f 365 378 366
f 380 367 379
f 441 428 442
f 779 750 785
f 439 430 440
f 851 56 852
f 446 393 392
f 374 362 373
f 373 362 321
f 373 321 372
f 372 321 320
f 155 325 476
f 389 386 385
f 156 477 157
f 417 628 46
f 1055 390 1059
f 1059 391 1058
f 392 1057 1056
f 1058 392 1056
f 372 1054 1055
f 394 125 403
f 106 452 107
f 333 295 294
f 108 454 109
f 112 456 457
f 336 298 297
f 335 297 296
f 334 296 295
f 124 401 402
f 310 116 311
f 403 402 404
f 404 402 407
f 407 402 406
f 406 402 401
f 406 401 396
f 396 401 397
f 397 401 400
f 397 400 398
f 398 400 399
f 396 395 406
f 406 395 405
f 405 395 309
f 309 395 310
f 174 361 142
f 907 996 403
f 747 821 748
f 998 403 996
f 403 408 394
f 142 329 143
f 143 329 270
f 42 409 38
f 38 409 410
f 38 410 411
f 42 52 409
f 411 412 38
f 38 412 414
f 38 414 39
f 39 414 349
f 39 349 348
f 412 413 414
f 415 352 414
f 414 352 351
f 414 351 350
f 358 355 415
f 415 355 354
f 415 354 353
f 358 356 355
f 353 352 415
f 350 349 414
f 348 266 39
f 35 265 340
f 35 340 339
f 339 338 35
f 35 338 29
f 29 338 337
f 29 337 336
f 29 336 417
f 417 336 335
f 417 335 334
f 417 334 416
f 416 334 333
f 416 333 332
f 417 45 29
f 10 418 11
f 11 418 419
f 11 419 420
f 420 421 11
f 11 421 423
f 11 423 36
f 36 423 377
f 36 377 376
f 421 422 423
f 424 379 423
f 423 379 378
f 423 378 377
f 387 382 424
f 424 382 381
f 424 381 380
f 387 383 382
f 380 379 424
f 376 375 36
f 25 393 425
f 25 425 426
f 426 427 25
f 25 427 26
f 26 427 428
f 26 428 101
f 101 428 429
f 101 429 430
f 101 430 433
f 433 430 431
f 433 431 432
f 1068 263 1052
f 880 978 328
f 328 978 976
f 976 999 257
f 999 434 1011
f 977 434 984
f 881 258 1011
f 894 436 939
f 939 917 261
f 917 929 326
f 929 960 327
f 960 898 308
f 308 898 893
f 893 309 888
f 330 404 880
f 1010 329 997
f 938 984 434
f 351 252 251
f 881 260 259
f 370 274 282
f 178 783 782
f 191 318 192
f 192 318 317
f 192 317 193
f 193 317 194
f 362 278 321
f 195 437 438
f 30 88 31
f 196 439 440
f 19 103 93
f 198 444 445
f 366 280 365
f 197 441 442
f 442 443 197
f 319 318 390
f 390 318 446
f 390 446 391
f 391 446 392
f 437 432 438
f 363 376 364
f 369 381 382
f 368 380 381
f 427 442 428
f 228 206 229
f 443 427 426
f 444 426 425
f 445 425 393
f 371 383 384
f 449 437 448
f 448 437 317
f 448 317 447
f 447 317 316
f 312 115 313
f 116 395 117
f 107 453 108
f 118 397 119
f 109 455 110
f 120 399 121
f 119 398 120
f 113 457 458
f 117 396 118
f 115 459 313
f 451 106 450
f 313 459 314
f 314 459 341
f 341 459 342
f 342 459 458
f 342 458 453
f 453 458 454
f 454 458 457
f 454 457 455
f 455 457 456
f 453 452 342
f 342 452 343
f 343 452 344
f 344 452 451
f 168 72 71
f 902 451 925
f 451 941 925
f 941 460 940
f 940 466 895
f 954 283 289
f 451 450 460
f 460 461 466
f 466 461 462
f 466 462 463
f 463 464 466
f 466 464 465
f 470 471 469
f 469 471 472
f 469 472 473
f 473 474 469
f 469 474 475
f 475 221 220
f 384 387 388
f 537 540 539
f 476 156 155
f 653 468 489
f 824 820 819
f 450 479 460
f 106 105 478
f 480 467 483
f 951 207 199
f 467 466 481
f 222 221 307
f 307 221 475
f 307 475 484
f 478 450 106
f 332 485 416
f 460 520 461
f 475 416 484
f 484 416 485
f 461 519 462
f 486 473 472
f 806 811 807
f 896 927 495
f 927 492 943
f 943 492 942
f 492 961 942
f 649 620 619
f 7 5 6
f 93 748 94
f 913 805 981
f 623 627 622
f 128 504 129
f 129 504 505
f 129 505 506
f 904 507 963
f 507 959 963
f 413 507 508
f 413 508 509
f 509 414 413
f 512 412 513
f 513 412 411
f 513 411 410
f 513 410 514
f 514 410 409
f 514 409 51
f 51 409 52
f 51 510 514
f 771 775 770
f 513 511 512
f 474 486 487
f 515 136 135
f 135 134 515
f 87 18 852
f 517 516 481
f 481 466 521
f 521 466 465
f 1065 311 116
f 522 464 463
f 522 463 519
f 522 519 104
f 104 519 520
f 104 520 105
f 104 518 522
f 558 552 550
f 521 517 481
f 126 125 524
f 924 480 1013
f 523 394 408
f 463 462 519
f 687 677 678
f 8 17 5
f 105 460 479
f 105 479 478
f 496 501 500
f 511 514 510
f 702 101 433
f 424 738 713
f 532 534 531
f 516 518 515
f 567 558 568
f 494 568 495
f 493 533 408
f 408 533 523
f 631 638 635
f 524 528 126
f 489 1013 926
f 557 508 556
f 317 922 993
f 555 571 556
f 849 777 850
f 415 569 560
f 560 570 561
f 761 794 793
f 543 538 541
f 570 571 572
f 540 541 539
f 538 539 541
f 515 546 516
f 700 747 748
f 591 594 590
f 909 586 573
f 283 884 289
f 905 550 906
f 722 964 945
f 964 753 754
f 324 945 908
f 905 531 903
f 903 491 896
f 901 753 912
f 730 732 729
f 587 910 585
f 947 191 950
f 76 775 77
f 843 847 848
f 704 696 703
f 486 472 565
f 565 472 471
f 522 465 464
f 566 470 562
f 562 470 469
f 562 563 566
f 171 75 74
f 565 564 486
f 200 217 201
f 487 417 416
f 492 531 534
f 548 568 549
f 529 532 530
f 688 684 683
f 127 542 535
f 528 523 533
f 559 359 358
f 494 361 567
f 567 361 360
f 525 543 526
f 242 226 225
f 651 621 620
f 535 540 536
f 998 494 961
f 571 554 572
f 924 469 895
f 554 553 572
f 572 553 570
f 131 130 577
f 577 130 573
f 577 573 574
f 589 594 595
f 578 575 576
f 576 137 578
f 578 137 133
f 578 133 132
f 578 132 577
f 577 132 131
f 1030 580 1029
f 1029 581 1022
f 1023 583 1022
f 598 611 610
f 493 534 533
f 586 574 573
f 584 583 588
f 882 503 962
f 588 575 574
f 503 497 502
f 624 626 623
f 813 98 97
f 850 776 851
f 787 76 477
f 642 640 639
f 639 637 636
f 605 602 596
f 605 596 601
f 601 596 597
f 601 597 608
f 608 597 592
f 17 50 1028
f 629 636 628
f 628 637 46
f 602 544 596
f 626 644 643
f 177 182 183
f 633 641 632
f 611 599 607
f 641 639 638
f 658 746 652
f 657 818 658
f 339 299 338
f 595 594 614
f 847 867 866
f 646 617 650
f 594 593 615
f 648 624 651
f 615 581 580
f 1012 586 974
f 500 573 130
f 500 130 496
f 496 130 129
f 1000 498 690
f 727 1018 735
f 497 413 412
f 497 412 502
f 502 412 512
f 18 1037 843
f 909 500 944
f 916 198 948
f 966 620 982
f 620 1001 982
f 983 614 1001
f 988 345 1009
f 988 304 975
f 696 702 703
f 47 46 637
f 99 9 2
f 533 529 528
f 101 701 102
f 607 600 604
f 638 632 641
f 593 581 615
f 589 610 590
f 546 603 604
f 591 608 592
f 645 49 48
f 645 48 634
f 634 48 47
f 634 47 640
f 640 47 637
f 664 865 869
f 603 607 604
f 487 564 417
f 610 612 609
f 605 612 606
f 601 609 612
f 1034 649 1031
f 618 1031 1027
f 647 1035 1034
f 512 511 616
f 588 586 587
f 584 587 585
f 511 510 650
f 583 575 588
f 650 647 646
f 580 613 615
f 615 614 594
f 621 623 622
f 649 648 651
f 322 908 994
f 651 624 623
f 45 417 46
f 104 515 518
f 826 822 821
f 991 288 287
f 51 42 6
f 3 576 4
f 576 1023 1026
f 545 602 603
f 16 592 597
f 16 597 596
f 366 379 367
f 20 544 134
f 653 630 562
f 488 489 468
f 482 467 481
f 468 562 469
f 482 746 698
f 630 662 631
f 42 7 6
f 740 714 739
f 149 153 148
f 900 197 916
f 844 846 847
f 589 656 598
f 658 547 600
f 657 600 599
f 631 663 632
f 714 720 713
f 54 53 673
f 673 53 89
f 696 698 699
f 87 665 88
f 88 665 671
f 88 671 672
f 672 671 669
f 672 669 670
f 665 666 671
f 510 647 650
f 669 667 668
f 672 670 673
f 673 670 54
f 92 91 680
f 680 91 684
f 680 684 679
f 679 684 687
f 679 687 678
f 91 682 683
f 813 831 830
f 675 685 686
f 675 686 674
f 17 45 46
f 681 688 682
f 681 682 85
f 85 682 86
f 86 682 90
f 222 175 221
f 91 683 684
f 681 85 689
f 689 85 674
f 689 674 681
f 239 166 165
f 688 683 682
f 158 1067 1043
f 54 670 55
f 55 670 669
f 55 669 668
f 85 84 674
f 674 84 675
f 675 84 676
f 92 680 694
f 694 680 679
f 694 679 678
f 678 677 694
f 694 677 83
f 694 83 693
f 693 83 82
f 693 82 81
f 677 676 83
f 83 676 84
f 693 81 692
f 692 81 80
f 692 80 79
f 142 144 141
f 93 103 700
f 470 565 471
f 604 547 546
f 57 183 175
f 440 429 441
f 698 697 482
f 699 700 701
f 483 697 704
f 716 718 715
f 591 582 593
f 358 560 559
f 9 100 10
f 10 100 418
f 315 712 705
f 386 324 323
f 705 448 447
f 179 181 178
f 748 822 94
f 775 791 792
f 179 782 749
f 782 750 749
f 544 16 596
f 704 703 709
f 709 703 710
f 777 781 776
f 711 710 702
f 703 702 710
f 482 547 652
f 558 560 561
f 772 774 771
f 127 528 527
f 57 783 177
f 724 720 725
f 725 720 719
f 725 719 726
f 726 719 718
f 754 772 788
f 708 712 707
f 787 788 789
f 322 274 371
f 325 786 476
f 765 769 764
f 1027 966 1041
f 838 930 913
f 77 792 764
f 356 255 355
f 765 797 766
f 744 728 727
f 727 735 744
f 744 735 745
f 797 794 796
f 792 794 795
f 729 744 741
f 774 790 791
f 576 14 137
f 737 740 743
f 737 743 736
f 685 676 677
f 735 736 745
f 794 790 793
f 527 529 526
f 134 545 515
f 814 654 815
f 660 622 627
f 539 883 537
f 525 1016 538
f 936 287 919
f 987 179 749
f 926 708 911
f 911 749 750
f 554 1016 553
f 346 957 345
f 501 944 500
f 654 983 932
f 148 991 1006
f 277 887 276
f 273 972 272
f 3 1 2
f 833 968 804
f 664 627 633
f 953 286 936
f 948 190 947
f 424 731 730
f 535 128 127
f 1046 319 1054
f 1007 274 1005
f 841 931 914
f 506 928 904
f 814 816 813
f 575 577 574
f 50 625 624
f 751 196 900
f 918 285 886
f 170 74 73
f 864 869 865
f 868 863 867
f 433 711 702
f 783 781 784
f 784 781 780
f 784 780 785
f 785 780 779
f 708 704 709
f 726 724 725
f 709 711 712
f 705 711 706
f 355 254 354
f 387 724 388
f 770 787 789
f 785 783 784
f 789 788 771
f 771 788 772
f 558 549 568
f 389 724 723
f 723 721 722
f 826 829 830
f 771 770 789
f 688 674 686
f 739 713 738
f 633 663 664
f 740 716 715
f 790 762 793
f 485 307 484
f 742 736 743
f 796 761 760
f 796 760 797
f 797 760 759
f 797 759 766
f 762 761 793
f 800 812 809
f 1070 313 1008
f 742 744 745
f 730 741 738
f 100 99 418
f 418 99 798
f 418 798 419
f 419 798 420
f 420 798 799
f 420 799 421
f 421 799 422
f 692 690 691
f 1007 291 992
f 537 505 536
f 798 99 811
f 811 99 807
f 874 871 870
f 638 636 635
f 353 252 352
f 691 876 692
f 799 798 812
f 876 874 693
f 654 589 595
f 424 720 387
f 659 846 845
f 95 94 822
f 855 851 852
f 857 850 851
f 820 747 819
f 864 858 863
f 778 780 777
f 23 25 26
f 644 634 642
f 660 869 846
f 849 859 860
f 663 860 865
f 849 662 661
f 827 814 828
f 602 606 603
f 562 629 563
f 828 814 829
f 650 616 511
f 856 847 866
f 557 571 569
f 817 831 96
f 817 96 95
f 831 97 96
f 817 95 822
f 862 855 861
f 862 867 863
f 802 98 834
f 834 98 816
f 879 878 877
f 836 816 815
f 879 659 845
f 542 541 540
f 971 289 288
f 872 878 873
f 801 734 422
f 422 734 733
f 422 733 732
f 1000 1004 734
f 1004 763 928
f 763 690 79
f 763 79 767
f 767 79 768
f 768 79 769
f 769 79 78
f 732 731 422
f 422 731 423
f 238 273 257
f 503 691 498
f 498 691 690
f 737 1019 1020
f 501 499 800
f 800 499 801
f 758 1020 762
f 536 504 535
f 753 773 772
f 931 840 968
f 321 994 973
f 944 503 502
f 526 530 525
f 517 522 518
f 937 343 957
f 840 877 872
f 487 475 474
f 859 850 858
f 42 41 44
f 821 825 826
f 811 812 798
f 813 829 814
f 204 237 236
f 848 856 854
f 854 856 861
f 854 861 853
f 853 861 855
f 853 855 852
f 1012 618 910
f 867 846 868
f 825 828 829
f 653 779 778
f 868 846 869
f 9 13 14
f 656 823 657
f 653 849 661
f 866 861 856
f 819 823 824
f 817 830 831
f 827 824 823
f 919 288 887
f 1024 873 1038
f 694 1038 1025
f 870 694 874
f 874 694 693
f 695 699 701
f 876 693 692
f 627 643 633
f 809 810 808
f 805 810 806
f 1006 287 286
f 844 843 878
f 878 843 873
f 598 657 599
f 804 835 833
f 835 832 833
f 340 300 339
f 985 290 972
f 845 844 879
f 55 668 56
f 56 668 667
f 56 667 852
f 852 667 666
f 852 666 665
f 665 87 852
f 495 548 490
f 185 232 233
f 356 359 357
f 857 863 858
f 385 388 389
f 7 694 8
f 1037 1025 843
f 15 98 1021
f 18 848 854
f 18 854 853
f 853 852 18
f 15 93 94
f 1005 275 884
f 512 974 909
f 871 1036 1024
f 1040 807 1039
f 1032 806 1040
f 98 1039 1033
f 539 1016 1017
f 1017 555 883
f 1016 552 553
f 1018 761 1019
f 967 760 1018
f 716 1020 901
f 1019 762 1020
f 146 954 971
f 282 992 281
f 1044 1008 234
f 269 886 268
f 213 900 214
f 763 904 928
f 914 833 832
f 290 1005 283
f 216 947 208
f 279 936 278
f 932 622 659
f 707 911 708
f 750 926 911
f 315 987 707
f 278 919 277
f 913 809 808
f 1041 579 1030
f 214 916 215
f 147 971 991
f 139 908 325
f 346 975 347
f 305 1009 306
f 622 1001 621
f 982 614 613
f 579 982 613
f 215 948 216
f 909 502 512
f 499 1000 801
f 617 974 616
f 882 501 800
f 924 466 467
f 493 998 961
f 208 950 209
f 901 717 716
f 548 896 490
f 549 903 548
f 908 755 325
f 717 964 721
f 945 754 755
f 532 906 530
f 993 237 217
f 926 480 483
f 488 924 1013
f 129 963 959
f 506 963 129
f 838 981 837
f 494 942 961
f 495 942 494
f 214 952 951
f 145 934 954
f 469 940 895
f 941 469 475
f 475 925 941
f 220 925 475
f 435 894 881
f 407 938 404
f 308 893 888
f 893 949 405
f 893 898 949
f 898 436 949
f 260 939 246
f 435 1011 434
f 406 984 407
f 999 258 257
f 976 938 434
f 976 978 938
f 978 404 938
f 361 998 996
f 142 996 907
f 347 1003 923
f 958 1003 347
f 958 956 1003
f 956 314 1003
f 306 892 292
f 347 975 958
f 347 937 346
f 406 949 977
f 957 892 345
f 957 890 892
f 890 292 892
f 344 890 343
f 314 1008 313
f 210 990 211
f 211 1015 212
f 276 884 275
f 344 902 756
f 404 907 403
f 144 920 934
f 209 979 210
f 841 932 659
f 555 967 883
f 280 953 279
f 1042 805 1032
f 1071 138 1063
f 273 995 985
f 240 995 241
f 308 921 151
f 284 885 551
f 262 970 240
f 550 965 906
f 208 899 915
f 216 915 933
f 211 986 1002
f 215 933 952
f 213 951 980
f 210 1002 752
f 209 752 899
f 212 980 986
f 498 1014 497
f 959 496 129
f 809 882 800
f 217 989 993
f 212 751 213
f 281 969 280
f 149 1006 551
f 968 1032 804
f 910 1030 585
f 1033 807 99
f 804 1040 803
f 803 1039 802
f 1024 840 872
f 8 1025 1037
f 1025 873 843
f 871 1038 870
f 618 1041 910
f 1034 50 648
f 1027 649 619
f 647 1031 646
f 582 1022 581
f 584 1022 583
f 585 1029 584
f 840 1042 968
f 1 1033 99
f 1057 36 375
f 1065 24 115
f 37 1065 116
f 25 1057 393
f 922 1063 237
f 921 1044 151
f 310 1070 921
f 321 1054 320
f 185 1067 184
f 312 1065 115
f 1068 264 265
f 319 1055 1054
f 374 1056 375
f 375 1056 1057
f 374 1059 1058
f 373 1055 1059
f 151 1064 162
f 311 1045 310
f 318 1071 922
f 237 1050 189
f 158 1062 159
f 159 1051 160
f 161 1049 1050
f 160 1049 161
f 1069 37 36
f 1068 39 266
f 1048 40 39
f 1060 34 66
f 537 734 506
f 763 555 507
f 415 414 509
f 36 37 12
f 88 672 673
f 630 631 635
f 1 4 16
f 742 743 740
f 437 195 194
f 551 1006 286
f 40 41 38
f 992 291 285
f 1015 194 195
f 102 701 700
f 556 508 507
f 766 767 768
f 764 792 795
f 18 30 29
f 360 359 559
f 1035 51 5
f 1028 50 1035
f 582 592 16
f 16 4 1026
f 370 369 382
f 1060 67 40
f 35 34 1047
f 1068 265 35
f 22 136 104
f 441 197 196
f 368 369 282
f 552 561 570
f 694 7 44
f 174 157 75
f 43 90 91
f 20 134 135
f 21 135 136
f 28 27 102
f 25 24 1066
f 27 26 101
f 476 786 787
f 31 88 89
f 834 835 803
f 149 150 151
f 144 145 140
f 989 315 317
f 67 158 162
f 159 153 152
f 67 164 165
f 68 165 166
f 69 166 167
f 227 228 63
f 227 62 61
f 228 229 64
f 229 230 65
f 230 231 66
f 625 49 645
f 219 183 182
f 449 706 433
f 687 688 686
f 564 563 629
f 1060 66 184
f 184 1067 67
f 448 705 706
f 1049 1051 187
f 2 9 14
f 188 189 1050
f 1051 1062 186
f 1043 185 186
f 930 839 691
f 973 994 139
f 959 413 497
f 729 732 733
f 718 719 714
f 728 733 734
f 735 1018 1019
f 764 769 78
f 897 499 496
f 986 980 200
f 899 752 203
f 752 1002 202
f 980 951 199
f 654 832 836
f 952 933 206
f 1002 986 201
f 933 915 205
f 915 899 204
f 187 186 235
f 362 374 375
f 837 871 875
f 611 607 606
f 875 876 839
f 742 739 738
f 70 167 168
f 226 61 60
f 225 60 59
f 224 59 58
f 218 200 243
f 758 762 790
f 655 814 827
f 170 241 238
f 157 477 76
f 364 376 377
f 34 35 29
f 156 157 141
f 563 564 565
f 965 525 530
f 1064 233 264
f 264 1061 162
f 263 162 1061
f 1061 264 1052
f 236 235 244
f 324 389 723
f 1063 138 161
f 935 262 267
f 267 757 285
f 886 285 757
f 757 267 268
f 169 170 73
f 885 284 918
f 918 269 150
f 885 150 149
f 309 310 921
f 527 526 543
f 970 285 291
f 354 254 253
f 786 755 754
f 776 781 57
f 946 290 920
f 920 143 270
f 946 270 271
f 271 955 290
f 972 290 955
f 955 271 272
f 746 818 819
f 262 240 239
f 1046 321 973
f 1036 837 981
f 969 285 284
f 967 727 537
f 914 832 654
f 950 191 192
f 1053 312 313
f 934 920 290
f 329 142 907
f 756 902 220
f 666 667 669
f 887 288 289
f 990 193 194
f 759 763 767
f 590 610 609
f 979 192 193
f 1044 234 233
f 125 124 402
f 447 316 315
f 859 864 865
f 841 879 877
f 889 244 234
f 122 121 399
f 123 122 400
f 114 113 458
f 332 333 294
f 756 243 292
f 292 891 344
f 516 546 547
f 977 949 436
f 923 341 342
f 304 303 958
f 698 746 747
f 956 303 244
f 889 314 956
f 1003 314 341
f 265 302 301
f 836 835 834
f 643 644 642
f 338 299 298
f 110 455 456
f 350 351 251
f 349 350 250
f 348 349 249
f 266 348 248
f 394 523 524
f 364 280 279
f 318 191 190
f 445 446 190
f 439 196 195
f 443 444 198
f 32 89 53
f 801 422 799
f 438 432 431
f 718 717 721
f 365 377 378
f 441 429 428
f 779 489 750
f 439 431 430
f 851 776 56
f 446 445 393
f 155 154 325
f 156 476 477
f 417 564 628
f 1055 319 390
f 1059 390 391
f 392 393 1057
f 1058 391 392
f 372 320 1054
f 106 451 452
f 333 334 295
f 108 453 454
f 112 111 456
f 336 337 298
f 335 336 297
f 334 335 296
f 124 123 401
f 747 820 821
f 998 408 403
f 1068 266 263
f 328 331 880
f 880 404 978
f 257 328 976
f 976 434 999
f 977 435 434
f 881 259 258
f 261 246 939
f 939 436 917
f 326 261 917
f 917 436 929
f 327 326 929
f 929 436 960
f 308 327 960
f 960 436 898
f 893 405 309
f 880 331 330
f 330 1010 404
f 997 404 1010
f 1010 330 329
f 351 352 252
f 881 894 260
f 370 371 274
f 178 177 783
f 362 279 278
f 30 87 88
f 19 28 103
f 366 281 280
f 437 449 432
f 363 375 376
f 369 368 381
f 368 367 380
f 228 207 206
f 443 442 427
f 444 443 426
f 445 444 425
f 371 370 383
f 116 310 395
f 107 452 453
f 118 396 397
f 109 454 455
f 120 398 399
f 119 397 398
f 113 112 457
f 117 395 396
f 115 114 459
f 168 169 72
f 451 460 941
f 940 460 466
f 954 934 283
f 384 383 387
f 537 536 540
f 653 562 468
f 824 825 820
f 951 952 207
f 478 479 450
f 460 105 520
f 461 520 519
f 806 810 811
f 495 490 896
f 896 491 927
f 943 495 927
f 927 491 492
f 492 493 961
f 649 651 620
f 7 8 5
f 93 700 748
f 913 808 805
f 623 626 627
f 507 413 959
f 771 774 775
f 474 473 486
f 87 30 18
f 1065 1053 311
f 558 561 552
f 924 467 480
f 687 685 677
f 8 18 17
f 496 499 501
f 511 513 514
f 702 695 101
f 424 730 738
f 516 517 518
f 567 559 558
f 494 567 568
f 631 632 638
f 489 488 1013
f 557 509 508
f 317 318 922
f 555 554 571
f 849 778 777
f 415 557 569
f 560 569 570
f 761 796 794
f 570 569 571
f 515 545 546
f 700 699 747
f 591 593 594
f 909 974 586
f 283 1005 884
f 905 549 550
f 722 721 964
f 964 912 753
f 324 722 945
f 905 532 531
f 903 531 491
f 901 758 753
f 730 731 732
f 587 1012 910
f 947 190 191
f 76 770 775
f 843 844 847
f 704 697 696
f 522 521 465
f 171 172 75
f 200 218 217
f 492 491 531
f 529 534 532
f 688 687 684
f 127 527 542
f 528 524 523
f 525 538 543
f 242 207 226
f 651 623 621
f 535 542 540
f 998 361 494
f 924 468 469
f 589 590 594
f 1030 579 580
f 1029 580 581
f 1023 576 583
f 598 599 611
f 493 492 534
f 882 691 503
f 503 498 497
f 624 625 626
f 813 816 98
f 850 777 776
f 787 770 76
f 642 634 640
f 639 640 637
f 1028 5 17
f 17 49 50
f 629 635 636
f 628 636 637
f 626 625 644
f 177 178 182
f 633 643 641
f 641 642 639
f 658 818 746
f 657 823 818
f 339 300 299
f 847 846 867
f 646 618 617
f 648 50 624
f 1012 587 586
f 1000 897 498
f 727 967 1018
f 843 848 18
f 18 8 1037
f 909 573 500
f 916 197 198
f 966 619 620
f 620 621 1001
f 983 595 614
f 988 346 345
f 988 305 304
f 696 695 702
f 99 100 9
f 533 534 529
f 101 695 701
f 607 599 600
f 593 582 581
f 589 598 610
f 546 545 603
f 591 609 608
f 664 663 865
f 603 606 607
f 487 486 564
f 610 611 612
f 605 601 612
f 601 608 609
f 1034 648 649
f 618 646 1031
f 647 51 1035
f 588 574 586
f 584 588 587
f 583 576 575
f 580 579 613
f 615 613 614
f 322 324 908
f 104 136 515
f 826 817 822
f 991 971 288
f 51 52 42
f 1026 4 576
f 1023 582 1026
f 545 544 602
f 366 378 379
f 653 661 630
f 482 483 467
f 482 652 746
f 630 661 662
f 42 44 7
f 740 715 714
f 149 152 153
f 900 196 197
f 844 845 846
f 589 655 656
f 658 652 547
f 657 658 600
f 631 662 663
f 714 719 720
f 696 697 698
f 510 51 647
f 91 90 682
f 813 97 831
f 17 29 45
f 222 176 175
f 239 240 166
f 158 67 1067
f 142 143 144
f 470 566 565
f 604 600 547
f 57 177 183
f 440 430 429
f 483 482 697
f 716 717 718
f 591 592 582
f 358 415 560
f 315 707 712
f 386 389 324
f 179 180 181
f 748 821 822
f 775 774 791
f 179 178 782
f 782 785 750
f 544 20 16
f 777 780 781
f 482 481 547
f 558 559 560
f 772 773 774
f 127 126 528
f 57 781 783
f 754 753 772
f 708 709 712
f 787 786 788
f 322 275 274
f 325 755 786
f 765 768 769
f 1027 619 966
f 838 839 930
f 77 775 792
f 356 256 255
f 765 795 797
f 797 795 794
f 792 791 794
f 729 728 744
f 774 773 790
f 576 3 14
f 685 675 676
f 794 791 790
f 527 528 529
f 134 544 545
f 814 655 654
f 660 659 622
f 539 1017 883
f 525 965 1016
f 936 286 287
f 987 989 179
f 926 483 708
f 911 987 749
f 554 1017 1016
f 346 937 957
f 501 962 944
f 654 595 983
f 148 147 991
f 277 919 887
f 273 985 972
f 3 4 1
f 833 931 968
f 664 660 627
f 953 284 286
f 948 198 190
f 424 423 731
f 535 504 128
f 1046 318 319
f 1007 282 274
f 841 842 931
f 506 734 928
f 814 815 816
f 575 578 577
f 50 49 625
f 751 195 196
f 918 284 285
f 170 171 74
f 864 868 869
f 868 864 863
f 433 706 711
f 708 483 704
f 726 723 724
f 709 710 711
f 705 712 711
f 355 255 254
f 387 720 724
f 785 782 783
f 558 550 549
f 389 388 724
f 723 726 721
f 826 825 829
f 688 681 674
f 739 714 713
f 633 632 663
f 740 737 716
f 485 332 307
f 742 745 736
f 800 799 812
f 1070 1045 313
f 742 741 744
f 730 729 741
f 692 79 690
f 1007 290 291
f 537 506 505
f 874 875 871
f 638 639 636
f 353 253 252
f 691 839 876
f 876 875 874
f 654 655 589
f 424 713 720
f 659 660 846
f 855 857 851
f 857 858 850
f 864 859 858
f 778 779 780
f 23 24 25
f 644 645 634
f 660 664 869
f 849 850 859
f 663 662 860
f 849 860 662
f 602 605 606
f 562 630 629
f 650 617 616
f 856 848 847
f 557 556 571
f 862 857 855
f 862 866 867
f 879 844 878
f 879 841 659
f 542 543 541
f 971 954 289
f 872 877 878
f 734 801 1000
f 1000 690 1004
f 928 734 1004
f 1004 690 763
f 238 241 273
f 737 736 1019
f 758 901 1020
f 536 505 504
f 753 758 773
f 931 842 840
f 321 322 994
f 944 962 503
f 526 529 530
f 517 521 522
f 937 342 343
f 840 842 877
f 487 416 475
f 42 38 41
f 821 820 825
f 811 810 812
f 813 830 829
f 204 203 237
f 1012 617 618
f 825 824 828
f 653 489 779
f 9 11 13
f 656 827 823
f 653 778 849
f 866 862 861
f 819 818 823
f 817 826 830
f 827 828 824
f 919 287 288
f 1024 872 873
f 694 870 1038
f 695 696 699
f 627 626 643
f 809 812 810
f 805 808 810
f 1006 991 287
f 598 656 657
f 804 803 835
f 835 836 832
f 340 301 300
f 985 291 290
f 495 568 548
f 185 184 232
f 356 358 359
f 857 862 863
f 385 384 388
f 1021 1 15
f 15 97 98
f 15 19 93
f 1005 274 275
f 512 616 974
f 871 837 1036
f 1040 806 807
f 1032 805 806
f 98 802 1039
f 539 538 1016
f 1017 554 555
f 1016 965 552
f 1018 760 761
f 967 759 760
f 716 737 1020
f 1019 761 762
f 146 145 954
f 282 1007 992
f 1044 1070 1008
f 269 918 886
f 213 751 900
f 763 507 904
f 914 931 833
f 290 1007 1005
f 216 948 947
f 279 953 936
f 932 983 622
f 707 987 911
f 750 489 926
f 315 989 987
f 278 936 919
f 913 930 809
f 1041 966 579
f 214 900 916
f 147 146 971
f 139 994 908
f 346 988 975
f 305 988 1009
f 622 983 1001
f 982 1001 614
f 579 966 982
f 215 916 948
f 909 944 502
f 499 897 1000
f 617 1012 974
f 882 962 501
f 924 895 466
f 493 408 998
f 208 947 950
f 901 912 717
f 548 903 896
f 549 905 903
f 908 945 755
f 717 912 964
f 945 964 754
f 532 905 906
f 993 922 237
f 926 1013 480
f 488 468 924
f 506 904 963
f 838 913 981
f 495 943 942
f 214 215 952
f 145 144 934
f 941 940 469
f 220 902 925
f 435 436 894
f 407 984 938
f 260 894 939
f 435 881 1011
f 406 977 984
f 999 1011 258
f 142 361 996
f 306 1009 892
f 347 923 937
f 406 405 949
f 344 891 890
f 314 889 1008
f 210 979 990
f 211 990 1015
f 276 887 884
f 344 451 902
f 404 997 907
f 144 143 920
f 209 950 979
f 841 914 932
f 555 759 967
f 280 969 953
f 1042 981 805
f 1071 973 138
f 273 241 995
f 240 970 995
f 308 888 921
f 262 935 970
f 550 552 965
f 208 209 899
f 216 208 915
f 211 212 986
f 215 216 933
f 213 214 951
f 210 211 1002
f 209 210 752
f 212 213 980
f 498 897 1014
f 959 1014 496
f 809 930 882
f 217 179 989
f 212 1015 751
f 281 992 969
f 149 148 1006
f 968 1042 1032
f 910 1041 1030
f 1033 1039 807
f 804 1032 1040
f 803 1040 1039
f 1024 1036 840
f 8 694 1025
f 1025 1038 873
f 871 1024 1038
f 618 1027 1041
f 1034 1035 50
f 1027 1031 649
f 647 1034 1031
f 582 1023 1022
f 584 1029 1022
f 585 1030 1029
f 840 1036 1042
f 1 1021 1033
f 1057 1069 36
f 1065 1066 24
f 37 1066 1065
f 25 1069 1057
f 922 1071 1063
f 921 1070 1044
f 310 1045 1070
f 321 1046 1054
f 185 1043 1067
f 312 1053 1065
f 1068 1052 264
f 374 1058 1056
f 374 373 1059
f 373 372 1055
f 151 1044 1064
f 311 1053 1045
f 318 1046 1071
f 237 1063 1050
f 158 1043 1062
f 159 1062 1051
f 160 1051 1049
f 1069 1066 37
f 1068 1048 39
f 1048 1047 40
f 1060 1047 34
f 537 727 734
f 763 759 555
