# Blender 3.6.23
# www.blender.org
mtllib vehicle_g5.mtl
o Plane.001
v 0.888001 1.079521 0.492427
v 0.888001 1.079521 -0.492427
v 0.888001 1.079521 0.000000
v 1.166064 0.633989 0.581393
v 1.166064 0.633989 -0.581393
v 0.925919 0.002029 0.492427
v 0.925919 0.002029 -0.492427
v 1.166063 0.633989 0.191421
v 1.166063 0.633989 -0.191421
v 0.925919 0.002029 0.000000
v 1.058034 0.345610 0.000000
v 0.908034 0.556929 0.000000
l 3 1
l 2 3
l 1 4
l 5 2
l 4 6
l 7 5
l 8 9
l 3 9
l 3 8
l 4 8
l 6 8
l 7 9
l 7 10
l 6 10
l 9 11
l 8 11
l 10 11
l 6 11
l 7 11
l 5 10
l 4 10
l 3 4
l 1 8
l 2 9
l 3 5
l 4 11
l 5 11
l 1 9
l 2 8
l 2 12
l 3 12
l 1 12
l 4 12
l 6 12
l 10 12
l 7 12
l 5 12
l 9 12
l 8 12
l 11 12
