# Blender 3.6.23
# www.blender.org
mtllib vehicle_g6.mtl
o Plane.002
v -0.530341 0.658998 0.651570
v 0.203335 1.016498 0.515791
v -0.199520 1.021834 0.515791
v -0.548964 -0.004042 0.551743
v 0.446114 0.542058 0.627875
v 0.248689 0.069389 0.558089
v -0.150137 0.032674 0.549485
v -0.042113 0.542058 0.627875
v -0.071617 0.484933 0.425566
v -0.530341 0.658998 -0.651570
v 0.203335 1.016498 -0.515791
v -0.199520 1.021834 -0.515791
v -0.548964 -0.004042 -0.551743
v 0.446114 0.542058 -0.627875
v 0.248689 0.069389 -0.558089
v -0.150137 0.032674 -0.549485
v -0.042113 0.542058 -0.627875
v -0.071617 0.484933 -0.425566
l 3 1
l 1 4
l 2 3
l 5 2
l 6 5
l 7 6
l 4 7
l 7 8
l 1 8
l 3 8
l 2 8
l 5 8
l 6 8
l 4 8
l 1 7
l 5 7
l 6 9
l 7 9
l 4 9
l 1 9
l 3 9
l 2 9
l 5 9
l 8 9
l 12 10
l 10 13
l 11 12
l 14 11
l 15 14
l 16 15
l 13 16
l 16 17
l 10 17
l 12 17
l 11 17
l 14 17
l 15 17
l 13 17
l 10 16
l 14 16
l 15 18
l 16 18
l 13 18
l 10 18
l 12 18
l 11 18
l 14 18
l 17 18
