# Blender 3.6.23
# www.blender.org
o Plane
v -1.320181 -0.005332 0.716550
v 1.180629 -0.005000 0.716550
v -1.320181 -0.005332 -0.716550
v 1.180629 -0.005000 -0.716550
v -1.524780 0.503785 0.782727
v -1.524780 0.503785 -0.782727
v -0.926780 0.503453 0.781725
v -0.926780 0.503453 -0.781725
v -0.319861 1.401976 0.639516
v -0.319861 1.401976 -0.639516
v 1.153248 1.401976 0.639516
v 1.153248 1.401976 -0.639516
v 1.494402 0.823428 0.831321
v 1.494402 0.823428 -0.831321
v 0.299404 -0.005166 0.716550
v 0.299404 -0.005166 -0.716550
v 0.588806 0.796463 0.831321
v 0.588806 0.796463 -0.831321
v 0.416693 1.401976 0.639516
v 0.416693 1.401976 -0.639516
v -0.688755 0.855841 0.846195
v -0.688755 0.855841 -0.846195
v -0.712940 -0.005249 -0.716550
v -0.712940 -0.005249 0.716550
v -1.320181 -0.005332 0.000000
v 1.180629 -0.005000 0.000000
v -1.524780 0.503785 -0.000000
v -0.926780 0.503453 0.000000
v -0.319861 1.401976 0.000000
v 1.153248 1.401976 0.000000
v 0.299404 0.090865 0.000000
v 0.416693 1.401976 0.000000
v -0.712940 0.090782 0.000000
v 0.807158 0.025554 -0.755194
v 0.807158 0.025554 -0.564806
v 0.807158 0.211829 -0.660000
v 0.916647 0.176254 -0.660000
v 0.984316 0.083116 -0.660000
v 0.984316 -0.032007 -0.660000
v 0.916647 -0.125145 -0.660000
v 0.807158 -0.160720 -0.660000
v 0.697669 -0.125145 -0.660000
v 0.630001 -0.032007 -0.660000
v 0.630001 0.083116 -0.660000
v 0.697669 0.176254 -0.660000
v 0.807158 0.025554 0.755194
v 0.807158 0.025554 0.564806
v 0.807158 0.211829 0.660000
v 0.916647 0.176253 0.660000
v 0.984316 0.083116 0.660000
v 0.984316 -0.032008 0.660000
v 0.916647 -0.125145 0.660000
v 0.807158 -0.160720 0.660000
v 0.697669 -0.125145 0.660000
v 0.630001 -0.032008 0.660000
v 0.630001 0.083116 0.660000
v 0.697669 0.176253 0.660000
v 0.807158 0.265754 0.660000
v 0.807158 0.265754 -0.660000
v -1.033562 0.025554 -0.755194
v -1.033562 0.025554 -0.564806
v -1.033562 0.211829 -0.660000
v -0.924072 0.176254 -0.660000
v -0.856404 0.083116 -0.660000
v -0.856404 -0.032007 -0.660000
v -0.924072 -0.125145 -0.660000
v -1.033562 -0.160720 -0.660000
v -1.143051 -0.125145 -0.660000
v -1.210719 -0.032007 -0.660000
v -1.210719 0.083116 -0.660000
v -1.143051 0.176254 -0.660000
v -1.033562 0.025554 0.755194
v -1.033562 0.025554 0.564806
v -1.033562 0.211829 0.660000
v -0.924072 0.176253 0.660000
v -0.856404 0.083116 0.660000
v -0.856404 -0.032008 0.660000
v -0.924072 -0.125145 0.660000
v -1.033562 -0.160720 0.660000
v -1.143051 -0.125145 0.660000
v -1.210719 -0.032008 0.660000
v -1.210719 0.083116 0.660000
v -1.143051 0.176253 0.660000
v -1.033562 0.265754 0.660000
v -1.033562 0.265754 -0.660000
l 25 1
l 15 2
l 26 4
l 23 3
l 27 5
l 5 1
l 3 6
l 28 7
l 7 5
l 6 8
l 29 9
l 21 9
l 30 11
l 19 9
l 20 12
l 22 23
l 13 11
l 12 14
l 2 13
l 4 14
l 22 10
l 24 15
l 4 16
l 31 16
l 11 19
l 13 17
l 18 14
l 16 18
l 15 17
l 10 20
l 32 19
l 19 17
l 20 18
l 7 21
l 8 22
l 16 23
l 1 24
l 33 23
l 7 24
l 23 8
l 21 24
l 19 21
l 9 17
l 10 18
l 20 22
l 3 25
l 2 26
l 6 27
l 8 28
l 10 29
l 12 30
l 15 31
l 20 32
l 24 33
l 33 25
l 29 32
l 31 33
l 32 30
l 25 27
l 26 31
l 28 33
l 23 28
l 8 33
l 7 33
l 24 28
l 21 28
l 22 28
l 22 29
l 21 29
l 5 28
l 7 27
l 8 27
l 6 28
l 3 27
l 6 25
l 5 25
l 1 27
l 3 8
l 6 23
l 5 24
l 1 7
l 1 33
l 24 25
l 3 33
l 23 25
l 16 33
l 23 31
l 24 31
l 15 33
l 15 26
l 2 31
l 4 31
l 16 26
l 16 24
l 15 23
l 15 16
l 23 24
l 20 29
l 10 32
l 9 32
l 19 29
l 19 30
l 11 32
l 12 32
l 20 30
l 11 17
l 13 19
l 2 17
l 13 15
l 14 20
l 12 18
l 4 18
l 14 16
l 19 20
l 29 30
l 16 22
l 18 23
l 15 21
l 17 24
l 17 31
l 18 31
l 14 26
l 13 26
l 13 30
l 14 30
l 18 32
l 17 32
l 37 34
l 34 36
l 36 37
l 38 34
l 37 38
l 39 34
l 38 39
l 35 39
l 40 34
l 39 40
l 41 34
l 40 41
l 35 41
l 42 34
l 41 42
l 35 42
l 43 34
l 42 43
l 35 43
l 44 34
l 43 44
l 35 44
l 35 37
l 45 34
l 44 45
l 35 45
l 45 36
l 36 35
l 35 38
l 35 40
l 34 35
l 49 46
l 46 48
l 48 49
l 50 46
l 49 50
l 51 46
l 50 51
l 47 51
l 52 46
l 51 52
l 53 46
l 52 53
l 47 53
l 54 46
l 53 54
l 47 54
l 55 46
l 54 55
l 47 55
l 56 46
l 55 56
l 47 56
l 47 49
l 57 46
l 56 57
l 47 57
l 57 48
l 48 47
l 47 50
l 47 52
l 46 47
l 35 47
l 35 59
l 34 59
l 46 58
l 47 58
l 58 59
l 46 59
l 34 58
l 16 35
l 15 35
l 16 47
l 15 47
l 15 46
l 16 46
l 15 34
l 16 34
l 16 59
l 15 59
l 15 58
l 16 58
l 2 58
l 4 59
l 63 60
l 60 62
l 62 63
l 64 60
l 63 64
l 65 60
l 64 65
l 61 65
l 66 60
l 65 66
l 67 60
l 66 67
l 61 67
l 68 60
l 67 68
l 61 68
l 69 60
l 68 69
l 61 69
l 70 60
l 69 70
l 61 70
l 61 63
l 71 60
l 70 71
l 61 71
l 71 62
l 62 61
l 61 64
l 61 66
l 60 61
l 75 72
l 72 74
l 74 75
l 76 72
l 75 76
l 77 72
l 76 77
l 73 77
l 78 72
l 77 78
l 79 72
l 78 79
l 73 79
l 80 72
l 79 80
l 73 80
l 81 72
l 80 81
l 73 81
l 82 72
l 81 82
l 73 82
l 73 75
l 83 72
l 82 83
l 73 83
l 83 74
l 74 73
l 73 76
l 73 78
l 72 73
l 33 61
l 25 61
l 33 73
l 25 73
l 73 84
l 72 84
l 60 85
l 61 85
l 33 85
l 25 85
l 33 84
l 25 84
l 23 60
l 24 72
