# Blender 3.6.23
# www.blender.org
mtllib mesh_g1.mtl
o mesh_body
v -0.627908 -0.125126 1.727412
v 0.627907 -0.125126 1.727412
v -0.627908 -0.125126 -1.576814
v -0.627908 0.104858 -1.726215
v 0.627907 -0.125126 -1.577413
v 0.627907 0.104858 -1.727413
v -0.627908 0.104858 1.726214
v 0.627907 0.104858 1.726214
v 0.817627 -0.008822 -1.658364
v -0.817627 -0.008822 -1.658364
v -0.817627 -0.008822 1.495697
v 0.817627 -0.008822 1.495697
v -0.817627 -0.048822 1.506415
v 0.817627 -0.048822 1.506415
v -0.817627 -0.078104 1.535697
v 0.817627 -0.078104 1.535697
v -0.817627 -0.088822 1.575697
v 0.817627 -0.088822 1.575697
v -0.817627 -0.078104 1.615697
v 0.817627 -0.078104 1.615697
v -0.817627 -0.048822 1.644979
v 0.817627 -0.048822 1.644979
v -0.817627 -0.008822 1.655697
v 0.817627 -0.008822 1.655697
v -0.817627 0.031178 1.644979
v 0.817627 0.031178 1.644979
v -0.817627 0.060460 1.615697
v 0.817627 0.060460 1.615697
v -0.817627 0.071178 1.575697
v 0.817627 0.071178 1.575697
v -0.817627 0.060460 1.535697
v 0.817627 0.060460 1.535697
v -0.817627 0.031178 1.506415
v 0.817627 0.031178 1.506415
v -0.817627 -0.048822 -1.647646
v 0.817627 -0.048822 -1.647646
v -0.817627 -0.078104 -1.618364
v 0.817627 -0.078104 -1.618364
v -0.817627 -0.088822 -1.578364
v 0.817627 -0.088822 -1.578364
v -0.817627 -0.078104 -1.538364
v 0.817627 -0.078104 -1.538364
v -0.817627 -0.048822 -1.509082
v 0.817627 -0.048822 -1.509082
v -0.817627 -0.008822 -1.498364
v 0.817627 -0.008822 -1.498364
v -0.817627 0.031178 -1.509082
v 0.817627 0.031178 -1.509082
v -0.817627 0.060460 -1.538364
v 0.817627 0.060460 -1.538364
v -0.817627 0.071178 -1.578364
v 0.817627 0.071178 -1.578364
v -0.817627 0.060460 -1.618364
v 0.817627 0.060460 -1.618364
v -0.817627 0.031178 -1.647646
v 0.817627 0.031178 -1.647646
vn 0.0004 0.5448 0.8386
vn -0.0000 -0.0052 -1.0000
vn -1.0000 -0.0000 -0.0000
vn 1.0000 -0.0000 -0.0000
vn -0.0000 -1.0000 -0.0000
vn -0.0000 1.0000 -0.0000
vn -0.0000 -0.2588 -0.9659
vn -0.0000 0.9659 -0.2588
vn -0.0000 -0.7071 -0.7071
vn -0.0000 0.9659 0.2588
vn -0.0000 -0.9659 -0.2588
vn -0.0000 0.7071 0.7071
vn -0.0000 -0.9659 0.2588
vn -0.0000 0.2588 0.9659
vn -0.0000 -0.7071 0.7071
vn -0.0000 -0.2588 0.9659
vn -0.0000 0.2588 -0.9659
vn -0.0000 0.7071 -0.7071
vn 0.0008 0.5463 0.8376
vt 0.683427 0.317019
vt 0.116015 0.999331
vt 0.042606 0.725364
vt 0.316573 0.798773
vt 0.341379 0.000223
vt 0.000223 0.057082
vt 0.000223 0.000223
vt 0.682981 0.511957
vt 0.341825 0.568816
vt 0.341825 0.511957
vt 0.341379 0.057082
vt 0.000223 0.113942
vt 0.682981 0.455097
vt 0.341825 0.455097
vt 0.341379 0.113942
vt 0.000223 0.170801
vt 0.682981 0.398238
vt 0.341825 0.398238
vt 0.341379 0.170801
vt 0.000223 0.227660
vt 0.682981 0.341379
vt 0.341825 0.341379
vt 0.341379 0.227660
vt 0.000223 0.284520
vt 0.682981 0.284519
vt 0.341825 0.284520
vt 0.341379 0.284520
vt 0.000223 0.341379
vt 0.682981 0.227660
vt 0.341825 0.227660
vt 0.341379 0.341379
vt 0.000223 0.398238
vt 0.682981 0.170801
vt 0.341825 0.170801
vt 0.341379 0.398238
vt 0.000223 0.455097
vt 0.907782 0.956948
vt 0.834373 0.682981
vt 0.633815 0.883539
vt 0.682981 0.113942
vt 0.341825 0.113942
vt 0.341379 0.455097
vt 0.000223 0.511957
vt 0.682981 0.625675
vt 0.341825 0.682535
vt 0.341825 0.625675
vt 0.682981 0.057082
vt 0.341825 0.057082
vt 0.341379 0.511957
vt 0.000223 0.568816
vt 0.432811 0.999331
vt 0.359402 0.725364
vt 0.633369 0.798773
vt 0.682981 0.000223
vt 0.341825 0.000223
vt 0.341379 0.568816
vt 0.000223 0.625675
vt 0.682981 0.568816
vt 0.341379 0.625675
vt 0.000223 0.682535
vt 0.957394 0.274190
vt 0.883985 0.000223
vt 0.683427 0.200781
vt 0.316573 0.883539
vt 0.274190 0.956948
vt 0.200781 0.999331
vt 0.042606 0.956948
vt 0.000223 0.883539
vt 0.000223 0.798773
vt 0.116015 0.682981
vt 0.200781 0.682981
vt 0.274190 0.725364
vt 0.676198 0.956948
vt 0.749607 0.999331
vt 0.834373 0.999331
vt 0.950165 0.883539
vt 0.950165 0.798773
vt 0.907782 0.725364
vt 0.749607 0.682981
vt 0.676198 0.725364
vt 0.633815 0.798773
vt 0.682981 0.682535
vt 0.633369 0.883539
vt 0.590986 0.956948
vt 0.517577 0.999331
vt 0.359402 0.956948
vt 0.317019 0.883539
vt 0.317019 0.798773
vt 0.432811 0.682981
vt 0.517577 0.682981
vt 0.590986 0.725364
vt 0.341379 0.682535
vt 0.725810 0.274190
vt 0.799219 0.316573
vt 0.883985 0.316573
vt 0.999777 0.200781
vt 0.999777 0.116015
vt 0.957394 0.042606
vt 0.799219 0.000223
vt 0.725810 0.042606
vt 0.683427 0.116015
s 0
f 5/1/1 4/1/1 3/1/1
f 1/1/2 8/1/2 2/1/2
f 8/1/3 5/1/3 2/1/3
f 3/1/4 7/1/4 1/1/4
f 8/1/5 4/1/5 6/1/5
f 3/1/6 2/1/6 5/1/6
f 54/2/4 46/3/4 38/4/4
f 12/5/7 13/6/7 11/7/7
f 52/8/8 53/9/8 51/10/8
f 14/11/9 15/12/9 13/6/9
f 50/13/10 51/10/10 49/14/10
f 16/15/11 17/16/11 15/12/11
f 48/17/12 49/14/12 47/18/12
f 18/19/13 19/20/13 17/16/13
f 46/21/14 47/18/14 45/22/14
f 20/23/15 21/24/15 19/20/15
f 44/25/16 45/22/16 43/26/16
f 22/27/16 23/28/16 21/24/16
f 42/29/15 43/26/15 41/30/15
f 24/31/14 25/32/14 23/28/14
f 40/33/13 41/30/13 39/34/13
f 26/35/12 27/36/12 25/32/12
f 39/37/3 47/38/3 55/39/3
f 38/40/11 39/34/11 37/41/11
f 28/42/10 29/43/10 27/36/10
f 56/44/17 10/45/17 55/46/17
f 36/47/9 37/41/9 35/48/9
f 30/49/8 31/50/8 29/43/8
f 32/51/4 24/52/4 16/53/4
f 9/54/7 35/48/7 10/55/7
f 32/56/18 33/57/18 31/50/18
f 54/58/18 55/46/18 53/9/18
f 34/59/17 11/60/17 33/57/17
f 17/61/3 25/62/3 33/63/3
f 5/1/19 6/1/19 4/1/19
f 1/1/2 7/1/2 8/1/2
f 8/1/3 6/1/3 5/1/3
f 3/1/4 4/1/4 7/1/4
f 8/1/5 7/1/5 4/1/5
f 3/1/6 1/1/6 2/1/6
f 38/4/4 36/64/4 9/65/4
f 9/65/4 56/66/4 54/2/4
f 54/2/4 52/67/4 50/68/4
f 50/68/4 48/69/4 46/3/4
f 46/3/4 44/70/4 42/71/4
f 42/71/4 40/72/4 38/4/4
f 38/4/4 9/65/4 54/2/4
f 54/2/4 50/68/4 46/3/4
f 46/3/4 42/71/4 38/4/4
f 12/5/7 14/11/7 13/6/7
f 52/8/8 54/58/8 53/9/8
f 14/11/9 16/15/9 15/12/9
f 50/13/10 52/8/10 51/10/10
f 16/15/11 18/19/11 17/16/11
f 48/17/12 50/13/12 49/14/12
f 18/19/13 20/23/13 19/20/13
f 46/21/14 48/17/14 47/18/14
f 20/23/15 22/27/15 21/24/15
f 44/25/16 46/21/16 45/22/16
f 22/27/16 24/31/16 23/28/16
f 42/29/15 44/25/15 43/26/15
f 24/31/14 26/35/14 25/32/14
f 40/33/13 42/29/13 41/30/13
f 26/35/12 28/42/12 27/36/12
f 55/39/3 10/73/3 35/74/3
f 35/74/3 37/75/3 39/37/3
f 39/37/3 41/76/3 43/77/3
f 43/77/3 45/78/3 47/38/3
f 47/38/3 49/79/3 51/80/3
f 51/80/3 53/81/3 55/39/3
f 55/39/3 35/74/3 39/37/3
f 39/37/3 43/77/3 47/38/3
f 47/38/3 51/80/3 55/39/3
f 38/40/11 40/33/11 39/34/11
f 28/42/10 30/49/10 29/43/10
f 56/44/17 9/82/17 10/45/17
f 36/47/9 38/40/9 37/41/9
f 30/49/8 32/56/8 31/50/8
f 16/53/4 14/83/4 12/84/4
f 12/84/4 34/85/4 32/51/4
f 32/51/4 30/86/4 28/87/4
f 28/87/4 26/88/4 24/52/4
f 24/52/4 22/89/4 20/90/4
f 20/90/4 18/91/4 16/53/4
f 16/53/4 12/84/4 32/51/4
f 32/51/4 28/87/4 24/52/4
f 24/52/4 20/90/4 16/53/4
f 9/54/7 36/47/7 35/48/7
f 32/56/18 34/59/18 33/57/18
f 54/58/18 56/44/18 55/46/18
f 34/59/17 12/92/17 11/60/17
f 33/63/3 11/93/3 13/94/3
f 13/94/3 15/95/3 17/61/3
f 17/61/3 19/96/3 21/97/3
f 21/97/3 23/98/3 25/62/3
f 25/62/3 27/99/3 29/100/3
f 29/100/3 31/101/3 33/63/3
f 33/63/3 13/94/3 17/61/3
f 17/61/3 21/97/3 25/62/3
f 25/62/3 29/100/3 33/63/3
