# Blender 3.6.23
# www.blender.org
mtllib vehicle.mtl
o fysics_vehicle
v -0.638758 -0.010134 1.577412
v -0.638758 0.088863 1.207950
v -0.638758 -0.109132 1.207950
v -0.881243 -0.201382 1.246161
v -0.638758 -0.280600 1.306947
v -0.881243 -0.341385 1.386164
v -0.638758 -0.379597 1.676409
v -0.881243 -0.341385 1.768660
v -0.638758 -0.280600 1.847877
v -0.881243 -0.201382 1.908663
v -0.638758 0.088863 1.946874
v -0.881243 0.181114 1.908664
v -0.881243 0.321116 1.768660
v 0.638757 -0.010134 1.577412
v 0.881242 -0.010134 1.577412
v 0.638757 0.088863 1.207950
v 0.638757 -0.109132 1.207950
v 0.881242 -0.201382 1.246161
v 0.881242 -0.341385 1.386164
v 0.638757 -0.379597 1.478415
v 0.881242 -0.341385 1.768660
v 0.881242 -0.201382 1.908663
v 0.638757 -0.109132 1.946874
v 0.638757 0.088863 1.946874
v 0.881242 0.181114 1.908664
v 0.638757 0.260331 1.847877
v 0.881242 0.321116 1.768660
v 0.638757 0.359328 1.676409
v 0.881242 0.181113 1.246161
v -0.627908 -0.125126 1.727412
v 0.627907 -0.125126 1.727412
v 0.627907 -0.125126 1.427412
v -0.627908 -0.125126 1.427412
v 0.627907 0.104858 1.427412
v -0.627908 0.104858 1.427412
v -0.881243 -0.010134 -1.193719
v -0.638758 -0.280600 -1.305750
v -0.638758 -0.379597 -1.675212
v -0.881243 -0.201382 -1.907466
v -0.638758 -0.109132 -1.945677
v -0.638758 0.359328 -1.675212
v -0.638758 0.260331 -1.305750
v 0.638757 0.088863 -1.206753
v 0.881242 -0.010134 -1.193719
v 0.881242 -0.341385 -1.384967
v 0.638757 -0.379597 -1.675212
v 0.638757 -0.280600 -1.846680
v 0.881242 -0.201382 -1.907466
v 0.638757 0.260331 -1.846680
v 0.881242 0.321117 -1.384967
v 0.881242 0.181113 -1.244964
v -0.627908 -0.125126 -1.576814
v -0.627908 0.104858 -1.726215
v -0.638758 -0.010134 -1.577413
v -0.881243 -0.010134 -1.577413
v -0.638758 0.088863 -1.207951
v -0.638758 -0.109132 -1.207951
v -0.881243 -0.201382 -1.246162
v -0.881243 -0.341385 -1.386165
v -0.638758 -0.379597 -1.478416
v -0.881243 -0.392630 -1.577413
v -0.881243 -0.341385 -1.768661
v -0.638758 -0.280600 -1.847878
v -0.881243 -0.010134 -1.959909
v -0.638758 0.088863 -1.946875
v -0.881243 0.181114 -1.908665
v -0.638758 0.260331 -1.847878
v -0.881243 0.321116 -1.768661
v -0.881243 0.372361 -1.577413
v -0.638758 0.359328 -1.478416
v -0.881243 0.321117 -1.386165
v -0.881243 0.181113 -1.246162
v 0.638757 -0.010134 -1.577413
v 0.881242 -0.010134 -1.577413
v 0.638757 -0.109132 -1.207951
v 0.881242 -0.201382 -1.246162
v 0.638757 -0.280600 -1.306948
v 0.638757 -0.379597 -1.478416
v 0.881242 -0.392630 -1.577413
v 0.881242 -0.341385 -1.768661
v 0.638757 -0.109132 -1.946875
v 0.881242 -0.010134 -1.959909
v 0.638757 0.088863 -1.946875
v 0.881242 0.181114 -1.908665
v 0.881242 0.321116 -1.768661
v 0.638757 0.359328 -1.676410
v 0.881242 0.372361 -1.577413
v 0.638757 0.359328 -1.478416
v 0.638757 0.260331 -1.306948
v 0.627907 -0.125126 -1.577413
v 0.627907 0.104858 -1.727413
v 0.627907 0.104858 -1.427413
v -0.627908 0.104858 -1.427413
v -0.881243 -0.010134 1.576214
v -0.881243 -0.010134 1.193718
v -0.638758 -0.379597 1.477217
v -0.881243 -0.392630 1.576214
v -0.638758 -0.109132 1.945676
v -0.881243 -0.010134 1.958710
v -0.638758 0.260331 1.846679
v -0.638758 0.359328 1.675211
v -0.881243 0.372361 1.576214
v -0.638758 0.359328 1.477217
v -0.881243 0.321117 1.384966
v -0.638758 0.260331 1.305749
v -0.881243 0.181113 1.244963
v 0.881242 -0.010134 1.193718
v 0.638757 -0.280600 1.305749
v 0.881242 -0.392630 1.576214
v 0.638757 -0.379597 1.675211
v 0.638757 -0.280600 1.846679
v 0.881242 -0.010134 1.958710
v 0.881242 0.372361 1.576214
v 0.638757 0.359328 1.477217
v 0.881242 0.321117 1.384966
v 0.638757 0.260331 1.305749
v -0.627908 0.104858 1.726214
v 0.627907 0.104858 1.726214
l 50 88
l 4 3
l 3 5
l 31 118
l 12 11
l 12 99
l 20 19
l 28 27
l 23 14
l 55 72
l 46 47
l 74 84
l 38 54
l 55 38
l 60 59
l 61 59
l 62 38
l 38 63
l 68 67
l 46 73
l 74 46
l 76 75
l 75 77
l 78 46
l 46 79
l 80 46
l 84 83
l 91 93
l 90 91
l 90 92
l 94 3
l 3 95
l 98 11
l 11 99
l 11 100
l 106 105
l 19 108
l 109 19
l 113 27
l 114 113
l 115 113
l 117 35
l 103 1
l 1 104
l 74 83
l 1 106
l 94 9
l 9 98
l 58 36
l 5 4
l 6 4
l 13 12
l 40 39
l 48 47
l 54 39
l 55 39
l 61 60
l 39 62
l 39 63
l 64 39
l 69 68
l 47 73
l 74 47
l 77 76
l 47 80
l 47 81
l 85 84
l 55 52
l 53 92
l 53 91
l 94 4
l 4 95
l 99 98
l 100 12
l 108 20
l 109 20
l 20 110
l 44 74
l 113 28
l 28 114
l 115 114
l 114 116
l 75 44
l 76 44
l 94 33
l 97 6
l 6 5
l 15 112
l 55 41
l 33 117
l 22 21
l 52 93
l 40 54
l 55 40
l 62 61
l 63 40
l 64 40
l 40 65
l 41 68
l 70 69
l 71 69
l 69 41
l 73 48
l 74 48
l 41 70
l 77 78
l 48 80
l 82 48
l 14 112
l 86 85
l 87 85
l 94 5
l 5 96
l 13 100
l 101 13
l 102 13
l 14 118
l 107 29
l 21 109
l 94 30
l 111 21
l 29 115
l 116 115
l 94 11
l 73 82
l 83 73
l 14 15
l 14 16
l 17 14
l 14 18
l 14 19
l 20 14
l 14 21
l 14 22
l 23 22
l 24 14
l 14 25
l 26 14
l 14 27
l 28 14
l 14 29
l 14 31
l 14 32
l 30 33
l 14 34
l 30 35
l 63 62
l 41 54
l 54 55
l 54 56
l 57 54
l 54 58
l 54 59
l 60 54
l 54 61
l 54 62
l 63 54
l 54 64
l 65 54
l 54 66
l 67 54
l 54 68
l 54 69
l 70 54
l 71 70
l 54 72
l 49 73
l 74 49
l 79 78
l 83 49
l 49 84
l 85 49
l 49 86
l 87 86
l 86 88
l 54 93
l 94 6
l 96 6
l 100 101
l 14 107
l 108 14
l 14 109
l 110 14
l 22 111
l 112 22
l 14 113
l 114 14
l 14 115
l 116 14
l 30 117
l 67 41
l 94 35
l 8 97
l 111 14
l 21 110
l 8 7
l 7 9
l 15 16
l 15 17
l 15 18
l 15 19
l 15 20
l 15 21
l 15 22
l 15 23
l 23 24
l 15 25
l 15 26
l 15 27
l 15 28
l 15 29
l 15 31
l 31 32
l 15 34
l 51 50
l 42 54
l 55 42
l 55 56
l 55 57
l 55 58
l 55 59
l 55 60
l 55 61
l 55 62
l 55 63
l 55 64
l 55 65
l 55 66
l 55 67
l 55 68
l 55 69
l 55 70
l 55 71
l 72 71
l 73 50
l 74 50
l 80 79
l 50 87
l 88 87
l 89 50
l 55 93
l 94 7
l 96 7
l 7 97
l 102 101
l 101 103
l 107 15
l 15 108
l 15 109
l 110 109
l 111 23
l 112 23
l 15 113
l 15 114
l 15 115
l 15 116
l 73 51
l 74 51
l 89 43
l 15 110
l 94 13
l 9 8
l 10 8
l 51 89
l 16 17
l 15 111
l 25 24
l 24 26
l 70 42
l 16 29
l 32 34
l 15 24
l 43 44
l 43 51
l 56 57
l 72 42
l 65 64
l 66 64
l 15 32
l 56 72
l 73 43
l 74 43
l 43 75
l 88 89
l 105 2
l 94 8
l 95 94
l 94 96
l 94 97
l 94 98
l 94 99
l 94 100
l 94 101
l 94 102
l 103 102
l 94 104
l 94 105
l 94 106
l 16 107
l 110 111
l 24 112
l 53 93
l 116 16
l 94 117
l 32 118
l 105 1
l 81 48
l 31 34
l 2 106
l 94 10
l 29 116
l 1 2
l 3 1
l 1 4
l 5 1
l 1 6
l 7 1
l 1 8
l 9 1
l 1 10
l 11 1
l 1 12
l 1 13
l 18 17
l 26 25
l 27 25
l 1 30
l 1 33
l 1 35
l 44 51
l 52 53
l 59 37
l 54 36
l 36 55
l 56 36
l 57 36
l 58 57
l 66 65
l 65 67
l 36 72
l 73 44
l 73 74
l 75 73
l 73 76
l 77 73
l 78 73
l 73 79
l 73 80
l 81 73
l 82 81
l 81 83
l 73 84
l 73 85
l 86 73
l 73 87
l 88 73
l 89 73
l 52 91
l 73 90
l 92 93
l 73 91
l 73 92
l 108 18
l 55 53
l 1 94
l 1 95
l 96 1
l 1 97
l 98 1
l 1 99
l 100 1
l 101 1
l 1 102
l 104 103
l 103 105
l 95 106
l 17 107
l 17 108
l 25 112
l 1 117
l 45 76
l 45 77
l 78 45
l 79 45
l 10 9
l 2 3
l 19 18
l 27 26
l 26 28
l 54 52
l 42 56
l 52 92
l 54 53
l 37 54
l 55 37
l 57 37
l 37 58
l 59 58
l 37 60
l 67 66
l 68 66
l 73 45
l 74 45
l 74 75
l 74 76
l 74 77
l 74 78
l 74 79
l 74 80
l 74 81
l 74 82
l 83 82
l 84 82
l 74 85
l 74 86
l 74 87
l 74 88
l 74 89
l 42 71
l 74 90
l 52 90
l 74 91
l 74 92
l 90 93
l 94 2
l 2 95
l 97 96
l 98 10
l 99 10
l 60 38
l 105 104
l 106 104
l 18 107
l 94 103
l 15 118
l 118 34
l 38 61
l 104 102
l 91 92
l 54 71
l 33 35
l 94 12
l 53 90
l 32 33
l 32 35
l 33 34
l 34 35
l 30 31
l 31 117
l 30 118
l 117 118
l 31 33
l 30 32
l 35 118
l 34 117
l 32 90
l 33 52
l 33 90
l 32 52
l 34 92
l 34 90
l 32 92
l 35 93
l 33 93
l 35 52
l 35 92
l 34 93
