# Blender v3.6.23 OBJ File: 'slime.blend'
# www.blender.org
mtllib mesh_g1.mtl
o Cube.002_Cube.003
v 1.000000 1.000000 -1.000000
v 1.000000 -1.000000 -1.000000
v 1.000000 1.000000 1.000000
v 1.000000 -1.000000 1.000000
v -1.000000 1.000000 -1.000000
v -1.000000 -1.000000 -1.000000
v -1.000000 1.000000 1.000000
v -1.000000 -1.000000 1.000000
v 0.333333 1.000000 -1.000000
v -0.333333 1.000000 -1.000000
v 1.000000 -0.333333 -1.000000
v 1.000000 0.333333 -1.000000
v -0.333333 1.000000 1.000000
v 0.333333 1.000000 1.000000
v -1.000000 0.333333 1.000000
v -1.000000 -0.333333 1.000000
v -1.000000 1.000000 -0.333333
v -1.000000 1.000000 0.333333
v -0.333333 -1.000000 -1.000000
v 0.333333 -1.000000 -1.000000
v -0.333333 -1.000000 1.000000
v 0.333333 -1.000000 1.000000
v -1.000000 0.333333 -1.000000
v -1.000000 -0.333333 -1.000000
v 1.000000 1.000000 0.333333
v 1.000000 1.000000 -0.333333
v 1.000000 -0.333333 1.000000
v 1.000000 0.333333 1.000000
v -1.000000 -1.000000 -0.333333
v -1.000000 -1.000000 0.333333
v 1.000000 -1.000000 -0.333333
v 1.000000 -1.000000 0.333333
v 1.000000 -0.333333 0.333333
v 1.000000 0.333333 0.333333
v 1.000000 -0.333333 -0.333333
v 1.000000 0.333333 -0.333333
v -0.333333 1.000000 0.333333
v -0.333333 1.000000 -0.333333
v 0.333333 1.000000 0.333333
v 0.333333 1.000000 -0.333333
v -0.333333 0.333333 1.000000
v 0.333333 0.333333 1.000000
v -0.333333 -0.333333 1.000000
v 0.333333 -0.333333 1.000000
v -0.333333 -1.000000 0.333333
v 0.333333 -1.000000 0.333333
v -0.333333 -1.000000 -0.333333
v 0.333333 -1.000000 -0.333333
v -1.000000 0.333333 0.333333
v -1.000000 -0.333333 0.333333
v -1.000000 0.333333 -0.333333
v -1.000000 -0.333333 -0.333333
v 0.333333 0.333333 -1.000000
v -0.333333 0.333333 -1.000000
v 0.333333 -0.333333 -1.000000
v -0.333333 -0.333333 -1.000000
v 0.750000 0.750000 -0.750000
v 0.750000 -0.750000 -0.750000
v 0.750000 0.750000 0.750000
v 0.750000 -0.750000 0.750000
v -0.750000 0.750000 -0.750000
v -0.750000 -0.750000 -0.750000
v -0.750000 0.750000 0.750000
v -0.750000 -0.750000 0.750000
v 0.250000 0.750000 -0.750000
v -0.250000 0.750000 -0.750000
v 0.750000 -0.250000 -0.750000
v 0.750000 0.250000 -0.750000
v -0.250000 0.750000 0.750000
v 0.250000 0.750000 0.750000
v -0.750000 0.250000 0.750000
v -0.750000 -0.250000 0.750000
v -0.750000 0.750000 -0.250000
v -0.750000 0.750000 0.250000
v -0.250000 -0.750000 -0.750000
v 0.250000 -0.750000 -0.750000
v -0.250000 -0.750000 0.750000
v 0.250000 -0.750000 0.750000
v -0.750000 0.250000 -0.750000
v -0.750000 -0.250000 -0.750000
v 0.750000 0.750000 0.250000
v 0.750000 0.750000 -0.250000
v 0.750000 -0.250000 0.750000
v 0.750000 0.250000 0.750000
v -0.750000 -0.750000 -0.250000
v -0.750000 -0.750000 0.250000
v 0.750000 -0.750000 -0.250000
v 0.750000 -0.750000 0.250000
v 0.750000 -0.250000 0.250000
v 0.750000 0.250000 0.250000
v 0.750000 -0.250000 -0.250000
v 0.750000 0.250000 -0.250000
v -0.250000 0.750000 0.250000
v -0.250000 0.750000 -0.250000
v 0.250000 0.750000 0.250000
v 0.250000 0.750000 -0.250000
v -0.250000 0.250000 0.750000
v 0.250000 0.250000 0.750000
v -0.250000 -0.250000 0.750000
v 0.250000 -0.250000 0.750000
v -0.250000 -0.750000 0.250000
v 0.250000 -0.750000 0.250000
v -0.250000 -0.750000 -0.250000
v 0.250000 -0.750000 -0.250000
v -0.750000 0.250000 0.250000
v -0.750000 -0.250000 0.250000
v -0.750000 0.250000 -0.250000
v -0.750000 -0.250000 -0.250000
v 0.250000 0.250000 -0.750000
v -0.250000 0.250000 -0.750000
v 0.250000 -0.250000 -0.750000
v -0.250000 -0.250000 -0.750000
vt 0.568290 0.530589
vt 0.535119 0.497418
vt 0.568290 0.497418
vt 0.634633 0.596932
vt 0.601462 0.630104
vt 0.601462 0.596932
vt 0.734147 0.497418
vt 0.700976 0.530589
vt 0.700976 0.497418
vt 0.734147 0.596932
vt 0.700976 0.630104
vt 0.700976 0.596932
vt 0.634633 0.696447
vt 0.601462 0.729618
vt 0.601462 0.696447
vt 0.634633 0.663275
vt 0.667805 0.630104
vt 0.667805 0.663275
vt 0.700976 0.663275
vt 0.734147 0.630104
vt 0.734147 0.663275
vt 0.700976 0.630104
vt 0.700976 0.729618
vt 0.734147 0.696447
vt 0.734147 0.729618
vt 0.700976 0.696447
vt 0.667805 0.729618
vt 0.667805 0.696447
vt 0.634633 0.729618
vt 0.634633 0.696447
vt 0.568290 0.696447
vt 0.535119 0.729618
vt 0.535119 0.696447
vt 0.568290 0.729618
vt 0.568290 0.630104
vt 0.535119 0.663275
vt 0.535119 0.630104
vt 0.568290 0.663275
vt 0.601462 0.630104
vt 0.601462 0.663275
vt 0.634633 0.630104
vt 0.634633 0.663275
vt 0.667805 0.596932
vt 0.634633 0.596932
vt 0.667805 0.630104
vt 0.667805 0.530589
vt 0.634633 0.563761
vt 0.634633 0.530589
vt 0.667805 0.563761
vt 0.700976 0.530589
vt 0.700976 0.563761
vt 0.734147 0.530589
vt 0.734147 0.563761
vt 0.667805 0.497418
vt 0.634633 0.530589
vt 0.634633 0.497418
vt 0.667805 0.530589
vt 0.667805 0.431075
vt 0.634633 0.464246
vt 0.634633 0.431075
vt 0.667805 0.464246
vt 0.700976 0.431075
vt 0.700976 0.464246
vt 0.734147 0.431075
vt 0.734147 0.464246
vt 0.568290 0.596932
vt 0.535119 0.630104
vt 0.535119 0.596932
vt 0.568290 0.630104
vt 0.568290 0.530589
vt 0.535119 0.563761
vt 0.535119 0.530589
vt 0.568290 0.563761
vt 0.601462 0.530589
vt 0.601462 0.563761
vt 0.634633 0.530589
vt 0.634633 0.563761
vt 0.568290 0.464246
vt 0.535119 0.431075
vt 0.568290 0.431075
vt 0.535119 0.464246
vt 0.634633 0.464246
vt 0.601462 0.431075
vt 0.634633 0.431075
vt 0.601462 0.464246
vt 0.634633 0.497418
vt 0.601462 0.497418
vt 0.634633 0.530589
vt 0.601462 0.530589
vt 0.535119 0.530589
vt 0.634633 0.630104
vt 0.734147 0.530589
vt 0.734147 0.630104
vt 0.634633 0.729618
vt 0.634633 0.630104
vt 0.177689 0.203742
vt 0.142551 0.168604
vt 0.177689 0.168604
vt 0.247965 0.274018
vt 0.212827 0.309157
vt 0.212827 0.274018
vt 0.353379 0.168604
vt 0.318241 0.203742
vt 0.318241 0.168604
vt 0.353379 0.274018
vt 0.318241 0.309157
vt 0.318241 0.274018
vt 0.247965 0.379433
vt 0.212827 0.414571
vt 0.212827 0.379433
vt 0.247965 0.344295
vt 0.283103 0.309157
vt 0.283103 0.344295
vt 0.318241 0.344295
vt 0.353379 0.309157
vt 0.353379 0.344295
vt 0.318241 0.309157
vt 0.318241 0.414571
vt 0.353379 0.379433
vt 0.353379 0.414571
vt 0.318241 0.379433
vt 0.283103 0.414571
vt 0.283103 0.379433
vt 0.247965 0.414571
vt 0.247965 0.379433
vt 0.177689 0.379433
vt 0.142551 0.414571
vt 0.142551 0.379433
vt 0.177689 0.414571
vt 0.177689 0.309157
vt 0.142551 0.344295
vt 0.142551 0.309157
vt 0.177689 0.344295
vt 0.212827 0.309157
vt 0.212827 0.344295
vt 0.247965 0.309157
vt 0.247965 0.344295
vt 0.283103 0.274018
vt 0.247965 0.274018
vt 0.283103 0.309157
vt 0.283103 0.203742
vt 0.247965 0.238880
vt 0.247965 0.203742
vt 0.283103 0.238880
vt 0.318241 0.203742
vt 0.318241 0.238880
vt 0.353379 0.203742
vt 0.353379 0.238880
vt 0.283103 0.168604
vt 0.247965 0.203742
vt 0.247965 0.168604
vt 0.283103 0.203742
vt 0.283103 0.098328
vt 0.247965 0.133466
vt 0.247965 0.098328
vt 0.283103 0.133466
vt 0.318241 0.098328
vt 0.318241 0.133466
vt 0.353379 0.098328
vt 0.353379 0.133466
vt 0.177689 0.274018
vt 0.142551 0.309157
vt 0.142551 0.274018
vt 0.177689 0.309157
vt 0.177689 0.203742
vt 0.142551 0.238880
vt 0.142551 0.203742
vt 0.177689 0.238880
vt 0.212827 0.203742
vt 0.212827 0.238880
vt 0.247965 0.203742
vt 0.247965 0.238880
vt 0.177689 0.133466
vt 0.142551 0.098328
vt 0.177689 0.098328
vt 0.142551 0.133466
vt 0.247965 0.133466
vt 0.212827 0.098328
vt 0.247965 0.098328
vt 0.212827 0.133466
vt 0.247965 0.168604
vt 0.212827 0.168604
vt 0.247965 0.203742
vt 0.212827 0.203742
vt 0.142551 0.203742
vt 0.247965 0.309157
vt 0.353379 0.203742
vt 0.353379 0.309157
vt 0.247965 0.414571
vt 0.247965 0.309157
vn 0.0000 0.0000 -1.0000
vn -1.0000 0.0000 0.0000
vn 0.0000 -1.0000 0.0000
vn 0.0000 0.0000 1.0000
vn 0.0000 1.0000 0.0000
vn 1.0000 0.0000 0.0000
usemtl Material
s off
f 19/1/1 24/2/1 56/3/1
f 24/4/2 29/5/2 52/6/2
f 20/7/3 31/8/3 48/9/3
f 22/10/4 27/11/4 44/12/4
f 26/13/5 9/14/5 40/15/5
f 12/16/6 26/17/6 36/18/6
f 34/19/6 3/20/6 28/21/6
f 36/18/6 25/22/6 34/19/6
f 32/23/6 27/24/6 4/25/6
f 33/26/6 28/21/6 27/24/6
f 31/27/6 33/26/6 32/23/6
f 35/28/6 34/19/6 33/26/6
f 2/29/6 35/28/6 31/27/6
f 11/30/6 36/18/6 35/28/6
f 38/31/5 5/32/5 17/33/5
f 40/15/5 10/34/5 38/31/5
f 13/35/5 18/36/5 7/37/5
f 37/38/5 17/33/5 18/36/5
f 14/39/5 37/38/5 13/35/5
f 39/40/5 38/31/5 37/38/5
f 3/41/5 39/40/5 14/39/5
f 25/42/5 40/15/5 39/40/5
f 42/43/4 3/41/4 14/44/4
f 44/12/4 28/45/4 42/43/4
f 15/46/4 13/47/4 7/48/4
f 41/49/4 14/44/4 13/47/4
f 16/50/4 41/49/4 15/46/4
f 43/51/4 42/43/4 41/49/4
f 8/52/4 43/51/4 16/50/4
f 21/53/4 44/12/4 43/51/4
f 46/54/3 4/55/3 22/56/3
f 48/9/3 32/57/3 46/54/3
f 30/58/3 21/59/3 8/60/3
f 45/61/3 22/56/3 21/59/3
f 29/62/3 45/61/3 30/58/3
f 47/63/3 46/54/3 45/61/3
f 6/64/3 47/63/3 29/62/3
f 19/65/3 48/9/3 47/63/3
f 50/66/2 8/67/2 16/68/2
f 52/6/2 30/69/2 50/66/2
f 18/70/2 15/71/2 7/72/2
f 49/73/2 16/68/2 15/71/2
f 17/74/2 49/73/2 18/70/2
f 51/75/2 50/66/2 49/73/2
f 5/76/2 51/75/2 17/74/2
f 23/77/2 52/6/2 51/75/2
f 54/78/1 5/79/1 10/80/1
f 56/3/1 23/81/1 54/78/1
f 12/82/1 9/83/1 1/84/1
f 53/85/1 10/80/1 9/83/1
f 11/86/1 53/85/1 12/82/1
f 55/87/1 54/78/1 53/85/1
f 2/88/1 55/87/1 11/86/1
f 20/89/1 56/3/1 55/87/1
f 19/1/1 6/90/1 24/2/1
f 24/4/2 6/91/2 29/5/2
f 20/7/3 2/92/3 31/8/3
f 22/10/4 4/93/4 27/11/4
f 26/13/5 1/94/5 9/14/5
f 12/16/6 1/95/6 26/17/6
f 34/19/6 25/22/6 3/20/6
f 36/18/6 26/17/6 25/22/6
f 32/23/6 33/26/6 27/24/6
f 33/26/6 34/19/6 28/21/6
f 31/27/6 35/28/6 33/26/6
f 35/28/6 36/18/6 34/19/6
f 2/29/6 11/30/6 35/28/6
f 11/30/6 12/16/6 36/18/6
f 38/31/5 10/34/5 5/32/5
f 40/15/5 9/14/5 10/34/5
f 13/35/5 37/38/5 18/36/5
f 37/38/5 38/31/5 17/33/5
f 14/39/5 39/40/5 37/38/5
f 39/40/5 40/15/5 38/31/5
f 3/41/5 25/42/5 39/40/5
f 25/42/5 26/13/5 40/15/5
f 42/43/4 28/45/4 3/41/4
f 44/12/4 27/11/4 28/45/4
f 15/46/4 41/49/4 13/47/4
f 41/49/4 42/43/4 14/44/4
f 16/50/4 43/51/4 41/49/4
f 43/51/4 44/12/4 42/43/4
f 8/52/4 21/53/4 43/51/4
f 21/53/4 22/10/4 44/12/4
f 46/54/3 32/57/3 4/55/3
f 48/9/3 31/8/3 32/57/3
f 30/58/3 45/61/3 21/59/3
f 45/61/3 46/54/3 22/56/3
f 29/62/3 47/63/3 45/61/3
f 47/63/3 48/9/3 46/54/3
f 6/64/3 19/65/3 47/63/3
f 19/65/3 20/7/3 48/9/3
f 50/66/2 30/69/2 8/67/2
f 52/6/2 29/5/2 30/69/2
f 18/70/2 49/73/2 15/71/2
f 49/73/2 50/66/2 16/68/2
f 17/74/2 51/75/2 49/73/2
f 51/75/2 52/6/2 50/66/2
f 5/76/2 23/77/2 51/75/2
f 23/77/2 24/4/2 52/6/2
f 54/78/1 23/81/1 5/79/1
f 56/3/1 24/2/1 23/81/1
f 12/82/1 53/85/1 9/83/1
f 53/85/1 54/78/1 10/80/1
f 11/86/1 55/87/1 53/85/1
f 55/87/1 56/3/1 54/78/1
f 2/88/1 20/89/1 55/87/1
f 20/89/1 19/1/1 56/3/1
f 75/96/1 80/97/1 112/98/1
f 80/99/2 85/100/2 108/101/2
f 76/102/3 87/103/3 104/104/3
f 78/105/4 83/106/4 100/107/4
f 82/108/5 65/109/5 96/110/5
f 68/111/6 82/112/6 92/113/6
f 90/114/6 59/115/6 84/116/6
f 92/113/6 81/117/6 90/114/6
f 88/118/6 83/119/6 60/120/6
f 89/121/6 84/116/6 83/119/6
f 87/122/6 89/121/6 88/118/6
f 91/123/6 90/114/6 89/121/6
f 58/124/6 91/123/6 87/122/6
f 67/125/6 92/113/6 91/123/6
f 94/126/5 61/127/5 73/128/5
f 96/110/5 66/129/5 94/126/5
f 69/130/5 74/131/5 63/132/5
f 93/133/5 73/128/5 74/131/5
f 70/134/5 93/133/5 69/130/5
f 95/135/5 94/126/5 93/133/5
f 59/136/5 95/135/5 70/134/5
f 81/137/5 96/110/5 95/135/5
f 98/138/4 59/136/4 70/139/4
f 100/107/4 84/140/4 98/138/4
f 71/141/4 69/142/4 63/143/4
f 97/144/4 70/139/4 69/142/4
f 72/145/4 97/144/4 71/141/4
f 99/146/4 98/138/4 97/144/4
f 64/147/4 99/146/4 72/145/4
f 77/148/4 100/107/4 99/146/4
f 102/149/3 60/150/3 78/151/3
f 104/104/3 88/152/3 102/149/3
f 86/153/3 77/154/3 64/155/3
f 101/156/3 78/151/3 77/154/3
f 85/157/3 101/156/3 86/153/3
f 103/158/3 102/149/3 101/156/3
f 62/159/3 103/158/3 85/157/3
f 75/160/3 104/104/3 103/158/3
f 106/161/2 64/162/2 72/163/2
f 108/101/2 86/164/2 106/161/2
f 74/165/2 71/166/2 63/167/2
f 105/168/2 72/163/2 71/166/2
f 73/169/2 105/168/2 74/165/2
f 107/170/2 106/161/2 105/168/2
f 61/171/2 107/170/2 73/169/2
f 79/172/2 108/101/2 107/170/2
f 110/173/1 61/174/1 66/175/1
f 112/98/1 79/176/1 110/173/1
f 68/177/1 65/178/1 57/179/1
f 109/180/1 66/175/1 65/178/1
f 67/181/1 109/180/1 68/177/1
f 111/182/1 110/173/1 109/180/1
f 58/183/1 111/182/1 67/181/1
f 76/184/1 112/98/1 111/182/1
f 75/96/1 62/185/1 80/97/1
f 80/99/2 62/186/2 85/100/2
f 76/102/3 58/187/3 87/103/3
f 78/105/4 60/188/4 83/106/4
f 82/108/5 57/189/5 65/109/5
f 68/111/6 57/190/6 82/112/6
f 90/114/6 81/117/6 59/115/6
f 92/113/6 82/112/6 81/117/6
f 88/118/6 89/121/6 83/119/6
f 89/121/6 90/114/6 84/116/6
f 87/122/6 91/123/6 89/121/6
f 91/123/6 92/113/6 90/114/6
f 58/124/6 67/125/6 91/123/6
f 67/125/6 68/111/6 92/113/6
f 94/126/5 66/129/5 61/127/5
f 96/110/5 65/109/5 66/129/5
f 69/130/5 93/133/5 74/131/5
f 93/133/5 94/126/5 73/128/5
f 70/134/5 95/135/5 93/133/5
f 95/135/5 96/110/5 94/126/5
f 59/136/5 81/137/5 95/135/5
f 81/137/5 82/108/5 96/110/5
f 98/138/4 84/140/4 59/136/4
f 100/107/4 83/106/4 84/140/4
f 71/141/4 97/144/4 69/142/4
f 97/144/4 98/138/4 70/139/4
f 72/145/4 99/146/4 97/144/4
f 99/146/4 100/107/4 98/138/4
f 64/147/4 77/148/4 99/146/4
f 77/148/4 78/105/4 100/107/4
f 102/149/3 88/152/3 60/150/3
f 104/104/3 87/103/3 88/152/3
f 86/153/3 101/156/3 77/154/3
f 101/156/3 102/149/3 78/151/3
f 85/157/3 103/158/3 101/156/3
f 103/158/3 104/104/3 102/149/3
f 62/159/3 75/160/3 103/158/3
f 75/160/3 76/102/3 104/104/3
f 106/161/2 86/164/2 64/162/2
f 108/101/2 85/100/2 86/164/2
f 74/165/2 105/168/2 71/166/2
f 105/168/2 106/161/2 72/163/2
f 73/169/2 107/170/2 105/168/2
f 107/170/2 108/101/2 106/161/2
f 61/171/2 79/172/2 107/170/2
f 79/172/2 80/99/2 108/101/2
f 110/173/1 79/176/1 61/174/1
f 112/98/1 80/97/1 79/176/1
f 68/177/1 109/180/1 65/178/1
f 109/180/1 110/173/1 66/175/1
f 67/181/1 111/182/1 109/180/1
f 111/182/1 112/98/1 110/173/1
f 58/183/1 76/184/1 111/182/1
f 76/184/1 75/96/1 112/98/1
